<?xml version="1.0" standalone="no"?>
<!DOCTYPE svg PUBLIC "-//W3C//DTD SVG 1.1//EN" "http://www.w3.org/Graphics/SVG/1.1/DTD/svg11.dtd" >
<svg xmlns="http://www.w3.org/2000/svg">
<metadata></metadata>
<defs>
<font id="arno_proitalic" horiz-adv-x="974" >
<font-face units-per-em="2048" ascent="1389" descent="-659" />
<missing-glyph horiz-adv-x="393" />
<glyph horiz-adv-x="2048" />
<glyph horiz-adv-x="2048" />
<glyph unicode="&#xd;" horiz-adv-x="393" />
<glyph unicode=" "  horiz-adv-x="393" />
<glyph unicode="&#x09;" horiz-adv-x="393" />
<glyph unicode="&#xa0;" horiz-adv-x="393" />
<glyph unicode="!" horiz-adv-x="583" d="M182 66q0 29 9.5 52t31.5 46q37 31 82 31q41 0 68 -27q16 -16 20 -37.5t4 -40.5q0 -18 -8 -44t-31 -44q-37 -31 -86 -31q-16 0 -35.5 6.5t-33.5 22.5q-20 27 -21 66zM295 381q6 100 15 228t16.5 246t13.5 208t10 117q0 14 12.5 29.5t24.5 19.5q27 10 75 20.5t75 10.5 q10 0 23 -8.5t15 -16.5q-2 -12 -14 -63.5t-29.5 -127t-40 -166t-45 -179.5t-43 -166.5t-32.5 -129.5q-6 -6 -26.5 -17t-31.5 -11q-12 0 -18 6z" />
<glyph unicode="&#x22;" horiz-adv-x="649" d="M160 885q14 43 30.5 104.5t31 125t23.5 121.5t11 99q4 6 23.5 21.5t42 30t43 25.5t26.5 11q10 0 17 -6q2 -6 1 -22.5t-3 -26.5q-8 -41 -22.5 -94t-31 -105.5t-35 -99.5t-32.5 -76q-18 -33 -41 -63.5t-43 -46.5q-8 -4 -22.5 -3t-18.5 5zM451 897q14 43 30.5 102.5 t29.5 121t21.5 117.5t10.5 97q4 6 23.5 21.5t42 30t43 25.5t26.5 11q8 0 16 -8q2 -4 1 -21.5t-3 -25.5q-6 -41 -19.5 -93t-30.5 -102.5t-34.5 -95.5t-34.5 -73q-16 -33 -37.5 -63t-41.5 -46q-8 -2 -23.5 -2t-19.5 4z" />
<glyph unicode="#" horiz-adv-x="927" d="M78 449l51 126q35 -4 79 -6t91 -2l63 230q-16 0 -41.5 1t-53 2t-51 2t-32.5 3l54 119q29 -2 73.5 -4t85.5 -2l70 249q0 2 10 6.5t23.5 8.5t25 8t15.5 4q2 0 6 -3t6 -5l-74 -256q-4 -12 4 -12l185 -3l77 273q2 2 13.5 6t24 8t23.5 7t15 3q8 0 8 -6l-84 -284q0 -6 9 -7h104 t90 7q2 -4 -6 -28l-10 -30q-20 -20 -41 -33.5t-45.5 -20.5t-55 -10t-69.5 -3q-4 0 -7 -3t-5 -6l-62 -213q0 -8 6 -8h101.5t89.5 8q2 -4 -4 -27.5t-11 -31.5q-41 -43 -93 -58.5t-118 -15.5q-8 0 -8 -10q-8 -29 -19 -69.5t-23.5 -82.5t-21.5 -80t-16 -59q-2 -4 -6 -5t-8 -1 q-2 0 -10 5t-17.5 12.5t-16.5 13.5t-7 8q6 20 15 55t20.5 75t21.5 77t17 61h-191q-10 0 -10 -8l-86 -295q-2 -4 -7 -5t-7 -1q-10 4 -30 20.5t-24 20.5q18 59 40 133t38 135q-160 0 -184 7zM377 571.5q0 -4.5 4 -4.5h188l66 230h-182q-8 0 -17 -9l-59 -210v-6.5z" />
<glyph unicode="$" horiz-adv-x="976" d="M63 282v64q6 4 28 9t32 3q12 -76 31.5 -126t47 -82.5t63.5 -50t83 -27.5q8 -4 8 4l103 459q4 10 -6 14q-123 72 -185.5 146.5t-62.5 178.5q0 86 32.5 149.5t88 107t129 63.5t153.5 18q8 0 8 7l35 147q6 4 28.5 8t33.5 8q4 0 12 -4l-37 -159q0 -8 6 -9q35 -4 73 -10 t67 -12q27 -4 52 -9t46 -8q-16 -45 -32.5 -111.5t-33.5 -133.5q-6 -6 -30.5 -6t-28.5 4q6 59 1 99t-21.5 64.5t-43 39t-65.5 20.5q-10 0 -10 -6l-99 -441q0 -12 4 -16q57 -35 108.5 -68.5t90.5 -72.5t61.5 -85t22.5 -106q0 -76 -30.5 -139t-88 -110.5t-139.5 -75t-184 -29.5 q-6 0 -6 -10l-35 -164q-8 -4 -29.5 -8t-32.5 -4q-6 0 -14 4l39 176q0 10 -6 10q-37 2 -76 12.5t-75 22.5t-62.5 22.5t-38.5 14.5q-6 10 -9 45t-4.5 78t-1.5 85zM348 938q0 -76 39 -121t109 -90q6 -4 12 6l92 410q0 10 -6 10q-125 0 -185.5 -62.5t-60.5 -152.5zM426 72 q0 -8 6 -9q51 0 99.5 12.5t84 39t57 67.5t21.5 97q2 66 -37 121t-125 108q-10 4 -10 -6z" />
<glyph unicode="%" horiz-adv-x="1439" d="M172 782q0 106 40 201.5t105 153.5q47 39 108 67.5t124 28.5q45 0 79 -19.5t56.5 -52.5t33.5 -76t11 -90q0 -72 -15.5 -130t-40 -104t-53 -80t-53.5 -54q-61 -47 -117.5 -65.5t-97.5 -18.5q-92 0 -136 67.5t-44 171.5zM213 23q260 311 513 615t515 617q12 8 46 15.5 t48 9.5q10 -6 6 -18q-18 -18 -67 -76t-119 -141.5t-155 -186t-174 -210t-177 -215t-165.5 -201t-137 -165t-92.5 -108.5q-10 -4 -16 0q-4 2 -8.5 10t-7.5 18.5l-6 21t-3 14.5zM303 831q0 -57 9.5 -96t25.5 -63.5t37.5 -34.5t46.5 -10q45 0 79 30.5t55.5 76.5t32.5 101.5 t11 106.5q2 88 -29.5 149.5t-99.5 61.5q-47 0 -79 -34t-52.5 -84t-28.5 -105.5t-8 -98.5zM801 258q0 106 40 201.5t105 152.5q47 39 108.5 68t127.5 29q45 0 77.5 -19.5t54 -51.5t33 -75t11.5 -92q0 -74 -15.5 -133t-40 -103.5t-53 -76t-53.5 -52.5q-63 -49 -118.5 -67.5 t-96.5 -18.5q-92 0 -136 67t-44 171zM932 311q-2 -117 35 -161t84 -44q45 0 78.5 29t56 74t34 101.5t11.5 109.5q0 88 -29.5 149.5t-95.5 61.5q-47 0 -81 -34t-54.5 -83t-29.5 -104.5t-9 -98.5z" />
<glyph unicode="&#x26;" horiz-adv-x="1472" d="M131 422q0 104 37 205.5t129 185.5q20 20 47 39.5t53.5 35t52 25t44.5 9.5q39 0 66.5 -17.5t45 -44t24.5 -57.5t7 -55q0 -4 3 -4.5t5 1.5q70 90 104.5 166t38.5 172q2 16 -2 46t-8 53q4 6 24.5 22.5t45 34.5t47.5 31.5t33 13.5q10 -2 16 -34.5t2 -61.5 q-6 -141 -115.5 -305t-302.5 -379q-49 -55 -104 -111.5t-94 -97.5q-6 -4 -7 -10t1 -11q35 -86 121.5 -143t211.5 -57q156 0 257.5 104.5t111.5 296.5q0 23 -8 33q-16 10 -35.5 15t-54.5 5q-70 0 -122 -51t-93 -145q-10 -6 -17 0q-10 6 -18 21.5t-10 25.5q16 47 45.5 95 t69.5 86t90.5 62.5t107.5 24.5q76 0 141.5 -12t114.5 -12q45 0 67.5 14t22.5 53q0 29 -15.5 65t-39.5 64q2 8 19.5 23.5t39 31t42 26.5t30.5 13q18 -14 29.5 -49t11.5 -76t-19.5 -88t-56.5 -89t-90 -70.5t-119 -34.5q-29 -115 -84 -217.5t-133 -180t-176 -123.5t-215 -46 q-109 0 -188.5 40.5t-131 108.5t-76 155t-24.5 179zM272 516q0 -41 5.5 -77t11.5 -58q6 -14 14 -6q35 31 85 80t93 102q23 29 29 56.5t6 60.5q0 23 -6 48.5t-18.5 45.5t-30.5 33.5t-43 13.5t-51.5 -18.5t-47 -55t-34 -93t-13.5 -132.5z" />
<glyph unicode="'" horiz-adv-x="362" d="M162 887q18 49 33.5 109.5t26.5 122t18.5 117.5t9.5 95q6 6 25.5 21.5t43 31t44 27.5t28.5 12q10 0 17 -6q2 -6 2 -24.5t-4 -30.5q-6 -43 -20.5 -96.5t-32 -106.5t-37 -100t-37.5 -78q-18 -35 -41 -60.5t-41 -37.5q-8 -4 -19.5 -2t-15.5 6z" />
<glyph unicode="(" horiz-adv-x="808" d="M174 393q0 199 55.5 377t148.5 327.5t215 268.5t253 199q4 0 10 -6.5t11 -15.5t8.5 -17t1.5 -10q-115 -84 -216.5 -203t-177 -264.5t-121 -315.5t-45.5 -356q0 -223 58.5 -410.5t179.5 -320.5q0 -4 -5 -11.5t-12.5 -14.5t-14.5 -14t-11 -7q-37 23 -94.5 85t-111.5 162.5 t-93 237.5t-39 309z" />
<glyph unicode=")" horiz-adv-x="796" d="M-27 -348q113 84 215.5 201.5t179 264t122 315.5t45.5 353q2 223 -57.5 411.5t-180.5 320.5q0 4 5 12t12.5 15t15.5 13.5t12 6.5q37 -23 94.5 -84.5t111.5 -161.5t93 -237.5t39 -309.5q0 -199 -55.5 -376t-148.5 -327.5t-215 -269t-255 -200.5q-4 0 -10 7t-11 16 t-9.5 17.5t-2.5 12.5z" />
<glyph unicode="*" horiz-adv-x="741" d="M125 956q4 6 12 17.5t18.5 22l19.5 19.5t15 11l189 49q-10 8 -31.5 33t-45 53.5t-46.5 56t-33 42.5q-6 6 -5 14t5 10q20 10 46 18.5t36 6.5q20 -33 62.5 -83t76.5 -89q23 78 43.5 139t30.5 78q2 2 15.5 6t27.5 6t28.5 3t20.5 -1q2 0 5 -5t1 -9q-10 -20 -24 -56t-27.5 -74 t-24 -70t-14.5 -40q12 2 43 10.5t68 18.5t76 20.5t71 20.5q4 0 7.5 -7.5t3.5 -11.5q-4 -4 -8.5 -14t-10.5 -20.5t-12 -18.5t-12 -10q-23 -10 -50.5 -18.5t-57.5 -16.5t-57.5 -15.5t-47.5 -13.5q12 -14 37.5 -40.5t56.5 -54.5t59.5 -52.5t44.5 -32.5q0 -4 -5 -12t-9 -12 q-12 -4 -44 -4.5t-48 10.5q-53 37 -89 72.5t-65 58.5q-10 -27 -21.5 -67t-22.5 -78t-19 -69.5t-11 -43.5h-14q-6 2 -15 10t-17.5 20.5t-13.5 26.5t-1 29q4 16 10 41.5t14.5 53.5t16.5 56.5t16 53.5q-12 -4 -47 -12.5t-77 -17.5t-81.5 -18.5t-60.5 -13.5q-8 4 -8 14z" />
<glyph unicode="+" horiz-adv-x="1120" d="M90 440.5v12.5q0 6 3 20t7 29.5t8.5 29t6.5 17.5q16 -4 80.5 -3t156.5 1h144v139v83t-1 78t-2 63.5t-1 37.5q8 2 23 7.5t32.5 8.5t31 6t17.5 3q6 0 9 -10.5t3 -61.5v-59.5v-81.5v-95.5v-97.5q0 -6 3 -13t10 -7h407q2 -2 2 -12.5v-12.5q0 -4 -4 -17t-9 -27.5t-10.5 -27 t-11.5 -12.5q-8 -2 -48 -2h-95h-116.5t-112.5 -2q-6 0 -10.5 -7t-4.5 -11v-111.5v-124v-102.5t-2 -49q0 -6 -12 -12.5t-28.5 -12.5t-32 -11t-21.5 -5q-4 0 -9 1t-7 3v52v104.5v137v148.5q-55 0 -104.5 -1t-96.5 -1h-96h-107q-2 0 -2 8.5z" />
<glyph unicode="," horiz-adv-x="380" d="M-138 -321.5q-1 4.5 1 6.5q94 68 162.5 152.5t68.5 178.5q0 37 -10 73t-27 71q4 8 22.5 26.5t41 38t44 34.5t32.5 20q4 4 19 4t20 -4q6 -8 17 -37t11 -80q0 -78 -31.5 -156t-81 -145.5t-110.5 -120.5t-121 -86q-10 -2 -27.5 5t-27.5 13q-2 2 -3 6.5z" />
<glyph unicode="-" horiz-adv-x="544" d="M45 375q2 10 9 27.5t15.5 35t15.5 29.5t11 12q41 0 101.5 1l121 2t110.5 3t73 4q2 -4 4 -10t2 -10q-2 -10 -10.5 -25.5t-17.5 -31t-18 -26.5t-13 -13q-14 -4 -73 -8.5t-125.5 -6.5t-124.5 -3t-75 -1q-2 4 -4 10.5t-2 10.5z" />
<glyph unicode="." horiz-adv-x="380" d="M53 68q0 29 9.5 53t31.5 47q37 31 82 31q41 0 68 -27q16 -18 20 -38.5t4 -39.5q0 -18 -8 -46t-31 -46q-37 -31 -86 -31q-16 0 -35.5 6.5t-33.5 22.5q-20 27 -21 68z" />
<glyph unicode="/" horiz-adv-x="892" d="M-49 -225q37 59 91 152t119.5 206t136.5 240t141.5 254t137 247.5t121 221t94 173t56.5 105.5q2 2 16.5 7t31.5 10.5t34.5 8.5t23.5 3q4 0 6.5 -5t2.5 -9q-4 -10 -38 -74t-88.5 -164t-124 -227t-145 -262.5t-151.5 -270.5t-141.5 -250.5t-118 -203t-80.5 -125.5 q-4 -6 -19.5 -15.5t-33 -16.5t-34 -13.5t-24.5 -8.5q-10 6 -14 17z" />
<glyph unicode="0" d="M92 397q0 98 16.5 199.5t48 197t78 177.5t107.5 141q74 70 150.5 101.5t154.5 31.5t136.5 -30.5t97.5 -85t58 -130t19 -165.5q0 -125 -19 -239t-56 -212t-88.5 -176t-114.5 -129q-78 -66 -148.5 -83.5t-125.5 -17.5q-84 0 -142.5 32t-96.5 88.5t-55.5 133t-19.5 166.5z M264 410q0 -193 52.5 -274t148.5 -81q39 0 73.5 17.5t59.5 42.5q45 47 80 123.5t59.5 172t36.5 202t12 210.5q0 178 -46 263t-144 85q-49 0 -87 -24.5t-60 -50.5q-43 -49 -78 -126t-58.5 -169t-36 -192.5t-12.5 -198.5z" />
<glyph unicode="1" d="M141 23.5q2 25.5 11 29.5q43 4 75.5 8.5t59.5 8.5q47 10 65.5 35.5t28.5 74.5q14 72 34.5 190.5t43.5 252.5q10 74 21.5 141t19.5 122.5t14 94.5t6 53q2 23 -2 40.5t-31 21.5q-16 4 -57 8t-76 4q-6 6 1 29.5t14 27.5q41 2 86 10.5t88 18.5t83 23.5t68 27.5q8 2 17.5 -1 t9.5 -7q-16 -53 -37.5 -182t-50.5 -307q-6 -41 -19.5 -122t-26 -168t-23.5 -162t-13 -103q-4 -53 2 -81t45 -38q27 -6 57.5 -11.5t75.5 -9.5q2 -4 -2 -29.5t-10 -29.5q-53 0 -115.5 3t-159.5 3q-102 0 -173.5 -3t-127.5 -3q-4 4 -2 29.5z" />
<glyph unicode="2" d="M29 17.5q0 17.5 4 23.5q57 45 105 83t96.5 79t99.5 89t112 114q129 135 185.5 249.5t56.5 229.5q0 43 -12 83t-37 70.5t-64 49t-92 18.5q-70 0 -137 -35t-141 -115q-4 0 -11.5 5.5t-12.5 13.5t-9 15t-2 11q25 35 64.5 78t91 80t113 61.5t130.5 24.5q61 0 113.5 -24.5 t90.5 -66.5t59.5 -99.5t21.5 -120.5q0 -72 -17.5 -134.5t-53 -124t-89 -122.5t-123.5 -131q-47 -47 -87 -84t-74.5 -68.5t-67.5 -60.5t-68 -59q-2 -2 -1 -6.5t6 -4.5q23 -2 75 -4t113 -3t120.5 -1h96.5q14 0 30.5 4t37 20.5t47 49.5t59.5 92q8 4 26.5 -7t22.5 -20 q-10 -27 -25.5 -63.5t-34 -72.5t-36.5 -67.5t-33 -48.5q-12 -14 -33.5 -19t-46.5 -5q-51 0 -116.5 1t-137 2t-143.5 2t-133 1h-32.5t-40 -1t-37 -2t-25.5 -1q-4 4 -4 21.5z" />
<glyph unicode="3" d="M55 197q4 6 24.5 14t24.5 8q18 -59 46 -101t59 -67q37 -29 87 -44t112 -15q129 0 209.5 75.5t80.5 229.5q0 55 -16 103.5t-50 84t-87 57t-125 21.5q-23 0 -38 -1t-36 -3q-2 2 1 14.5t9 24.5t12.5 23.5t10.5 13.5q162 35 237.5 107.5t75.5 183.5q0 82 -48 137t-134 55 q-68 0 -128 -32.5t-122 -92.5q-8 0 -19.5 20.5t-9.5 28.5q33 37 73 73t85 65.5t96.5 47t108.5 17.5q61 0 109.5 -21.5t82 -57.5t51 -83t17.5 -98q0 -53 -19.5 -99t-51 -85t-71.5 -70t-79 -53q-6 -4 -2 -8q43 -16 86 -43t77.5 -64t56 -85t21.5 -107q0 -131 -64.5 -225.5 t-174.5 -157.5q-76 -45 -153 -59.5t-140 -14.5t-120.5 14.5t-94.5 42.5q-16 10 -29.5 26.5t-23.5 47.5t-14.5 79t-2.5 73z" />
<glyph unicode="4" d="M35 358q-2 6 3 31t9 31q41 47 102.5 118.5t132 154.5t144.5 168t137.5 159t110.5 130t65 81q8 0 22.5 -1t31.5 -1q16 0 30.5 1t24.5 1q-8 -49 -23.5 -142.5t-32 -201t-34 -216t-29.5 -186.5q0 -4 2 -8t6 -4q53 0 117 2t107 4q-6 -20 -16.5 -53t-14.5 -64l-209 -2 q-8 0 -12 -10l-60 -403q-41 -2 -90 -6t-80 -11l72 418q0 12 -8 12h-132t-135.5 -1t-129 -1h-111.5zM195 475q-4 -6 4 -10q31 0 72.5 1t90 1h99.5h98q8 0 12 12l99 565q0 2 -3 2.5t-5 -2.5q-16 -18 -54.5 -63t-86.5 -102.5t-101 -122t-99.5 -121.5t-81 -101.5t-44.5 -58.5z " />
<glyph unicode="5" d="M55 119q0 8 4 22.5t11.5 30.5t14.5 30.5t13 22.5q4 2 14.5 6.5t14.5 1.5q18 -41 47 -81.5t70 -74.5t94 -55.5t121 -21.5q117 0 175 70.5t58 193.5q-2 68 -31.5 126.5t-103.5 121.5q-39 33 -88 65.5t-95 62.5t-83 52.5t-51 36.5q-4 6 -3 28.5t5 33.5q16 41 42.5 98 t54.5 115.5t54.5 108.5t44.5 79q10 14 25.5 27.5t25.5 13.5q20 0 50 -2t64 -5t69 -4t65 -1q37 0 56.5 6.5t48.5 29.5q4 0 15 -11t11 -17q-2 -10 -11 -28.5t-22.5 -38t-28.5 -38t-28 -28.5q-20 -16 -39.5 -22.5t-44.5 -6.5q-51 0 -110.5 5t-112.5 9q-16 0 -33 -20 q-10 -18 -22.5 -43t-24.5 -50.5t-22.5 -50t-16.5 -40.5q-4 -10 -2 -19.5t6 -11.5q27 -16 75 -45t101.5 -61.5t104.5 -67.5t84 -66q68 -61 101.5 -121.5t33.5 -142.5q0 -94 -42 -172t-109.5 -134t-152.5 -88t-171 -32q-123 0 -201 45t-110 94q-16 31 -15 64z" />
<glyph unicode="6" d="M92 358q0 156 64.5 301.5t180.5 271.5t273.5 226t345.5 164q4 -2 14.5 -24.5t6.5 -28.5q-133 -61 -233.5 -126t-174 -132.5t-125 -138t-88.5 -142.5q-4 -6 -1 -8t7 0q78 43 145.5 66.5t127.5 23.5q55 0 105.5 -25.5t88 -69.5t60 -104.5t22.5 -130.5q0 -145 -62.5 -258.5 t-180.5 -185.5q-47 -29 -106.5 -47.5t-125.5 -18.5q-92 0 -156.5 33t-106.5 87t-61.5 124t-19.5 143zM260 371q2 -170 70.5 -246t169.5 -76q57 0 103 31t78 83t48 117.5t16 137.5q-4 141 -63 212.5t-168 71.5q-35 0 -76 -11t-88 -40q-16 -10 -30.5 -26.5t-20.5 -32.5 q-39 -106 -39 -221z" />
<glyph unicode="7" d="M135 936q29 68 56.5 146.5t50.5 156.5q23 -10 67.5 -14t91.5 -4h394h114.5t98.5 4q4 -2 6 -11.5t0 -13.5q-23 -55 -77 -160.5t-126 -233.5t-150.5 -267.5t-148.5 -261t-122 -215t-68 -130.5q-4 -4 -8.5 -5t-6.5 -3q-14 2 -38.5 13.5t-30.5 21.5q-4 4 -3 14.5t5 14.5 q33 57 87 148t116.5 196.5t129 217.5t124 211t100.5 178t61 120q0 10 -6 10q-33 0 -101.5 1t-145.5 1t-147.5 -1t-107.5 -3q-23 -2 -40 -8t-33.5 -22.5t-37 -46t-49.5 -81.5q-6 -4 -29.5 7.5t-25.5 19.5z" />
<glyph unicode="8" d="M88 250q0 45 12.5 82t47 75.5t95 85t158.5 109.5q6 6 0 12q-166 141 -165 283q0 84 36.5 150.5t106.5 119.5q59 41 120 59.5t122 18.5q59 0 109 -19.5t87 -54t57.5 -82t20.5 -100.5q0 -49 -13.5 -89t-43 -78t-78.5 -77.5t-121 -89.5q-4 -4 0 -10q55 -45 96 -84 t68.5 -75.5t41 -73.5t13.5 -80q0 -80 -36 -145.5t-96 -112.5t-137 -73t-159 -26q-92 0 -156.5 26t-106.5 65.5t-60.5 88t-18.5 95.5zM238 268q2 -94 66 -158.5t179 -64.5q41 0 79 13.5t67.5 39t48 63.5t18.5 89q0 41 -12 78t-40 73.5t-72 76.5t-107 87q-8 6 -14 0 q-90 -61 -151.5 -132t-61.5 -165zM377 965q0 -84 54 -146.5t149 -130.5q2 -2 6 -3t6 3q92 72 129 136.5t37 136.5q0 102 -56.5 160.5t-132.5 58.5q-84 0 -138 -57.5t-54 -157.5z" />
<glyph unicode="9" d="M92 -49q248 111 395.5 261t219.5 310q2 4 -1.5 7t-7.5 1q-90 -59 -164.5 -77.5t-127.5 -18.5q-57 0 -107.5 24.5t-88.5 67.5t-60.5 103.5t-22.5 132.5q0 127 57.5 235.5t165.5 176.5q55 35 112.5 53t125.5 18q80 0 144.5 -30.5t108.5 -86t68.5 -130t26.5 -160.5 q2 -164 -63.5 -313.5t-178 -273.5t-262 -216t-315.5 -141q-8 2 -17.5 25.5t-7.5 31.5zM289 829q0 -74 19.5 -127t52 -87.5t76.5 -51t95 -16.5t95.5 14t74.5 37q12 10 22.5 24.5t14.5 24.5q12 41 22.5 92.5t8.5 106.5q-2 147 -62 237.5t-169 90.5q-57 0 -103.5 -30t-79 -78 t-50 -109.5t-17.5 -127.5z" />
<glyph unicode=":" horiz-adv-x="567" d="M121 66q0 29 9 52t32 46q37 31 82 31q41 0 67 -27q16 -16 20.5 -37.5t4.5 -40.5q0 -18 -8.5 -44t-30.5 -44q-37 -31 -86 -31q-16 0 -35.5 6.5t-34.5 22.5q-20 27 -20 66zM211 606q0 29 9 52.5t34 46.5q16 16 39 23t41 7q43 0 69 -26q14 -16 19.5 -37t3.5 -39 q0 -18 -8 -44t-29 -44q-39 -33 -88 -33q-16 0 -35.5 7t-32.5 24q-23 29 -22 63z" />
<glyph unicode=";" horiz-adv-x="567" d="M-43 -315q47 33 90 71.5t75 80.5t50 87t18 92q0 37 -10 73t-26 71q4 8 22.5 26.5t41 38t43 34.5t30.5 20q6 4 20.5 4t18.5 -4q8 -8 19 -37t11 -80q0 -78 -31.5 -156t-81.5 -145.5t-111.5 -120.5t-121.5 -86q-10 -2 -27.5 5t-25.5 13q-2 2 -4 6.5t0 6.5zM211 606 q0 29 9 52.5t32 46.5q18 16 41 23t41 7q43 0 69 -26q14 -16 19.5 -37t3.5 -39q0 -18 -8 -44t-31 -44q-35 -33 -86 -33q-16 0 -35.5 7t-34.5 24q-20 27 -20 63z" />
<glyph unicode="&#x3c;" horiz-adv-x="1120" d="M129 444q0 4 2 16.5t6 26t9.5 23.5t9.5 12q43 20 115.5 57t156.5 80t171 89.5t162 87.5t129 71.5t71 44.5q8 0 12 -10q0 -8 -2 -26.5t-5 -37t-8.5 -34t-9.5 -17.5q-12 -10 -54 -33.5t-100.5 -54t-127 -67.5t-133 -70t-119 -61.5t-84.5 -42.5q-4 -2 -3 -7.5t3 -5.5 q16 -10 67.5 -36.5t120 -61.5t145 -74t143 -74.5t116 -63.5t61.5 -40q2 -4 -1 -16.5t-9 -27.5t-13.5 -30.5t-11.5 -21.5q-6 -6 -16 -6q-20 14 -74.5 46t-128.5 70.5t-159 82.5t-168 85t-154.5 75t-118.5 52z" />
<glyph unicode="=" horiz-adv-x="1120" d="M88 625.5q-2 7.5 0 11.5q0 6 4 21.5l8 31t8.5 28.5t6.5 17q16 -4 79.5 -4h155.5h678q8 -8 4 -20q0 -4 -4 -18.5t-9 -30t-11.5 -27.5t-10.5 -14l-903 -3q-4 0 -6 7.5zM90 266q0 6 3 20.5t7 31t8.5 29.5t6.5 20q16 -4 79.5 -5.5t155.5 -1.5h676q4 -4 4 -10v-10 q0 -6 -5 -20.5t-10 -30t-11.5 -27.5t-10.5 -12l-897 -2q-4 0 -5 7t-1 11z" />
<glyph unicode="&#x3e;" horiz-adv-x="1120" d="M135 850q-4 2 0 14.5t10.5 27.5t13.5 30.5t11 21.5q2 4 7 6t9 0q20 -14 74.5 -45t128.5 -70.5t159 -83.5t168 -84t154.5 -75t118.5 -53q0 -4 -2 -15.5t-6 -25t-9 -24.5t-9 -13q-45 -20 -117 -57t-156 -80t-171 -89.5t-161.5 -86t-129 -71.5t-70.5 -44q-8 0 -13 8 q0 8 2.5 26.5t5.5 37t8 34t9 19.5q12 8 54 31.5t100.5 55t127 67.5t133 69t119 61.5t84.5 42.5q4 4 3.5 9.5t-3.5 5.5q-16 10 -67 36.5t-120 61.5t-145.5 74t-143 74.5t-116 63.5t-61.5 40z" />
<glyph unicode="?" horiz-adv-x="729" d="M231 66q0 29 9.5 52t33.5 46q16 16 39 23.5t41 7.5q39 0 70 -27q14 -16 19.5 -37.5t2.5 -40.5q0 -18 -8 -44t-28 -44q-37 -31 -88 -31q-16 0 -36 6.5t-32 22.5q-23 29 -23 66zM248 528q2 20 12 36t21 26q12 12 46.5 39.5t75.5 58.5t79 60.5t57 46.5q27 23 43 50t16 58 t-14.5 63.5t-44 61.5t-72.5 50.5t-100 31.5q-16 2 -36 4t-34 2q-10 2 -14 12.5t-2 16.5q2 16 20 46t41 50q8 6 26.5 13.5t43.5 7.5q66 0 125 -27t100 -64q51 -47 72.5 -103t21.5 -112q0 -51 -19.5 -84.5t-35.5 -52.5q-20 -23 -51 -47t-65 -51t-65.5 -50.5t-54.5 -41.5 q-30 -25 -30 -56q-2 -12 12 -43.5t45 -64.5q2 -4 -1 -12.5t-9 -12.5q-10 -10 -39 -24.5t-47 -18.5q-23 -6 -43 2q-41 18 -61.5 55.5t-18.5 73.5z" />
<glyph unicode="@" horiz-adv-x="1720" d="M129 272q0 190 64.5 352t179.5 285q135 145 304 223t351 78q154 0 266.5 -56t186 -143t109.5 -192.5t36 -206.5q0 -162 -60.5 -281.5t-148.5 -198.5t-187.5 -118t-176.5 -39q-41 0 -64.5 33t-17.5 111q6 66 26 170q0 4 -3 5t-5 -3q-47 -66 -103.5 -123t-110.5 -100 t-99 -69t-70 -26q-27 0 -51.5 20.5t-38.5 59.5q-18 45 -18 127q0 127 49 253t137 218q29 31 73 64t98 60.5t115.5 45t125.5 17.5q47 0 86 -5.5t73 -15.5q-20 -45 -30.5 -76.5t-18.5 -66.5q-14 -55 -28.5 -129t-25.5 -145.5t-19.5 -132t-10.5 -91.5q0 -37 12.5 -60.5 t47.5 -23.5q45 0 101 26.5t106.5 82t84 141.5t33.5 205q0 147 -43 255.5t-118.5 179.5t-178 104.5t-219.5 33.5q-61 0 -135 -17.5t-149.5 -55t-147.5 -100t-127 -156t-89 -218t-34 -286.5q0 -145 33 -253t86 -182.5t119.5 -120.5t134.5 -67q35 -10 78 -16t76 -2 q4 -4 3 -16.5t-3 -16.5q-25 -18 -66 -27.5t-82 -9.5q-31 0 -81 16.5t-107.5 51t-115.5 90t-105.5 132.5t-77 178t-29.5 228zM647 264q0 -66 19.5 -99.5t50.5 -33.5q20 0 52 18.5t67.5 50t72.5 75.5t72 98q23 35 35 68.5t24 82.5q6 23 12.5 51.5t13.5 56t14 52.5t14 37 q-33 23 -111 22q-84 0 -148.5 -48t-109.5 -126q-41 -72 -59.5 -154.5t-18.5 -150.5z" />
<glyph unicode="A" horiz-adv-x="1226" d="M-84 23.5q0 23.5 6 27.5q55 8 91 16.5t63.5 27t52.5 52t59 93.5q35 61 80 143t93.5 172t95.5 181t88 170t71.5 141.5t47.5 95.5q18 35 31.5 67.5t19.5 53.5q12 -2 27.5 -3t31.5 -1t31.5 1t28.5 3q0 -18 5 -51t9 -60q4 -29 15 -97.5t26.5 -158.5t33 -191.5t34 -194.5 t30.5 -171t23 -121q10 -53 21 -83t30.5 -46t52.5 -23.5t88 -13.5q4 -4 4 -19v-12q-2 -24 -10 -28q-33 0 -98.5 3t-134.5 3q-35 0 -74 -1t-75 -2t-64.5 -2t-42.5 -1q-4 6 -3 30.5t7 28.5q31 4 59.5 8.5t50.5 12.5q20 8 26.5 25.5t4.5 27.5q-4 33 -10 80t-14.5 97t-17.5 97.5 t-15 81.5q0 6 -4.5 9.5t-8.5 3.5q-23 2 -75 2h-117h-74h-42t-22.5 -1t-13.5 -1t-12 -5.5t-8 -9.5q-23 -41 -47.5 -89t-49 -95t-44 -88t-27.5 -66q-10 -25 -3 -45t42 -28q16 -4 44.5 -8.5t55.5 -8.5q4 -4 2 -28.5t-8 -30.5q-31 0 -95.5 3t-156.5 3q-86 0 -137 -3t-74 -3 q-4 6 -4 29.5zM475 600q0 -12 4 -14q14 -2 55 -3t109 -1h72t53 2q4 0 8 5q3 3 3 7q0 2 -1 4q-8 55 -18 119.5t-20.5 126t-19.5 116t-15 87.5q-2 0 -5.5 -1t-5.5 -1q-18 -41 -48 -99.5t-61.5 -122t-61 -124t-48.5 -101.5z" />
<glyph unicode="B" horiz-adv-x="1144" d="M-10 24q2 24 10 29q41 4 71.5 8.5t53.5 8.5q35 8 51.5 28.5t28.5 73.5q6 25 15 78t20.5 118.5t22.5 137.5t22 131q10 66 21 135.5t20.5 132t16.5 114.5t11 81q6 45 -3 62.5t-42 27.5q-20 4 -53 8t-63 8q-4 6 -1 31t11 29q51 0 118.5 -3t120.5 -3q80 2 143.5 3t139.5 1 q59 0 118.5 -12.5t106.5 -43t77 -82t30 -127.5q0 -115 -76 -192.5t-188 -114.5q-6 -6 0 -10q57 -16 105 -42t84 -61.5t56.5 -82.5t20.5 -107q0 -131 -76 -223t-209 -139q-66 -25 -142.5 -33t-158.5 -8q-35 0 -94.5 2t-129 4t-137.5 3h-44q-41 0 -74 -1q-4 4 -4 19v11z M373 152q-1 -4 -1 -7q0 -11 5 -24q6 -17 16 -25q23 -18 69 -27.5t99 -9.5q156 0 233.5 81t77.5 222q0 119 -88 196t-256 77h-36.5t-34.5 -4q-12 0 -17 -21q-8 -45 -18 -111.5t-20.5 -134t-18.5 -126t-10 -86.5zM459 725q0 -16 12 -16q14 -4 35.5 -4h44.5q168 0 250 74.5 t82 185.5q0 119 -67.5 175t-192.5 56q-10 0 -34 -2t-38 -6q-16 -8 -23 -33q-6 -35 -15 -86t-18.5 -109.5t-18.5 -120t-17 -114.5z" />
<glyph unicode="C" horiz-adv-x="1269" d="M152 537q0 100 23.5 197t72.5 186.5t125 164t180 129.5q82 43 173 62.5t200 19.5q53 0 105 -5t104 -13q41 -8 78.5 -14.5t62.5 -10.5q-6 -25 -15.5 -61.5t-18.5 -78.5t-16 -84t-9 -75q-8 -10 -33 -11t-33 7q0 61 -4 101.5t-13.5 66t-25.5 41t-41 27.5q-37 20 -94.5 29.5 t-116.5 9.5q-117 0 -212 -50.5t-162.5 -138.5t-104.5 -206.5t-37 -256.5v-8q0 -242 119 -372q121 -132 338 -132q39 0 78.5 7.5t74.5 23.5q53 23 108.5 69t115.5 124q8 0 23 -17.5t13 -27.5q-18 -35 -43.5 -71t-55.5 -66.5t-58.5 -53t-53.5 -35.5q-53 -27 -127.5 -39 t-158.5 -12q-137 0 -242.5 40t-176.5 115t-106.5 181.5t-35.5 237.5z" />
<glyph unicode="D" horiz-adv-x="1392" d="M-14 24q2 24 10 29q39 4 71.5 7t55.5 8q31 6 50.5 28.5t29.5 75.5q10 51 24.5 130t29.5 169t30.5 183.5t29 178.5t23.5 151.5t14 102.5q3 22 3 38q0 19 -4 31q-7 22 -48 32q-20 4 -53 9t-66 9q-4 10 0 33t13 27q12 0 38.5 -1t62.5 -2t74 -2t70 -1q49 0 85 1t69 2t66.5 1 h74.5q150 0 263.5 -43t185.5 -119q61 -70 101 -167t40 -233q0 -178 -72.5 -320t-195.5 -230q-106 -88 -236.5 -129t-318.5 -41q-59 0 -129 2t-139.5 5t-134 4t-113.5 1q-4 4 -4 19v11zM375 160q-1 -8 -1 -15q0 -13 5 -25q8 -18 22 -26q23 -14 74 -25.5t143 -11.5 q78 0 159 20.5t159 86.5q49 41 87 98t63.5 125t40 142.5t14.5 148.5q0 135 -40 241.5t-124 172.5q-59 49 -138 74.5t-188 25.5q-27 0 -50 -2t-38 -6q-10 -4 -17 -14.5t-11 -22.5q-10 -49 -23.5 -125t-29 -167t-31 -190.5t-30.5 -193.5t-26.5 -175t-19.5 -136z" />
<glyph unicode="E" horiz-adv-x="1114" d="M-24 24q2 24 10 29q47 4 77.5 8.5t59.5 12.5q37 8 54.5 31.5t29.5 78.5q4 23 17.5 92.5t28.5 164t31.5 198.5t32 196.5t24.5 161t11 86.5q2 20 2 35q0 23 -4 37q-6 23 -41 33q-16 6 -49 11t-70 9q-6 6 0.5 30t10.5 28q14 0 43.5 -1t66.5 -2t79 -2t83 -1h379h61.5t64.5 1 t59.5 4t45.5 7q6 -6 7 -15q-8 -23 -16.5 -55.5t-16.5 -71t-16.5 -78.5t-14.5 -75q-4 -4 -13 -5t-20.5 -1t-20.5 1t-11 3q0 80 -11 131q-6 41 -25.5 56.5t-72.5 19.5q-20 2 -61 3t-86.5 1t-85 -1t-58.5 -3q-12 -4 -19 -14.5t-12 -20.5q-8 -43 -17 -98.5t-18.5 -116 t-19.5 -121.5t-18 -117q0 -12 8 -12h153.5t133.5 2q33 2 52 20.5t34 47.5q8 16 16 36.5t16 42.5q6 6 34 6.5t34 -8.5q-8 -29 -20.5 -86t-22.5 -106q-8 -47 -15.5 -103.5t-13.5 -99.5q-4 -4 -12 -5t-18.5 -1t-19.5 2t-11 4q0 23 -2 45.5t-6 42.5q-6 66 -58 72q-25 2 -60.5 3 t-75.5 2t-80 1h-72q-10 0 -15 -14q-8 -49 -17 -110.5t-18.5 -123t-16.5 -116t-11 -91.5v-10q0 -40 28 -49q29 -6 121 -7t207 -1h11q46 0 79 14q37 16 66 47q29 33 59.5 75t63.5 99q6 2 27.5 -7t25.5 -17q-6 -25 -18.5 -57.5t-28 -68.5t-32.5 -70t-34 -60q-27 -39 -80 -39 h-120.5t-128 2t-152.5 3t-195 1q-104 0 -174.5 -3t-117.5 -3q-4 4 -4 19v11z" />
<glyph unicode="F" horiz-adv-x="1046" d="M-2 24q2 22 10 29q35 4 63.5 8.5t47.5 8.5q47 10 62.5 32.5t25.5 75.5q4 23 16.5 93.5t28.5 164.5t32.5 198.5t31 198t25.5 162t13 88.5q3 21 3 37q0 22 -5 35q-8 23 -41 33q-20 8 -53 12t-68 8q-4 6 0.5 30t10.5 28q27 0 99.5 -3t158.5 -3h446q49 0 105.5 3t89.5 7 q4 0 6 -8.5t2 -14.5q-18 -47 -37.5 -125t-36.5 -159q-4 -8 -28.5 -8.5t-32.5 6.5q0 41 -2 80.5t-6 68.5q-8 66 -78 70q-27 2 -75 3t-97 1h-92h-60q-10 0 -20.5 -13.5t-12.5 -23.5q-6 -29 -17 -92.5t-23.5 -136t-22.5 -141t-16 -107.5q-4 -12 10 -13h64h92.5t93.5 1t69 4 q43 4 62.5 19t31.5 44q8 16 15.5 35.5t17.5 48.5q8 6 34 3t32 -9q-10 -33 -21.5 -85t-21.5 -108q-8 -47 -15.5 -100t-11.5 -100q-2 -4 -11 -7.5t-19.5 -3.5t-19.5 1t-11 6l-6 94q-6 35 -22.5 50t-45.5 19q-25 2 -70 3t-93 2t-92 1h-67q-12 0 -12 -14q-8 -45 -16 -98 t-16.5 -105.5t-15.5 -99.5t-9 -78q-2 -21 -2 -38q0 -24 5 -38q9 -24 54 -34l129 -17q4 -8 1 -30.5t-11 -28.5q-45 0 -128 3t-163 3q-78 0 -145.5 -3t-116.5 -3q-3 5 -3 17q0 5 1 13z" />
<glyph unicode="G" horiz-adv-x="1368" d="M147 522q0 117 30 224.5t87.5 199.5t138 165t185.5 116q90 41 176 55t192 14q53 0 121 -8t111 -16q37 -6 73.5 -12.5t63.5 -8.5q-10 -29 -20.5 -67.5t-20.5 -79.5t-18.5 -83t-12.5 -75q-8 -10 -33.5 -9t-31.5 5v28q0 85 -10 128q-13 49 -52 73q-80 53 -252 54 q-127 0 -225 -54.5t-167.5 -148.5t-105.5 -218t-36 -261q0 -240 116.5 -373t331.5 -133q33 0 71 7t61 22q20 12 29 30.5t14 34.5q6 25 12 54.5t11 61.5t10 63.5t10 56.5q4 23 4 41q0 21 -6 34q-9 23 -43 33q-25 4 -59 9t-81 12q-4 8 0 31.5t10 27.5q41 0 103.5 -3t161.5 -3 q100 0 149 3t78 3q3 -4 3 -16q0 -6 -1 -13q-2 -24 -10 -32q-23 -4 -37 -6.5t-31 -6.5q-31 -8 -46 -30.5t-27 -71.5q-4 -23 -10.5 -55.5t-11.5 -66.5t-9 -64.5t-6 -51.5q-4 -23 6.5 -32t30.5 -19q4 -4 -2.5 -22.5t-10.5 -22.5q-25 -8 -69.5 -21.5t-103 -26.5t-124 -22.5 t-129.5 -9.5q-152 0 -262.5 38t-183 110.5t-107.5 176t-35 232.5z" />
<glyph unicode="H" horiz-adv-x="1482" d="M-1 24q3 22 7 29q27 4 56.5 7t56.5 10q25 4 39 13t24.5 25.5t17.5 43t15 67.5q6 33 17.5 103.5t25.5 158.5t29.5 185.5t29 183.5t23.5 150.5t12 91.5q1 15 1 28q0 22 -4 36q-7 24 -36 32q-25 8 -49 11t-65 7q-4 10 -1 33t9 27q37 0 101.5 -3t144.5 -3q90 0 156.5 3 t95.5 3q4 -4 2 -29t-9 -31q-29 -4 -54.5 -7t-45.5 -9q-33 -10 -48 -28.5t-26 -65.5q-10 -51 -26.5 -143.5t-38.5 -243.5q0 -14 8 -17q4 0 16.5 -1t47 -2t100 -1h176.5h221.5t83.5 2q4 2 8 6t4 11q8 51 18.5 110.5t18.5 115.5t14.5 103t10.5 76q1 7 1 14q0 50 -40 62 q-23 8 -45.5 11t-61.5 9q-4 6 -1 30t10 28q31 0 93 -3t146 -3q98 0 157.5 3t88.5 3q3 -4 3 -16q0 -6 -1 -14q-2 -24 -8 -28q-33 -4 -59.5 -9t-45.5 -11q-37 -12 -50 -38t-23 -79q-6 -29 -17.5 -96.5t-26 -157.5t-29.5 -190.5t-29.5 -190.5t-25 -161.5t-12.5 -104.5 q-1 -11 -1 -20q0 -64 46 -78q23 -6 49.5 -10.5t67.5 -8.5q4 -8 1 -30.5t-11 -28.5q-14 0 -42 1t-62.5 2t-75.5 2t-80 1q-88 0 -150.5 -2t-103.5 -4q-6 6 -4 30.5t10 28.5q33 4 63.5 9.5t51.5 11.5q29 10 43 31.5t24 62.5q6 29 15.5 79t18.5 107.5t18.5 117.5t17.5 112 q0 14 -8 14q-16 2 -51 3t-78 1h-90.5h-87.5h-244t-98 -2q-2 0 -6.5 -5t-4.5 -7q-6 -41 -15 -97.5t-17.5 -115t-16.5 -108.5t-10 -77q-4 -28 -4 -48q0 -24 5 -36q9 -24 50 -34q20 -6 45 -9.5t68 -9.5q2 -4 1 -12t-2 -18.5t-4 -18.5t-8 -10q-33 0 -102.5 3t-157.5 3 q-98 0 -166.5 -3t-103.5 -3q-2 5 -2 14q0 6 1 16z" />
<glyph unicode="I" horiz-adv-x="651" d="M-6 22q2 22 8 29q31 4 60.5 8t52.5 9q43 10 59 30.5t25 55.5q6 23 15 71.5t21.5 119.5t26.5 160t31 189q23 133 37 233.5t24 172.5q4 43 -3 61.5t-38 28.5q-20 6 -48.5 9t-69.5 9q-4 8 -2 30t10 28q29 0 101.5 -3t152.5 -3q78 0 149.5 3t106.5 3q4 -5 4 -17q0 -6 -1 -13 q-3 -22 -9 -28q-27 -4 -54.5 -7t-48.5 -7q-37 -10 -52 -28.5t-28 -69.5q-14 -66 -33.5 -187t-41.5 -256q-12 -76 -23.5 -148.5t-21 -136t-16.5 -111.5t-9 -75q-2 -18 -2 -33q0 -23 4 -41q6 -28 49 -38q25 -6 53.5 -10.5t63.5 -8.5q4 -8 1 -29.5t-11 -27.5q-39 0 -116 3 t-149 3q-41 0 -83 -1t-79.5 -2t-67.5 -2t-46 -1q-3 4 -3 15q0 5 1 13z" />
<glyph unicode="J" horiz-adv-x="638" d="M-125 -416q0 10 4 15q74 31 119 64.5t82 76.5q45 49 69.5 127t49.5 207q12 66 29.5 159t34 195t32.5 206.5t29.5 194t22.5 155t11 91.5q2 23 2 40q0 22 -3 36q-5 25 -42 37q-27 8 -53 11t-65 7q-6 10 -1 33t11 27q47 0 103.5 -3t152.5 -3q100 0 155.5 3t90.5 3 q4 -4 4 -16q0 -5 -1 -13q-3 -23 -10 -31q-68 -10 -102 -18q-47 -14 -63 -80q-4 -20 -14.5 -82.5t-24 -148.5t-29.5 -185.5t-31.5 -194t-29 -175t-21.5 -127.5q-23 -127 -47.5 -218.5t-73.5 -169.5q-41 -66 -90 -111.5t-96 -77.5t-91 -50.5t-77 -28.5q-8 2 -21.5 18.5 t-15.5 26.5z" />
<glyph unicode="K" horiz-adv-x="1280" d="M-7 24q1 22 9 27q35 6 65.5 10.5t51.5 8.5q41 10 61.5 37.5t30.5 85.5q16 92 35.5 208.5t39 239.5t37 241.5t29.5 213.5q2 19 2 33q0 21 -5 33q-9 18 -46 28q-20 4 -50.5 9t-59.5 9q-4 6 -1 29t9 29q35 0 105.5 -3t152.5 -3q80 0 145.5 3t104.5 3q4 -6 4 -27.5t-8 -30.5 q-31 -4 -59 -8t-50 -10q-35 -10 -50.5 -33.5t-25.5 -77.5q-12 -70 -31.5 -182.5t-39 -236t-39 -246.5t-31.5 -215q-2 -21 -2 -38q0 -43 11 -59q15 -24 54 -34q23 -4 48.5 -7.5t58.5 -9.5q4 -6 1 -28.5t-9 -28.5q-53 0 -120 3t-165 3q-106 0 -172 -3t-88 -3q-3 6 -3 21v9z M471 614q-1 2 -1 4q0 4 3 12q4 12 10 15q37 12 102.5 60.5t136.5 111t136.5 126t104.5 106.5q43 47 54 67.5t11 32.5q4 27 -27 37q-18 6 -46.5 12t-61.5 10q-6 8 -4 30t12 28q33 0 92.5 -3t141.5 -3q96 0 148 2t93 4q5 -3 5 -22v-6q-1 -24 -11 -30q-45 -8 -80 -17 t-65.5 -23.5t-60 -36t-64.5 -54.5q-47 -47 -106.5 -102t-120 -110.5t-118 -107.5t-102.5 -89q-2 -2 -3 -6.5t1 -4.5q33 -55 84 -130.5t107.5 -152.5t113 -145.5t103.5 -111.5q16 -14 37.5 -26.5t40.5 -16.5q49 -18 137 -21q6 -6 3 -30.5t-13 -28.5q-40 -4 -90 -5h-25 q-37 0 -72 2q-47 3 -85 8t-52 13q-23 10 -44.5 27.5t-45.5 44.5q-29 33 -75 94.5t-96 134t-97 143t-80 122.5q-10 16 -17.5 23t-13.5 13z" />
<glyph unicode="L" horiz-adv-x="1112" d="M-14 24q2 24 10 27q41 6 71.5 10.5t59.5 12.5q35 10 51.5 33.5t24.5 58.5q10 47 23.5 123t28.5 167t30.5 187t29 182t23.5 154t14 100q3 25 3 44q0 27 -7 39q-12 20 -51 30q-18 4 -47 7t-60 7q-4 8 -0.5 32t9.5 28q45 0 108.5 -3t161.5 -3q82 0 148.5 3t97.5 3 q4 -6 2 -29t-8 -29q-37 -4 -65 -10t-50 -10q-37 -10 -51.5 -34t-18.5 -50q-8 -43 -21.5 -123t-28.5 -177t-31.5 -201.5t-31 -197t-24.5 -161t-12 -94.5q-4 -27 5 -42.5t17 -19.5q16 -6 62.5 -8t101.5 -4q37 -1 73 -1h36q54 1 84 1q63 2 122.5 67.5t143.5 216.5q12 2 30.5 -7 t22.5 -19q-8 -33 -23.5 -75t-34 -85t-38 -81t-37.5 -60q-10 -14 -32.5 -26.5t-65.5 -12.5q-34 -1 -81 -1h-51q-81 1 -165 2t-160 3t-115 2q-106 0 -180 -4t-100 -4q-4 6 -4 21v11z" />
<glyph unicode="M" horiz-adv-x="1665" d="M-52 24q1 22 7 27q29 4 52.5 9.5t43.5 9.5q47 10 71.5 39.5t47.5 103.5q14 47 34.5 117.5t43 152.5t46 169t46 169t41 154t31.5 119q6 27 1 52t-40 38q-25 8 -62 13t-84 13q-4 6 0 30t11 28q66 -2 147.5 -4t198.5 -2q2 -31 6 -56.5t14 -66.5q14 -57 34.5 -137 t43.5 -170.5t45.5 -180.5t43 -164.5t33.5 -126t19 -63.5q4 -4 8 0q12 18 47 76.5t82.5 138.5t102.5 173t106.5 182t95.5 166t68 122q16 35 25.5 58.5t15.5 48.5h118t89 2t69.5 3t59.5 1q3 -4 3 -16q0 -6 -1 -14q-2 -24 -8 -28q-43 -8 -70.5 -12t-50.5 -10q-37 -8 -51 -28.5 t-19 -59.5q-6 -39 -13 -112t-15 -161t-16.5 -184t-14.5 -183t-11 -158t-7 -105v-19q0 -46 8 -69q10 -27 51 -37q27 -6 51.5 -10.5t61.5 -8.5q2 -6 0 -30.5t-9 -28.5q-14 0 -44.5 1t-67.5 2t-77 2t-75 1q-31 0 -69.5 -1t-75.5 -2t-65.5 -2t-41.5 -1q-4 10 -3 31.5t7 27.5 q41 4 66 9.5t45 11.5q29 10 41 28.5t18 53.5q6 29 13.5 93t16.5 147t18.5 175.5t16.5 179.5t14 160.5t12 116.5q0 6 -7 0q-18 -33 -60 -108.5t-98.5 -174t-120 -211t-121.5 -216t-105.5 -189.5t-69.5 -131q-4 -2 -14.5 -4t-21.5 -2t-20.5 1t-11.5 3q-8 49 -26.5 140 t-42 200.5t-50 224.5t-48 211t-37 160.5t-17.5 73.5q-4 8 -8 0q-18 -68 -46 -172.5t-56.5 -218t-54 -222t-40.5 -184.5q-7 -37 -7 -64q0 -14 2 -25q5 -34 50 -44q20 -6 51 -11.5t68 -11.5q4 -8 1 -31.5t-9 -27.5q-27 0 -95.5 3t-144.5 3q-86 0 -150.5 -3t-86.5 -3 q-3 6 -3 22v8z" />
<glyph unicode="N" horiz-adv-x="1443" d="M-24 22q4 22 10 29q33 4 66.5 10.5t56.5 12.5q41 10 60 37.5t32 81.5q10 41 28.5 141t41 227t45 263.5t40.5 246.5q2 23 -4 51.5t-30 44.5q-23 14 -57.5 23.5t-100.5 17.5q-4 10 2 32t10 26q59 0 133 -3t133 -3h36t30 2q6 -16 16.5 -40t40.5 -73q39 -68 89.5 -153 t103.5 -177t107.5 -184t101.5 -172t83.5 -141.5t55.5 -92.5q4 0 8 4q8 55 20.5 130t26 157t25.5 165t23.5 158t19.5 135t10 95q1 13 1 24q0 29 -7 49q-10 28 -57 40q-29 6 -60 11t-65 11q-4 8 -1 33t11 27q35 0 107.5 -4t152.5 -4q27 0 58.5 1t61 3t53.5 3t36 1q2 -3 2 -13 q0 -7 -1 -18q-3 -25 -9 -29q-25 -4 -46.5 -8t-39.5 -10q-43 -12 -60.5 -41t-27.5 -70q-12 -59 -30 -153.5t-36 -206t-37.5 -230t-38.5 -225.5q-10 -68 -21 -145.5t-20 -132.5q-8 0 -27.5 2t-41.5 2q-29 0 -44.5 -2t-21.5 -2q-23 41 -63.5 117.5t-95 172t-114 202 t-117.5 208.5t-110.5 190.5l-87.5 147.5q-4 2 -6 0t-4 -2q-12 -76 -30.5 -198t-37 -247.5t-34 -232t-21.5 -151.5q-2 -18 -2 -33q-1 -33 9 -50q14 -24 53 -34q23 -6 56.5 -13.5t68.5 -11.5q4 -6 -0.5 -29.5t-8.5 -29.5q-53 0 -113.5 4t-138.5 4q-70 0 -142.5 -4t-113.5 -4 q-2 4 -2 13q-1 7 1 17z" />
<glyph unicode="O" horiz-adv-x="1415" d="M141 485q0 152 52.5 301.5t154.5 260.5q98 117 234.5 184t289.5 67q119 0 207 -40.5t146.5 -111.5t87 -166t28.5 -202v-13q0 -143 -43 -283q-45 -146 -139 -259q-111 -135 -243.5 -197.5t-290.5 -62.5q-125 0 -216.5 40t-150.5 109.5t-88 166t-29 206.5zM326 502 q0 -102 22.5 -186.5t68.5 -143.5t114.5 -93t160.5 -34q125 0 217 70q70 51 118 126.5t77 164t41 180.5t12 176q-2 94 -21.5 177t-62.5 144.5t-110.5 97.5t-161.5 36q-115 0 -204 -63.5t-149.5 -165t-91 -229.5t-30.5 -257z" />
<glyph unicode="P" horiz-adv-x="1083" d="M-6 26q2 22 6 27q41 4 68.5 8.5t48.5 8.5q33 8 55.5 27.5t34.5 80.5q8 41 20.5 114t27.5 161t30.5 183t29 181t24.5 156.5t15 109.5q3 21 3 38q0 25 -7 38q-12 23 -49 33q-20 4 -50 7t-58 7q-4 10 1 33t9 27q12 0 44 -1t68.5 -2t73.5 -2t60 -1q76 2 135 2h137 q68 0 134.5 -17.5t118.5 -57.5t84 -103.5t32 -155.5q0 -139 -73 -240.5t-188 -150.5q-59 -27 -121.5 -38.5t-152.5 -11.5q-23 0 -59.5 3.5t-61.5 7.5q-2 0 -7 -3t-5 -10q-6 -47 -14.5 -95t-14.5 -91t-11 -78t-7 -55q-4 -37 9 -60.5t54 -33.5q23 -4 53.5 -9.5t65.5 -9.5 q4 -8 0 -30.5t-10 -28.5q-43 0 -107.5 3t-150.5 3q-111 0 -185.5 -3t-107.5 -3q-3 7 -3 18q0 7 1 14zM438 586q0 -14 13 -17q34 -8 110 -8q94 0 160.5 27.5t108.5 75t62.5 113t20.5 141.5q0 125 -69.5 199.5t-216.5 74.5q-16 0 -36 -2t-36 -8q-14 -8 -20 -29 q-6 -31 -16.5 -88t-24 -132t-27.5 -164t-29 -183z" />
<glyph unicode="Q" horiz-adv-x="1415" d="M141 477q0 158 51.5 307.5t153.5 259.5q100 123 240.5 188.5t287.5 65.5q115 0 202 -39.5t146.5 -109.5t89 -163t29.5 -200v-13q0 -153 -44 -293q-46 -146 -140 -259q-66 -80 -152.5 -142.5t-205.5 -92.5q37 -14 74.5 -39t66.5 -41q82 -51 146.5 -87t117.5 -58.5 t101.5 -33t97.5 -10.5q59 0 119.5 12.5t119.5 43.5q2 0 4.5 -8.5t3.5 -17.5t1 -19.5t-2 -12.5q-86 -68 -180.5 -97.5t-192.5 -29.5q-76 0 -152.5 29t-140.5 72q-78 53 -158 114.5t-141 106.5q-27 20 -71 36.5t-97 33.5q-197 51 -286 179t-89 318zM326 494q0 -96 23.5 -178.5 t69.5 -142.5t115.5 -94t161.5 -34q121 0 211 68q68 51 115 124.5t77.5 159.5t44 180.5t13.5 188.5q-2 92 -22.5 174t-62.5 143.5t-108.5 97.5t-160.5 36q-115 0 -204 -61.5t-149.5 -163t-92 -231.5t-31.5 -267z" />
<glyph unicode="R" horiz-adv-x="1187" d="M-2 24q2 24 6 29q29 2 63.5 7.5t51.5 9.5q41 10 59.5 30.5t30.5 79.5q10 51 24.5 127t28.5 164t28.5 180t28 176t23.5 156t16 115q1 12 1 22q0 30 -9 42q-12 18 -41 26q-20 6 -50.5 11t-63.5 9q-2 2 -1 11.5t3 19.5t4 18.5t6 8.5q14 0 43 -1t63.5 -2t70.5 -2t65 -1 q55 0 92 1t66.5 1h54h53.5q166 0 253 -80t87 -211q0 -72 -25.5 -130.5t-66.5 -103.5t-95.5 -77.5t-111.5 -53.5q-4 -4 -6 -7t0 -5q23 -49 54.5 -106.5t66 -116t69.5 -113.5t66 -96q25 -33 46 -53.5t45.5 -31.5t55.5 -17.5t74 -12.5q2 -3 2 -11t-2 -20q-4 -24 -15 -28 q-22 -1 -48 -1h-26q-42 1 -84 6t-78 13t-58 21q-23 12 -45.5 33.5t-45.5 54.5q-23 35 -51 85t-58 105t-58.5 109.5t-51.5 95.5q-12 25 -28.5 35t-28.5 12h-105q-4 0 -8 -4t-4 -8q-6 -43 -15 -95.5t-16.5 -103.5t-14.5 -96t-9 -74q-2 -16 -2 -29q0 -31 10 -45q14 -20 47 -28 q23 -8 51.5 -12.5t67.5 -10.5q4 -4 1 -28.5t-11 -28.5q-31 0 -70 1l-78 2t-73.5 2t-59.5 1q-94 -2 -151.5 -4t-110.5 -2q-3 4 -3 16q0 6 1 14zM449 641q-1 -3 -1 -6q0 -8 11 -8q26 -2 53 -2q34 0 68 3q62 5 114 25q86 35 135.5 106t49.5 175q0 123 -64.5 191.5t-200.5 68.5 q-10 0 -30.5 -2t-30.5 -6t-14 -15.5t-9 -21.5q-6 -31 -16 -93.5t-22.5 -137t-23.5 -149.5t-19 -128z" />
<glyph unicode="S" horiz-adv-x="958" d="M78 189.5q0 46.5 2 92.5t6 74q4 6 27.5 10.5t31.5 0.5q10 -104 38 -170t81 -103q37 -29 87 -44t110 -15q47 0 91 14t78 43t53 72t19 102q0 43 -12 79t-39.5 71t-71.5 72.5t-106 84.5q-55 43 -101 83t-80 83t-52.5 90.5t-18.5 106.5q0 88 33 155.5t88 113.5t130 68.5 t159 22.5q59 0 115.5 -8t91.5 -16t60.5 -12.5t45.5 -8.5q-16 -49 -36.5 -120.5t-37.5 -157.5q-2 -4 -11 -5t-19.5 -1t-18.5 1t-10 5q1 26 1 49q0 62 -8 97q-11 48 -44 73q-29 23 -72 33t-86 10q-61 0 -105 -21.5t-72 -55.5t-40 -75t-12 -82q0 -66 30.5 -115.5t77.5 -90.5 q55 -47 126 -95.5t118 -89.5q55 -45 100 -108.5t45 -155.5q0 -74 -29.5 -142.5t-88 -122.5t-143.5 -86t-195 -32q-51 0 -101.5 9.5t-93.5 23.5t-76.5 31.5t-54.5 33.5q-6 8 -8 45t-2 83.5z" />
<glyph unicode="T" horiz-adv-x="1251" d="M141 963q12 31 26.5 71.5t28 84.5t24.5 86t18 77q2 4 7 5t9 1q70 -28 150 -28h6h712q53 0 98.5 5t94.5 19q4 0 8 -5t4 -9q-23 -55 -47.5 -143.5t-42.5 -180.5q-2 -4 -11 -5t-19.5 -1t-20.5 1t-12 5q2 38 2 70q0 69 -9 108q-4 31 -25.5 42.5t-35.5 11.5q-27 2 -69 3l-84 2 q-21 0 -40 0.5t-37 -0.5q-34 -1 -45 -1q-4 -2 -9 -8.5t-5 -10.5q-12 -72 -26.5 -165t-31 -195.5t-32.5 -203.5t-29.5 -189t-21.5 -154t-10 -92q-2 -39 10 -59.5t47 -28.5q25 -8 60.5 -13.5t78.5 -9.5q6 -6 2 -30.5t-10 -28.5q-51 0 -135 3t-170 3q-41 0 -86 -1t-86 -2 t-74 -2t-49 -1q-4 8 -2 31.5t10 27.5q41 4 74 8.5t57 8.5q27 4 44.5 13t28.5 25.5t19.5 42t14.5 64.5q14 82 33.5 196.5t40 242.5t42 260.5t39.5 248.5q0 4 -4 10.5t-8 6.5q-10 2 -42 2h-68.5t-70.5 -1t-48 -3q-20 -2 -46 -13.5t-51 -40.5q-27 -31 -53 -74.5t-63 -109.5 q-10 -4 -33 5t-27 18z" />
<glyph unicode="U" horiz-adv-x="1402" d="M170 1206q-2 5 -2 13.5t2 19.5q4 23 12 27q12 0 40 -1t64 -2t75.5 -2t76.5 -1q76 0 146.5 3t103.5 3q6 -6 4 -27.5t-8 -32.5q-33 -4 -54.5 -8t-41.5 -8q-37 -8 -59.5 -30.5t-32.5 -76.5q-10 -63 -24.5 -148t-28 -170t-24.5 -160t-16 -116q-8 -57 -8 -101q0 -13 1 -26 q3 -53 14 -86q16 -82 93 -141t214 -59q74 0 134 17.5t108.5 60.5t83 116.5t59.5 186.5q27 117 52.5 274.5t47.5 317.5q4 30 4 52q0 33 -9 51q-15 28 -64 38q-23 4 -47.5 8t-57.5 8q-6 10 -2 34t10 28q25 0 90.5 -4t155.5 -4q86 0 140.5 4t80.5 4q2 -4 3 -12v-9v-10 q-1 -10 -4 -19.5t-5 -11.5q-57 -6 -94 -16q-47 -14 -66.5 -48t-31.5 -95q-16 -82 -35 -187.5t-38.5 -211t-40 -197t-40.5 -146.5q-37 -104 -93.5 -170.5t-123 -104.5t-139 -52.5t-142.5 -14.5q-135 0 -226 40t-140 106q-35 49 -50.5 109.5t-15.5 129.5q0 27 7.5 85.5 t18.5 132t24.5 155.5t25.5 155.5t20.5 131t12.5 84.5q4 39 -5.5 61.5t-39.5 32.5q-16 6 -51 11t-64 9z" />
<glyph unicode="V" horiz-adv-x="1226" d="M102 1206q-2 4 -2 12t2 21q4 25 13 29q41 0 109.5 -4t133.5 -4q104 0 163 3t81 5q6 -6 4 -32t-8 -30q-39 -8 -64.5 -12t-41.5 -10q-42 -11 -42 -53q0 -5 1 -11q6 -49 17 -129t24.5 -172t28 -189.5t26.5 -182.5t21.5 -149.5t13.5 -88.5q6 -6 12 0q16 29 52 91t82 144 t97.5 174.5t98.5 178.5t86 158.5t59 115.5q24 50 24 75v5q-3 25 -44 37q-25 6 -49.5 10t-59.5 8q-4 10 -1 33t13 29q29 0 89.5 -4t152.5 -4q84 0 131 3t82 3q3 -4 3 -16q0 -6 -1 -14q-2 -24 -10 -30q-29 -4 -55.5 -9t-45.5 -13q-25 -10 -43 -21.5t-34.5 -31t-37 -49 t-46.5 -74.5q-33 -53 -84.5 -144.5t-111.5 -197t-122.5 -215t-116.5 -201.5q-47 -78 -83.5 -147.5t-59.5 -114.5q-6 0 -22.5 1t-38.5 1q-23 0 -37.5 -1t-20.5 -1q-4 47 -12 110.5t-18 134.5q-14 104 -31 220t-32 225.5t-29.5 202t-24.5 147.5q-6 43 -13.5 71.5t-18.5 46 t-26.5 28t-37.5 16.5q-23 8 -45.5 10t-49.5 6z" />
<glyph unicode="W" horiz-adv-x="1751" d="M118 1239q3 23 11 27q33 0 96.5 -3t151.5 -3q92 0 152.5 2t91.5 4q4 -4 2 -29t-9 -29q-31 -6 -57.5 -12t-44.5 -12q-29 -10 -40 -28.5t-11 -53.5q0 -41 2 -107.5t4 -146.5t6 -165t7 -166t6 -150.5t6 -114.5q6 -6 12 0q25 45 63.5 118.5t83.5 160.5t93.5 182.5t93.5 183.5 t80.5 164t58.5 125q4 0 14 -1t37 -1q25 0 35 1t20 1q2 -49 11.5 -129t19.5 -173t22.5 -193.5t25 -188.5t21.5 -158t13 -102q4 -4 8 0q23 41 55.5 108.5t71.5 145t80 161.5t77 161t64.5 139.5t42.5 97.5q24 55 24 88q0 32 -40 43q-23 6 -49.5 11t-69.5 11q-4 8 -1 31t11 27 q35 0 96.5 -3t137.5 -3q84 0 137 3t84 3q5 -4 5 -19q0 -5 -1 -11q-2 -24 -12 -28q-29 -6 -52.5 -11t-43.5 -11q-35 -12 -61.5 -38t-59.5 -85q-33 -61 -77 -149.5t-95 -189.5t-104.5 -207.5t-102.5 -206t-91 -183.5t-69 -139q-8 0 -26.5 1t-28.5 1q-18 0 -31.5 -1t-23.5 -1 q-4 45 -12.5 120.5t-18.5 164.5t-20.5 185.5t-21.5 184.5t-20.5 162t-15.5 117q-4 8 -8 0q-33 -63 -76 -143.5t-89 -169.5t-93 -180t-89 -174t-78 -153.5t-60 -115.5q-10 0 -23.5 1t-32.5 1q-16 0 -32.5 -1t-22.5 -1q-2 63 -5 153t-7 191.5t-8.5 208t-8.5 204t-8 179.5 t-8 133q-4 68 -16.5 95.5t-49.5 37.5q-20 6 -45.5 10t-60.5 10q-4 5 -4 17q0 6 1 14z" />
<glyph unicode="X" horiz-adv-x="1236" d="M-50 24q1 22 9 29q41 4 68.5 9.5t56.5 15.5q43 14 77 38.5t85 84.5q41 47 88 104t93 115.5t88 112t73 94.5q6 6 0 16q-18 49 -41 103.5t-46.5 108.5t-46 106.5t-40.5 95.5q-23 53 -45.5 86t-75.5 45q-51 12 -121 18q-4 10 -1 33t9 27q47 0 118 -2t142 -2q82 0 143.5 1 t84.5 3q6 -4 5 -29t-9 -31q-23 -4 -49.5 -8t-36.5 -8q-16 -4 -19.5 -14.5t-1.5 -22.5q8 -25 26.5 -72t41 -103t45 -112.5t41.5 -97.5q4 -8 12 0q37 45 79 99.5t80 105.5t67.5 94t41.5 66q10 18 9 33.5t-25 21.5q-29 8 -51.5 11t-49.5 7q-6 8 -1.5 32t12.5 28q16 0 75.5 -3 t139.5 -3q98 0 149 3t76 3q3 -3 3 -20v-9q-1 -25 -9 -31q-23 -2 -50.5 -6t-47.5 -10q-23 -6 -43.5 -15.5t-44 -28t-53 -49t-70.5 -79.5q-66 -82 -127.5 -160t-126.5 -164q-6 -6 -2 -18q18 -47 41.5 -102.5t48 -114t49.5 -112.5t45 -97q25 -53 43 -86t34.5 -51.5t35 -26.5 t43.5 -14q27 -8 47 -11.5t61 -7.5q4 -8 1 -31.5t-9 -27.5q-39 0 -116 3t-171 3q-84 0 -152.5 -3t-86.5 -3q-4 6 -3 30.5t7 28.5q25 4 53.5 8.5t50.5 12.5q18 4 24.5 19.5t-1.5 35.5q-8 27 -27.5 77t-43 108.5t-50.5 120t-47 108.5q-4 10 -17 2q-45 -59 -93 -123t-89 -121 t-72.5 -103t-46.5 -67q-10 -16 -10 -32.5t25 -26.5q18 -6 41.5 -10.5t56.5 -8.5q4 -6 1 -30.5t-11 -28.5q-23 0 -51.5 1t-59.5 3t-62.5 2h-58.5q-72 -2 -137 -3t-94 -3q-3 6 -3 22v8z" />
<glyph unicode="Y" horiz-adv-x="1087" d="M93 1240q3 24 11 28q29 0 81.5 -4t138.5 -4q82 0 153.5 2t89.5 4q6 -4 3 -29t-7 -31q-20 -4 -45.5 -8t-36.5 -8q-29 -9 -29 -38q0 -10 3 -22q12 -41 35.5 -108.5t48 -139t47 -133t32.5 -87.5q2 -4 5.5 -4.5t7.5 4.5q33 43 80 109.5t94 134t86 126t55 86.5q14 25 12 43.5 t-36 28.5q-20 6 -42 10t-51 8q-4 10 0.5 33t12.5 27q43 -2 100 -5t105 -3q76 0 129 2t94 6q3 -6 3 -22v-9q-1 -23 -9 -29q-18 -4 -43 -8t-39 -8q-27 -6 -47.5 -15.5t-40 -24.5t-40 -37.5t-44.5 -53.5q-41 -51 -89.5 -115.5t-94.5 -129t-88 -124t-68 -100.5 q-10 -14 -19.5 -34.5t-11.5 -33.5q-14 -74 -27.5 -157.5t-23.5 -161.5q-4 -30 -4 -52q0 -25 5 -41q9 -30 52 -40q23 -6 58.5 -10.5t62.5 -8.5q4 -8 0 -30.5t-12 -28.5q-33 0 -111 3t-168 3q-41 0 -82 -1t-79 -2t-68.5 -2t-46.5 -1q-4 4 -1 29.5t9 29.5q37 4 69.5 9.5 t57.5 9.5q41 10 57 34.5t29 77.5q16 82 30.5 169t24.5 151q4 23 2 47t-6 41q-8 33 -25.5 87t-40 116.5t-46 127t-44.5 117.5q-18 45 -31.5 74t-27.5 44.5t-30.5 22.5t-39.5 13q-23 4 -39 7t-49 7q-2 5 -2 14q0 8 1 18z" />
<glyph unicode="Z" horiz-adv-x="1179" d="M31 31q57 66 142 166t179 215.5t190.5 236.5t178.5 226.5t143.5 185.5t85.5 115q2 4 1 8t-5 4h-128.5t-122 -1t-98.5 -1h-60q-47 0 -78 -4t-53.5 -13.5t-39 -22.5t-32.5 -34q-33 -43 -61.5 -87t-57.5 -95q-6 -4 -29.5 6t-25.5 18q12 31 25.5 70t27.5 82t28.5 89t24.5 89 q14 -6 37 -11t48.5 -8t51 -4t43.5 -1h447q42 -1 81 -1q40 0 76 1q72 2 130 6q4 -4 4 -18.5t-2 -20.5q-31 -39 -98.5 -125t-153.5 -195.5t-183.5 -231.5t-185.5 -234.5t-159.5 -203t-106.5 -137.5q-2 -4 -2 -9t4 -7q16 -4 73.5 -6t131 -3t151.5 -2t133 -1q25 2 58 9t67 36 q33 29 80 88t105 155q6 2 27.5 -7t25.5 -17q-6 -23 -23.5 -64t-39 -87t-46 -92t-47.5 -77q-17 -22 -95 -22h-7q-146 3 -280 3h-66h-108q-107 0 -210 1h-99t-89 -4q-4 4 -7 18q-2 9 -2 14q0 3 1 5z" />
<glyph unicode="[" horiz-adv-x="768" d="M96 -340q0 12 12.5 96t33 213t45 291t52 330t54 329.5t48 290.5t36 213t18.5 99q2 4 5 8t8 4h403q0 -4 -3 -17.5t-7 -30t-9.5 -28.5t-9.5 -12q-18 -2 -60 -3t-87 -2t-84 -2t-53 -1q-10 0 -15 -15q-4 -16 -13 -62t-21.5 -112.5t-26.5 -147.5t-28.5 -167t-29 -171 t-24.5 -159q-25 -154 -45.5 -291t-35.5 -244.5t-24.5 -181t-11.5 -104.5q0 -10 3 -22.5t12 -16.5q14 -4 51 -7t82 -4t92 -1h84q0 -4 -2 -18.5t-7.5 -30t-11.5 -27.5t-12 -12q-63 -4 -156.5 -5t-177.5 3q-39 4 -56.5 8t-27.5 10z" />
<glyph unicode="\" horiz-adv-x="837" d="M217 1352q4 4 15.5 13t24.5 18.5t26.5 17.5t21.5 12h8t6 -2q16 -80 45 -211t64 -288.5t73 -326.5t74.5 -324t67.5 -281.5t51 -198.5q-4 -14 -18 -14q-10 2 -25.5 8t-31 14t-28.5 16.5t-16 14.5q-12 37 -38.5 144.5t-60.5 251.5t-71.5 311t-73.5 326t-65.5 291t-48.5 208z " />
<glyph unicode="]" horiz-adv-x="741" d="M-18 -345.5q2 15.5 6 31t9 28t9 12.5q25 0 67 1t86 2t83 2t55 3q4 0 9 5t7 9q6 25 23.5 116t39 213t44 253t39.5 235q25 154 45 289t34.5 242.5t23.5 183.5t11 111q0 10 -2 25.5t-12 15.5q-16 2 -52 3t-80 2t-91 2t-86 1q0 4 2 18.5t6 28.5t9 25.5t12 11.5q31 0 88 1 t118.5 2t115.5 2t77 1q4 0 11 -5t9 -12q0 -4 -11 -83.5t-31.5 -209.5t-46 -295t-52.5 -337t-53.5 -338t-48 -296t-34.5 -212t-15 -88q-2 -4 -5.5 -8t-7.5 -4q-25 -2 -74 -4.5t-107 -2.5h-119.5h-110.5q-2 4 0 19.5z" />
<glyph unicode="^" horiz-adv-x="958" d="M94 543q10 14 38 63t62.5 115.5t73.5 143.5t74 147.5t60.5 126t35.5 80.5q0 2 11.5 5t23.5 7t23.5 7t15.5 3q14 -35 43 -94.5t63.5 -128t71.5 -141t71 -136t60.5 -110.5t40.5 -66q0 -4 -4 -12q-6 -6 -23.5 -12t-35 -12.5t-31.5 -9.5t-16 -1q-10 10 -33 49t-51.5 91.5 t-59 112.5t-58.5 113.5t-48.5 94.5t-28.5 55q0 2 -6 3t-8 -3q-18 -39 -54 -113.5t-75 -150.5t-72 -137.5t-45 -75.5q-6 -8 -20.5 -13t-31 -8.5t-30.5 -4.5t-22 -1q-6 0 -10.5 4.5t-4.5 8.5z" />
<glyph unicode="_" horiz-adv-x="1136" d="M-8 -373h1165v-104h-1165v104z" />
<glyph unicode="`" horiz-adv-x="819" d="M344 1241q0 14 10 21q8 2 31 4t47.5 2t46 -2t27.5 -4q4 -16 12 -58.5t16.5 -93.5t16.5 -102.5t14 -83.5q-2 -4 -9 -8.5t-16.5 -7.5t-18.5 -4t-11 1q-12 23 -36.5 72t-51.5 102.5t-49.5 99.5t-28.5 62z" />
<glyph unicode="a" horiz-adv-x="921" d="M80 174q0 133 49 263t139 222q25 25 66 57t93 58.5t113.5 45t127.5 18.5q47 0 97 -5.5t85 -13.5q-18 -41 -29.5 -71.5t-19.5 -57.5q-12 -49 -26.5 -121.5t-27 -145.5t-21.5 -136.5t-11 -96.5t4 -45t16 -12q16 0 46 19.5t77 70.5q2 -2 4 -2l4 -4q1 -5 1 -13t-1 -20 q-2 -24 -6 -30q-29 -41 -64.5 -75t-70.5 -58.5t-66.5 -39t-52.5 -14.5q-33 0 -43 42q-5 21 -5 50.5t5 67.5q6 37 11.5 75t15.5 91q2 4 -1 4t-5 -2q-47 -68 -101.5 -127t-107.5 -103.5t-101.5 -71t-85.5 -26.5q-31 0 -52 21.5t-33.5 52.5t-17.5 66.5t-5 66.5zM236 264 q0 -78 17 -109.5t46 -31.5q51 0 127 70.5t147 185.5q37 63 62 160q6 27 13 55.5t14.5 55t12.5 46t9 27.5q-16 8 -56 14t-77 6q-78 0 -135.5 -40.5t-102.5 -122.5q-43 -78 -60 -164t-17 -152z" />
<glyph unicode="b" horiz-adv-x="923" d="M123 174q0 47 6 95t10 81q8 45 21.5 119t30 161t34 179t31.5 174t25.5 144.5t13.5 89.5q2 10 -1 20t-13 10q-18 0 -49 -8t-78 -31q-4 6 -1 31t7 29q35 23 77 46t82.5 42.5t75.5 32t54 12.5q18 0 18 -35t-8 -76l-142 -729q0 -4 3.5 -5t7.5 3q55 68 113.5 120t112.5 88 t102 55.5t83 19.5q59 0 88 -59.5t29 -149.5q0 -147 -61.5 -280.5t-176.5 -231.5q-78 -68 -171 -111t-179 -43q-23 0 -48 11.5t-46.5 36t-36 64.5t-14.5 95zM272 223q0 -70 29 -109.5t88 -39.5q43 0 87 24.5t83 69.5q31 37 56.5 86t44 104.5t27.5 111.5t9 108 q0 74 -22.5 103.5t-52.5 29.5q-31 0 -68 -20.5t-75 -53.5t-72.5 -74t-59.5 -80q-18 -29 -32.5 -62.5t-23.5 -68.5t-13.5 -68.5t-4.5 -60.5z" />
<glyph unicode="c" horiz-adv-x="690" d="M84 242q0 63 12.5 131.5t39 135t68.5 126t101 102.5q66 49 135.5 77t110.5 28q53 0 86 -14.5t43 -30.5q4 -5 5 -17v-7q0 -6 -1 -9q-4 -10 -13 -25.5t-20.5 -32t-25 -29.5t-21.5 -20q-4 -2 -11 -2t-11 2q-72 80 -150 80q-41 0 -77 -34.5t-62.5 -93t-41.5 -132.5t-15 -153 q0 -98 29.5 -161t111.5 -63q47 0 111.5 32t146.5 124l5 -5t3 -7q2 -10 -2 -34t-10 -32q-41 -53 -87 -92t-93.5 -65.5t-92.5 -39t-82 -12.5q-57 0 -95 25.5t-60 71.5q-18 35 -27.5 85t-9.5 91z" />
<glyph unicode="d" horiz-adv-x="956" d="M82 203q0 68 12 136.5t37 132t58.5 119.5t76.5 97q33 33 78 60.5t91 48t89 33t74 12.5q72 0 111 -15q4 -2 7 0t3 7q10 49 21.5 104t20.5 106.5t15 93.5t10 66q1 11 1 21q0 40 -21 41q-16 0 -51 -7.5t-82 -27.5q-4 6 0 29.5t8 27.5q35 20 78 41t85 37t78 26.5t54 10.5 q18 -2 19 -31v-7q0 -27 -7 -67q-16 -82 -36.5 -188t-43 -222t-45 -231.5t-41 -216t-30 -175.5t-11.5 -107q0 -14 5.5 -24.5t13.5 -10.5q23 0 56.5 24.5t76.5 67.5q6 -6 6 -8q2 -12 -2 -33.5t-8 -30.5q-29 -37 -69 -72.5t-80 -63t-74.5 -44t-53.5 -16.5q-18 0 -26 25.5 t-4 60.5q2 41 11 100.5t25 145.5q-6 4 -10 0q-51 -68 -106.5 -125.5t-109.5 -98.5t-102 -63.5t-83 -22.5q-37 0 -61.5 22.5t-38 56.5t-19.5 76t-6 79zM240 264q0 -147 77 -147q43 0 119 59.5t162 188.5q16 25 29.5 53t21.5 63q6 20 11.5 48t10.5 55.5t9 49t6 32.5 q0 31 -12 41q-27 23 -67 35t-87 12q-72 0 -124 -47.5t-87 -119t-52 -157.5t-17 -166z" />
<glyph unicode="e" horiz-adv-x="708" d="M82 252q0 55 10 118.5t31.5 125t55.5 117t79 96.5q31 27 70 51t78.5 42.5t76.5 29t66 10.5q53 0 88 -37t39 -94v-5q0 -72 -52 -128q-54 -58 -147 -107q-63 -35 -123.5 -56.5t-107.5 -37.5q-12 -4 -13 -19q-4 -20 -4 -41q0 -96 35 -155.5t115 -59.5q59 0 126.5 32 t143.5 112q2 0 6 -4t4 -9q0 -10 -5 -29.5t-9 -29.5q-72 -96 -175 -150.5t-194 -54.5q-55 0 -92 23.5t-59.5 63.5t-32.5 90.5t-10 105.5zM246 463q-1 -3 -1 -5q0 -5 7 -5q47 10 103.5 29.5t103.5 47.5q35 23 55.5 54.5t20.5 77.5q0 35 -20.5 61.5t-61.5 26.5q-29 0 -61 -17.5 t-60.5 -52.5t-51 -89t-34.5 -128z" />
<glyph unicode="f" horiz-adv-x="501" d="M-293 -442v9q0 23 7 55q10 40 20 63q4 4 12 8t12 4q35 -49 82 -77t94 -28q68 0 103 71t63 237q18 111 38 230.5t36 229t29.5 200.5t21.5 147q0 16 -10 16q-35 0 -82 1t-63 3q-4 4 0 14q6 8 16 20.5t21.5 23t21.5 18.5t16 10h91q10 4 10 14q18 94 41.5 168t57.5 133.5 t77 107.5t102 91q47 35 94.5 53.5t81.5 20.5q29 0 52.5 -9.5t23.5 -27.5q0 -8 -11 -25.5t-25.5 -36t-31 -36t-24.5 -23.5q-4 -4 -12 -6t-13 2q-16 10 -39.5 20.5t-48.5 10.5q-23 0 -46 -14.5t-42 -51.5q-29 -57 -49 -143t-41 -232q-2 -6 1 -10t7 -4q86 0 131.5 3t73.5 9 q2 -4 -1 -19t-7 -20q-25 -25 -59.5 -40t-71.5 -19l-80 -6q-4 0 -8 -5t-4 -9q-27 -164 -50.5 -341.5t-58.5 -357.5q-25 -137 -75 -237.5t-112.5 -166t-129 -97t-121.5 -31.5q-57 0 -88 23.5t-33 56.5z" />
<glyph unicode="g" horiz-adv-x="792" d="M-84 -295q0 27 22.5 56.5t60.5 62.5t89 65.5t107 67.5q6 2 0 8q-70 49 -70 98q0 6 4 16.5t8 14.5q8 8 23.5 20.5t33 25t33 21.5t25.5 15q0 6 -2 8q-84 18 -119 81t-35 143q2 98 47 198.5t138 161.5q23 14 51 27.5t58 23.5t58.5 16.5t49.5 6.5q27 0 60.5 -11.5t74.5 -31.5 q16 -8 45 -18.5t55 -8.5q43 0 74.5 10t64.5 39q4 -2 4.5 -11t0.5 -13q-10 -35 -43 -68t-66 -43q-14 -8 -32.5 -13t-35.5 -9q2 -10 2 -28v-28q0 -115 -48 -206t-126 -144q-39 -29 -85 -45t-81 -25q-10 -4 -21 -7t-24 -9q-12 -8 -23 -18.5t-11 -20.5q0 -31 59 -59 q31 -14 67.5 -32.5t72.5 -37t69 -37t57 -35.5q51 -35 80 -72.5t29 -88.5q0 -59 -45 -127t-137 -121q-70 -41 -140.5 -56.5t-120.5 -15.5q-80 0 -145.5 20.5t-112.5 54.5t-73.5 80t-26.5 99zM55 -256q0 -37 23.5 -73t63.5 -63.5t95.5 -45t116.5 -17.5q111 2 168.5 44 t57.5 100q0 39 -21.5 67.5t-60.5 57.5q-27 18 -59.5 38.5t-65.5 37t-60.5 26.5t-42.5 10q-10 0 -45 -18.5t-72.5 -46t-67.5 -59t-30 -58.5zM246 451q0 -82 33.5 -135.5t101.5 -53.5q39 0 72.5 27.5t57.5 72t37 99.5t13 112q0 82 -32.5 135.5t-100.5 53.5q-45 0 -79 -30 t-57.5 -76t-34.5 -100t-11 -105z" />
<glyph unicode="h" horiz-adv-x="962" d="M84 -12q0 23 5 52.5t11 63.5q14 82 34 186.5t41.5 217.5t43 224.5t39.5 207.5t30.5 168t16.5 102q2 45 -22 45q-20 0 -45 -8t-76 -30q-2 6 2 30.5t8 28.5q29 20 69 42.5t80.5 41t75.5 30t56 11.5q14 1 19 -23q2 -8 2 -20q0 -24 -7 -66q-16 -80 -38.5 -194.5t-45.5 -231 t-43.5 -220t-30.5 -163.5q0 -2 3 -3t5 3q57 78 120 143.5t124.5 113.5t118.5 75t100 27q52 0 58 -64q1 -12 1 -27q0 -60 -18 -155q-23 -113 -45 -222.5t-35 -189.5q-2 -53 21 -53q16 0 50 22.5t75 65.5q6 -6 6 -12q1 -4 1 -9q0 -10 -3 -24q-4 -22 -6 -27q-35 -45 -73 -78.5 t-74 -56t-65.5 -34t-45.5 -11.5q-29 0 -39 39q-5 20 -5 45.5t5 57.5q16 109 42.5 231.5t53.5 247.5q8 47 8 73q0 11 -1 19q-5 26 -34 27q-25 0 -59.5 -19.5t-74.5 -56.5t-84 -88t-83 -115q-37 -59 -60.5 -113.5t-39.5 -130.5q-10 -42 -15 -80q-2 -13 -2 -24q0 -23 7 -39 q-10 -8 -30.5 -21.5t-43 -25.5t-43 -21.5t-29.5 -9.5q-4 0 -10 8.5t-6 16.5z" />
<glyph unicode="i" horiz-adv-x="481" d="M92 621q-2 5 -2 13q0 6 2 16q4 20 8 24q31 31 68 61.5t72.5 54t67.5 38t50 14.5q25 0 25 -50q0 -35 -12 -94q-8 -41 -23.5 -113.5t-32 -149.5t-31 -146.5t-18.5 -106.5q-1 -10 -1 -18q0 -35 22 -35q20 0 50 21.5t75 68.5q0 -2 2 -2l4 -4q2 -8 0 -29.5t-6 -29.5 q-37 -49 -76 -84t-74 -57.5t-63.5 -34t-44.5 -11.5q-32 0 -44 44q-4 15 -4 36q0 43 15 113q12 59 24.5 122.5t25.5 126t24.5 119t21.5 103.5q10 45 -8 45q-33 0 -111 -62q-2 0 -4 2q-2 0 -2 5zM276 1100q2 12 7.5 30.5t11.5 26.5q16 16 43.5 26.5t54.5 10.5q23 0 34 -5 t15 -9q6 -10 10 -26q2 -10 2 -19q0 -6 -1 -11q-4 -29 -18.5 -52t-33.5 -36q-6 -4 -19 -6t-28.5 -3t-28 -1t-16.5 4q-31 18 -33 70z" />
<glyph unicode="j" horiz-adv-x="491" d="M-166 -489q66 37 112 77.5t76.5 92t52 113t38.5 140.5q18 90 37.5 196t37 204t30.5 177t18 116q4 14 0.5 26.5t-13.5 12.5q-18 0 -55 -26t-72 -50l-6 12q-2 8 -1 25.5t5 21.5q31 31 71 65t80 62.5t77.5 47t62.5 18.5q16 0 21 -37q1 -12 1 -27q0 -30 -6 -69 q-12 -80 -24 -154t-25.5 -148.5t-29 -153.5t-33.5 -171q-31 -158 -76 -267.5t-133 -203.5q-49 -53 -108.5 -92.5t-106.5 -55.5q-10 0 -21.5 18.5t-9.5 29.5zM284 1131.5q5 17.5 13 25.5q14 16 41.5 26.5t54.5 10.5q23 0 35 -7t16 -11q6 -8 8 -24q2 -8 2 -16q0 -6 -1 -12 q-6 -63 -54 -90q-6 -4 -18 -6t-27 -3q-7 -1 -14 -1t-14 1q-13 1 -17 3q-30 17 -30 67q0 19 5 36.5z" />
<glyph unicode="k" horiz-adv-x="892" d="M82 8q0 12 3 30.5t8 51.5t14.5 85t25.5 132q10 57 26.5 141t34 178.5t35 189.5t32.5 176t24.5 137.5t11.5 72.5q8 49 -16 49q-20 2 -53 -9t-68 -28q-2 2 -2 11.5t1 18.5t4 17.5t5 10.5q33 20 75 43.5t82 42t74 31t50 12.5q14 0 18 -30q1 -9 1 -19q0 -27 -7 -66 q-16 -86 -38 -189.5t-43.5 -213t-43 -221t-39.5 -211.5q0 -6 4 -9.5t8 0.5q33 43 91.5 112t126 132.5t135 109.5t116.5 46q53 0 76 -14.5t29 -22.5v-13.5t-2 -13.5q-2 -10 -11.5 -27.5t-19.5 -35t-21.5 -30.5t-19.5 -15q-10 6 -44 22.5t-77 16.5q-29 0 -66.5 -25 t-75.5 -59.5t-71 -71.5t-51 -61q-6 -10 0 -17q6 -8 23.5 -30.5t41.5 -65.5q51 -84 89 -135t66 -80t49.5 -39t39.5 -10q25 0 60.5 22.5t91.5 95.5q2 0 6 -4t4 -8q0 -18 -4 -40.5t-8 -26.5q-23 -35 -52.5 -67t-62.5 -56.5t-64.5 -39t-58.5 -14.5q-61 0 -121 80 q-20 29 -43.5 67t-47 78t-46 78.5t-41.5 67.5q-12 27 -31 8q-18 -23 -33.5 -54.5t-21.5 -55.5q-8 -33 -12 -55.5t-8 -45.5q-2 -22 -2 -40q0 -41 12 -62q-4 -6 -25.5 -19.5t-46 -26.5t-46 -23.5t-30.5 -10.5q-20 0 -20 45z" />
<glyph unicode="l" horiz-adv-x="471" d="M106 14q-4 17 -4 41q0 41 11 105q8 49 23.5 130t32.5 178t37.5 202.5t38 205t32 183.5t22.5 139q6 53 -16 53q-20 0 -57.5 -10.5t-78.5 -28.5q0 2 1.5 12.5t3.5 20.5t5 18.5t5 8.5q39 25 82 48t82 40.5t71.5 29t48.5 11.5q10 0 15.5 -12.5t5.5 -31t-3 -41t-5 -40.5 q-14 -72 -32.5 -168t-39 -203.5t-41 -217t-38 -205t-30 -169t-16.5 -108.5t0 -55.5t21 -20.5q23 0 57.5 21.5t81.5 74.5q6 0 6 -12t-4 -34.5t-8 -26.5q-33 -43 -71 -77t-75 -57.5t-69.5 -36t-55.5 -12.5q-29 0 -39 45z" />
<glyph unicode="m" horiz-adv-x="1437" d="M78 604q-2 6 -2 14q0 6 2 16q4 18 8 30q33 37 71 69.5t72.5 57t64.5 38t48 13.5q25 0 28 -43q1 -9 1 -20q0 -38 -9 -91q-10 -53 -19 -100t-19 -103h8q57 80 118.5 145.5t120 113t108.5 73t85 25.5q69 0 70 -119q0 -36 -7 -82q-4 -43 -12 -85t-14 -77q6 -6 8 0 q55 78 117.5 144.5t122 114.5t112.5 76t90 28q55 0 63 -68q2 -14 1 -31q0 -67 -23 -184q-23 -111 -42 -198t-29 -166q-4 -23 -1 -41.5t19 -18.5t44 16.5t81 71.5q6 0 6 -12q0 -8 -3 -29.5t-7 -29.5q-37 -47 -75 -81t-73.5 -57.5t-64.5 -35t-47 -11.5q-35 1 -40 55 q-1 13 -1 28q0 48 12 118q25 125 45.5 218t40.5 192q10 51 10 81v9q-2 32 -30 32q-25 0 -62 -23.5t-80 -64.5t-87 -96t-83 -121q-16 -29 -36.5 -77t-36.5 -107q-10 -45 -22 -95q-10 -43 -9 -77v-12q-6 -6 -25.5 -17.5t-41 -20.5t-42 -16.5t-28.5 -7.5q-6 0 -12.5 8.5 t-2.5 26.5q4 27 17.5 91.5t31 145t35 168t27.5 160.5q8 45 8 74q0 17 -3 29q-7 30 -34 30q-45 0 -127 -73.5t-176 -223.5q-14 -23 -30.5 -56.5t-32.5 -86.5q-10 -29 -18.5 -62.5t-14.5 -64.5t-9 -57.5t1 -40.5q-12 -10 -33 -21.5t-42.5 -20.5t-39.5 -16.5t-25 -7.5 q-8 0 -12 11.5t-2 21.5q2 31 21 115q14 57 29.5 125.5t28.5 137t25.5 131t18.5 107.5q8 57 -10 58q-18 0 -48 -21.5t-69 -56.5q-8 0 -8 8z" />
<glyph unicode="n" horiz-adv-x="950" d="M80 600q-2 5 -2 13q0 7 2 19q4 22 6 27q33 39 71 73t72.5 58.5t63.5 38t45 13.5q32 0 32 -69q0 -46 -14 -122l-30 -162q0 -2 2 -3t4 3q78 111 165 193t167 125q31 16 56 25.5t54 9.5q54 0 60 -71q1 -13 1 -28q0 -68 -24 -178q-25 -117 -44 -214t-30 -163q-2 -23 0 -39 t17 -16q16 0 45.5 18.5t77.5 71.5q6 0 8 -10q1 -2 1 -6q0 -7 -3 -25q-4 -26 -9 -32q-31 -41 -66.5 -75t-71.5 -57.5t-67.5 -37t-52.5 -13.5q-40 0 -40 77q0 49 16 130q23 111 46.5 219.5t39.5 192.5q7 42 7 68q0 10 -1 18q-4 28 -33 28q-47 0 -130 -75.5t-175 -223.5 q-23 -35 -43 -88t-31 -102q-14 -55 -22 -105q-5 -33 -5 -53q0 -10 1 -18q-8 -10 -27.5 -21.5t-41 -21.5t-41 -17.5t-27.5 -7.5h-3q-6 1 -12 7q-6 8 -4 16q2 31 19.5 109.5t37 175t39 191.5t27.5 161q6 47 -12 47q-16 0 -47 -23.5t-66 -56.5q-8 0 -8 6z" />
<glyph unicode="o" horiz-adv-x="866" d="M86 252q0 68 12.5 135.5t37 131t64.5 118.5t95 96q33 25 72 45.5t76.5 33.5t73.5 21.5t63 8.5q57 0 96 -25.5t63.5 -65.5t34.5 -88.5t10 -95.5q0 -80 -16 -156.5t-50 -146t-86 -127t-124 -98.5q-61 -37 -123.5 -54.5t-99.5 -17.5q-51 0 -88 23.5t-61.5 62.5t-37 90.5 t-12.5 108.5zM242 315q0 -125 34.5 -187t112.5 -62q49 0 92 37.5t75 100t50.5 142.5t18.5 166q0 45 -6.5 88t-22.5 77t-45 54.5t-74 20.5q-59 0 -103 -43t-74 -107.5t-44 -141.5t-14 -145z" />
<glyph unicode="p" horiz-adv-x="940" d="M-125 -508q2 23 6 27q29 8 47.5 13t40.5 15q35 14 49.5 34t26.5 67q6 23 13.5 63.5t16.5 93t19 110.5t21 118q10 55 25.5 140t30.5 176t28.5 173t19.5 131q2 16 -1 27.5t-13 11.5q-14 0 -47 -23.5t-74 -62.5q-10 0 -12 4q-2 10 1 32t7 30q25 29 66.5 66.5t84.5 72.5 t79 59.5t52 24.5q8 0 17.5 -14.5t9.5 -30.5q-4 -47 -17.5 -123t-29.5 -166q0 -6 10 0q45 57 97.5 107.5t104.5 89.5t101.5 61.5t85.5 22.5q57 0 92 -66t35 -172q0 -154 -57 -284t-149 -207q-31 -27 -68 -52.5t-77 -45t-80 -32t-79 -12.5q-29 0 -59.5 9.5t-48.5 21.5 q-4 -25 -11.5 -66.5t-15.5 -89t-14 -96.5t-10 -92q-2 -37 7 -55.5t44 -24.5q25 -4 53.5 -5t50.5 -3q4 -6 0 -28.5t-10 -26.5q-92 0 -219 -14.5t-248 -37.5q-3 4 -3 16q0 5 1 13zM279 154q2 -11 6 -15q20 -35 61 -53t82 -18q45 0 74.5 12t64.5 45q37 33 63.5 81t45 104.5 t27 116.5t8.5 120q0 92 -22.5 126t-51.5 34q-45 0 -121 -56.5t-154 -169.5q-12 -18 -26 -49t-23 -65q-12 -49 -22 -105.5t-12 -83.5q-1 -6 -1 -12t1 -12z" />
<glyph unicode="q" horiz-adv-x="929" d="M86 199q0 63 11.5 126.5t32 123t48 111.5t62.5 91q39 45 91 81t105 60.5t102.5 37t84.5 12.5q78 0 141 -14.5t100 -30.5q-12 -20 -22.5 -56t-14.5 -55q-12 -59 -28.5 -147t-31.5 -188.5t-31.5 -207t-30 -201t-22.5 -170t-11 -116.5q-4 -29 4 -46.5t35 -23.5 q20 -4 45.5 -5t62.5 -3q4 -6 1 -28.5t-9 -26.5q-53 -2 -121.5 -9.5t-137.5 -16.5t-128 -19t-94 -17q-4 6 -2 29t8 27l59.5 17t46.5 17q35 14 47.5 36t16.5 44q10 47 22.5 117t24.5 154t27.5 176t31.5 184q-6 4 -10 0q-41 -53 -92 -106.5t-105.5 -95.5t-105.5 -67.5 t-90 -25.5q-61 0 -92 66.5t-31 165.5zM246 272q0 -86 19.5 -122.5t58.5 -36.5q41 0 110.5 52t155.5 173q20 31 34.5 71t24.5 78q4 20 10.5 48t10.5 58t8 54.5t4 38.5q1 2 1 5q0 5 -2 11q-3 9 -7 13q-29 23 -68 29t-76 6q-66 0 -108.5 -29t-71.5 -70q-25 -35 -44 -80 t-32.5 -95t-20.5 -102t-7 -102z" />
<glyph unicode="r" horiz-adv-x="677" d="M70 600q-1 3 -1 8q0 8 3 22q4 20 6 25q33 37 70.5 71t72.5 59.5t65.5 41t47.5 15.5q23 0 29 -37q2 -11 1 -26q0 -38 -10 -105q-6 -41 -13 -76t-13 -70q0 -2 3 -3t5 3q31 53 60.5 98.5t70.5 98.5q45 55 86 86t76 31q25 0 49 -10.5t39 -36.5v-29q-2 -12 -12.5 -31.5 t-22.5 -40t-26.5 -38t-22.5 -25.5q-12 -12 -25 -4q-43 51 -80 51q-25 0 -70.5 -58.5t-111.5 -193.5q-23 -47 -43 -107.5t-37 -132.5q-10 -41 -17 -82q-5 -32 -5 -57v-14q-6 -8 -26.5 -18.5t-43 -20.5t-43 -18.5t-29.5 -8.5q-6 0 -10 7.5t-4 11.5q2 12 11.5 51t20.5 93 t24.5 119.5t26.5 129t22.5 122t13.5 99.5q2 20 2 34q0 36 -14 36t-45 -20.5t-72 -55.5q-8 0 -8 6z" />
<glyph unicode="s" horiz-adv-x="618" d="M16 78q0 8 4.5 26.5t11.5 38t15 39t14 29.5q4 4 17.5 6t13.5 -2q16 -76 70.5 -117t120.5 -41q57 0 92 33t35 78q0 18 -4.5 36.5t-19.5 39t-43 46t-73 60.5q-84 63 -110.5 108.5t-26.5 94.5q0 41 20.5 92t73.5 98q61 55 124 77t104 22q49 0 81.5 -14.5t43.5 -30.5 q2 -3 3 -13v-7q0 -6 -1 -11q-6 -20 -28 -53t-38 -49q-4 -4 -11 -3t-11 3q-23 39 -59 60t-79 21t-74.5 -30.5t-31.5 -79.5q0 -20 5 -37.5t21.5 -37t44 -44t74.5 -59.5q82 -63 115 -105.5t33 -93.5q0 -39 -21.5 -91t-93.5 -112q-66 -53 -127 -70.5t-108 -17.5q-49 0 -88 14.5 t-62 36.5q-27 27 -27 60z" />
<glyph unicode="t" horiz-adv-x="567" d="M72 741q4 8 16 19.5t24.5 23t23.5 19.5t16 10q6 2 25.5 0t55.5 0q14 0 15 10q23 90 35 143.5t22 75.5q4 8 24.5 26.5t45 38t49.5 36t37 20.5h1q4 0 11 -9q8 -11 4 -15q-14 -18 -25.5 -50t-19.5 -67q-10 -41 -21.5 -93t-21.5 -102q-2 -4 0 -9t6 -5q39 0 79 1t74 3t58.5 5 t30.5 7q1 -2 1 -5q0 -7 -4 -18q-5 -15 -9 -22q-10 -12 -42 -26.5t-67 -20.5q-31 -6 -61.5 -9t-75.5 -5q-8 0 -14 -14q-10 -51 -23.5 -120t-25 -138.5t-20.5 -130t-13 -95.5q-3 -26 -3 -44q0 -27 6 -39q11 -22 33 -21q20 0 47 14.5t53.5 36t49.5 45t35 41.5q4 2 8 -1t2 -7 q2 -14 -2 -35.5t-8 -28.5q-25 -37 -64 -75.5t-83 -70.5t-89 -52.5t-82 -20.5q-29 0 -49 33q-17 28 -17 81q0 11 1 23q0 31 12 104t27.5 162t34 181t30.5 160q0 10 -6 10q-45 0 -84 1t-61 5q-2 4 -2 14z" />
<glyph unicode="u" horiz-adv-x="948" d="M80 606q-1 4 -1 10q0 10 2 22q3 22 7 26q33 37 72 68.5t75.5 56t67.5 39t49 14.5q23 0 28 -40q1 -7 1 -16q0 -42 -19 -129q-10 -51 -22 -110.5t-24.5 -115.5t-22.5 -107.5t-17 -85.5q-6 -35 -6 -59q0 -18 4 -31q8 -29 41 -29q27 0 65 24.5t80 66.5t83 97t73 119 q16 31 28.5 67.5t25.5 79.5q6 31 13 63t13 59.5t12.5 49t12.5 31.5q6 6 25.5 16.5t42 19.5t46 17.5t35.5 12.5q4 -2 7.5 -10.5t1.5 -14.5q-16 -23 -26.5 -55.5t-21.5 -77.5q-12 -55 -26 -120.5t-26.5 -131t-23 -125t-14.5 -104.5q-4 -31 -1 -52.5t20 -21.5q16 0 47 20.5 t82 79.5q8 0 8 -10q0 -14 -3 -34.5t-7 -28.5q-29 -43 -65 -78t-71.5 -59.5t-68.5 -38t-53 -13.5q-35 0 -42 47q-3 17 -3 40q0 39 8 96q6 41 13 76.5t13 76.5q0 4 -3 4t-5 -2q-57 -86 -120.5 -149.5t-122.5 -108.5q-104 -80 -179 -80q-42 -1 -62 49q-10 23 -9 65q0 46 12 114 q6 35 17.5 93t24.5 121.5t26.5 124t21.5 99.5q4 16 2 30.5t-12 14.5q-16 0 -49 -22.5t-72 -57.5q-8 0 -8 8z" />
<glyph unicode="v" horiz-adv-x="808" d="M61 600q-1 4 -1 8q0 10 4 24q4 20 8 27q29 35 64.5 70t78.5 66q66 47 100 47q23 0 33 -40q7 -29 7 -74q0 -18 -1 -40q-4 -49 -6 -105.5t-5 -109.5t-5 -102t-4 -86q-3 -44 -3 -74q0 -15 1 -25q2 -34 10 -51q8 -20 33 -4q45 33 94 90.5t89 125t65.5 137t25.5 126.5 q0 35 -13 76t-40 72q-4 10 8 22q29 20 71 40t64 22q18 -4 32.5 -40t14.5 -89q0 -59 -19 -122t-50 -125.5t-70 -119.5t-78 -104q-92 -111 -166.5 -174.5t-132.5 -92.5q-14 -8 -28 -9h-9q-8 0 -14 1q-31 31 -31 196v21q0 43 3.5 102.5t6.5 121t6 117t3 91.5v10q0 49 -19 50 q-14 0 -44.5 -21.5t-71.5 -64.5q-6 0 -11 10z" />
<glyph unicode="w" horiz-adv-x="1236" d="M49 604q0 10 4 30.5t8 31.5q70 90 142.5 133t107.5 43q29 0 38 -42q5 -25 5 -73q0 -32 -2 -74q-2 -41 -6 -88t-7 -93t-6 -90t-5 -79q-4 -59 -4 -87t4 -38q4 -8 14 0q20 23 50 64t63.5 93t69.5 112.5t71 121.5q18 35 33.5 69t32.5 67q8 4 21 10t26.5 10t26 7t18.5 3 q-2 -35 -2 -89t2 -117.5t7 -128t11 -119t14.5 -93t16.5 -49.5q10 -4 14 0q51 47 98.5 115t83 139.5t56 139t20.5 114.5q0 33 -16.5 57.5t-69.5 32.5q0 6 3 21.5t5 19.5q33 23 89.5 42.5t95.5 21.5q16 -8 22 -35t6 -47q0 -72 -34 -174q-31 -86 -83.5 -178.5t-112.5 -175 t-123.5 -149.5t-115.5 -103q-8 -6 -25.5 -9.5t-25.5 -3.5q-16 33 -27.5 88.5t-19.5 121t-14 137t-13 137.5q0 4 -4 3t-6 -1q-27 -47 -74 -120t-101 -146.5t-108.5 -135t-91.5 -84.5q-3 -1 -7 -1q-6 0 -14 2q-13 3 -17 7q-13 23 -15 79q-1 17 0 36q0 44 4 98q2 49 6.5 106.5 t7.5 113t7 107.5t6 93q0 33 -3 53.5t-20 20.5q-16 0 -52 -24.5t-73 -63.5q-10 0 -12 10z" />
<glyph unicode="x" horiz-adv-x="923" d="M18 90q0 45 14.5 96.5t37.5 85.5q2 4 24.5 10.5t24.5 0.5q-3 -28 -3 -50q0 -47 12 -71q17 -35 36 -35q16 0 34.5 10t49.5 45q35 41 78 96.5t82 114.5q2 4 4 11.5t-2 13.5q-16 61 -35 117.5t-35 97.5q-12 29 -24.5 46t-28.5 17q-27 0 -68 -43.5t-88 -109.5h-6t-4 4 q-6 10 -7 31.5t1 29.5q18 35 50 76t68.5 76t73.5 58.5t66 23.5t49 -34t35 -73q31 -84 63 -196q2 -4 6 -4t6 4q35 47 73 98t81 98q63 70 104 88.5t64 18.5q27 0 38 -23.5t11 -58.5q0 -66 -14.5 -120t-22.5 -67q0 -4 -9 -9t-18.5 -8t-17.5 -4t-8 3v25q0 64 -9 90 q-11 32 -32 32q-29 0 -81 -57t-142 -180q-2 -4 -2 -8v-8q33 -111 56.5 -176.5t42 -99.5t31.5 -44t30 -10q23 0 57.5 28.5t89.5 116.5q0 2 4 2t8 -4q2 -4 3 -14t2 -21.5t0 -20.5t-1 -11q-25 -53 -57.5 -95.5t-67 -71t-67.5 -45t-57 -16.5q-25 0 -51.5 28t-55.5 99 q-16 35 -35.5 101.5t-40.5 128.5q-2 6 -8 0q-63 -96 -124.5 -176t-102.5 -121q-35 -35 -61.5 -47.5t-49.5 -12.5q-35 0 -54.5 33t-19.5 90z" />
<glyph unicode="y" horiz-adv-x="800" d="M-137 -500q0 10 13 38t31.5 57.5t36 56t25.5 33.5q6 10 23 6q41 -20 80 -21q10 0 27.5 8.5t43 34t61.5 71.5t83 122q6 14 9 29.5t3 25.5q0 57 -6 143t-16.5 176.5t-23.5 174.5t-28 137q-12 47 -23.5 66.5t-27.5 19.5q-41 0 -125 -103q-2 -4 -6 0.5t-4 8.5q-4 10 -1 35.5 t11 35.5q25 35 55.5 68t61.5 59.5t60.5 42t52.5 15.5q33 0 54 -49.5t38 -137.5q10 -59 18 -133t15.5 -148.5t12.5 -141t9 -107.5q4 -4 8 0q104 170 150.5 295t44.5 184q0 76 -35 146q-2 4 0 13t6 13q10 8 29.5 21.5t40 24.5t38 19.5t23.5 8.5q16 0 27 -36q8 -30 8 -61v-12 q0 -53 -20.5 -132t-61.5 -165q-49 -102 -111.5 -214.5t-130 -218t-136 -199t-128.5 -158.5q-49 -53 -87 -88t-68.5 -55.5t-57 -28.5t-51.5 -8q-20 0 -35.5 8t-15.5 20z" />
<glyph unicode="z" horiz-adv-x="860" d="M-2 12q-2 9 -2 14t2 7q14 20 34.5 43.5t43 46t43 42t35.5 34.5q12 12 44.5 46t76.5 79t93.5 96t92.5 97t75.5 81l45.5 49q4 4 3 7t-5 3q-20 0 -63.5 3.5t-92.5 13.5q-35 4 -77 10t-54 6q-45 0 -81 -26.5t-87 -104.5q-4 -10 -12 -2q-10 4 -19.5 17.5t-5.5 17.5 q6 16 22.5 47t36 63.5t39 62.5t31.5 46q8 10 24.5 20.5t37.5 10.5q20 0 68 -9.5t95 -21.5q53 -14 115.5 -28.5t101.5 -14.5q23 0 47.5 12.5t46 28.5t38 34.5t26.5 28.5q3 2 5 2l7 -6q4 -10 5.5 -30.5t-3.5 -26.5q-4 -8 -26.5 -32.5t-53 -56.5t-63.5 -65.5t-57 -58.5 q-18 -18 -54 -55t-78 -80t-86 -90t-81 -86t-61.5 -65.5t-28.5 -31.5q-4 -4 -4 -9t4 -5q8 -2 58 -16.5t116 -42.5q59 -25 99 -34t69 -9q131 0 252 200q2 2 8 -2t8 -8q1 -6 1 -12q0 -12 -3 -28q-4 -24 -8 -31q-23 -41 -58.5 -85.5t-82 -82t-100.5 -62t-112 -24.5 q-47 0 -103 23.5t-110 45.5q-51 23 -80.5 33t-54.5 10q-35 0 -62.5 -21.5t-60.5 -52.5q-6 -6 -12 7q-4 10 -8 28z" />
<glyph unicode="{" horiz-adv-x="847" d="M106 553q0 4 3.5 13t7.5 20.5t9 20.5t9 11q86 2 134 26t74 66t35 99t15 125l19 188q27 209 151.5 308.5t333.5 115.5q2 -2 3 -10t2 -19.5t0 -20.5t-3 -11q-168 -29 -248 -97.5t-98 -191.5q-12 -72 -16.5 -165t-14.5 -171q-4 -33 -13 -72.5t-33.5 -77.5t-73 -71 t-130.5 -51q-4 -4 -2 -10q82 -10 123 -40t56.5 -69t13.5 -82t-8 -78q-14 -92 -40 -182t-38 -164q-12 -72 8.5 -119t58 -75.5t89 -44t100.5 -23.5q0 -8 -10.5 -31.5t-16.5 -27.5q-82 0 -152.5 18t-119.5 59t-72.5 102.5t-13.5 147.5q4 37 13 79t30 124q20 84 34.5 149.5 t2 112.5t-63.5 77t-158 42z" />
<glyph unicode="|" horiz-adv-x="591" d="M229 -635v2089h133v-2089h-133z" />
<glyph unicode="}" horiz-adv-x="837" d="M-14 -344q0 10 1 19.5t3 11.5q174 31 253 99.5t97 190.5q10 72 12 160t15 164q4 33 13 74t35.5 81t74 72.5t128.5 49.5q2 4 3 12q-80 12 -121 43t-57.5 70.5t-14.5 82.5t8 78q16 88 44 182.5t38 167.5q12 72 -8.5 118t-60 76t-91 44t-100.5 21q-2 8 6 31.5t17 27.5 q80 0 150.5 -19.5t121.5 -59.5t76.5 -101.5t13.5 -143.5q-6 -39 -14 -80t-27 -120q-20 -82 -35.5 -149.5t-4.5 -118t61.5 -83t158.5 -47.5q2 -4 -1 -13t-7 -20.5t-9 -20.5t-7 -11q-86 -2 -138.5 -25.5t-80 -64.5t-36.5 -97.5t-11 -126.5q0 -14 -2.5 -41.5t-4.5 -56.5 t-4 -55.5t-4 -36.5q-16 -104 -54 -179t-99.5 -124t-144.5 -76t-185 -35q-4 2 -6 10.5t-2 18.5z" />
<glyph unicode="~" horiz-adv-x="1120" d="M90 367q0 16 9.5 45.5t13.5 33.5q20 27 56 56.5t79 55.5t86 42t76 16q43 0 88 -15t114 -46q45 -23 84 -38t78 -15q47 0 108.5 28.5t127.5 102.5q2 2 10 0t12 -6q0 -10 -6 -37t-10 -37q-14 -25 -44 -56.5t-69 -58t-87 -45t-99 -18.5q-41 0 -90 20.5t-115 53.5 q-47 23 -85 33t-79 10q-29 0 -65.5 -15.5t-71.5 -38t-63.5 -46t-43.5 -38.5q-4 -4 -9 2t-5 11z" />
<glyph unicode="&#xa1;" horiz-adv-x="524" d="M10 -424q2 10 13.5 61.5t30 127t41 165.5t44 178.5t41 166t31.5 128.5q6 6 28.5 19.5t32.5 11.5q14 0 19 -6q-8 -100 -16.5 -226t-16.5 -243t-14 -208t-8 -124q0 -12 -12.5 -26.5t-24.5 -20.5q-27 -10 -76 -20.5t-76 -10.5q-10 0 -23.5 8.5t-13.5 18.5zM188 719 q0 18 8.5 43.5t28.5 44.5q37 31 86 31q16 0 37 -6.5t33 -22.5q23 -29 22 -64q0 -29 -9 -52t-34 -46q-18 -16 -39.5 -23.5t-39.5 -7.5q-45 0 -70 27q-14 16 -19.5 36.5t-3.5 39.5z" />
<glyph unicode="&#xa2;" d="M168 522q0 123 61.5 237.5t190.5 186.5q53 27 107.5 43.5t113.5 22.5l31 147q10 6 31.5 11.5t31.5 5.5q2 0 5 -1t5 -1l-32 -160q88 0 155 -29q10 -4 33 -18.5t29 -34.5q2 -4 1 -15.5t-5 -17.5q-10 -14 -33 -37.5t-37 -30.5q-12 -4 -22 0q-20 23 -49.5 54t-84.5 47 q-8 0 -10 -6l-127 -629q12 -4 22.5 -4h26.5q55 0 126 23.5t136 78.5q2 -2 2.5 -11t0.5 -19.5t-2.5 -20.5t-4.5 -12q-39 -43 -84 -74t-89 -49.5t-85 -28.5t-71 -12q-4 0 -11 -8l-30 -152q-10 -4 -29.5 -8t-32.5 -4q-4 0 -12 4l35 160q-2 12 -8 12q-70 10 -126.5 42t-97.5 91 q-29 41 -45 97.5t-16 119.5zM326 588q0 -100 38.5 -174t129.5 -103l129 621q0 8 -7 8q-74 0 -128 -31.5t-91 -83t-54 -114t-17 -123.5z" />
<glyph unicode="&#xa3;" d="M6 -10q0 2 5 16t11.5 30.5t12.5 31t10 18.5q23 16 46.5 28.5t41.5 22.5q16 8 32.5 26.5t32 62.5t29 121t23.5 200h-26.5h-41t-45 1t-35.5 3l-2 12q6 16 16.5 34.5t16.5 29.5q8 -2 27.5 -2h42.5h53q14 150 45 248t96 178q49 57 99.5 93t94.5 55.5t79 25.5t51 6 q86 0 123 -25.5t37 -42.5q0 -10 -5.5 -26.5t-13.5 -34t-16 -33.5t-17 -25q-4 -2 -9 -4t-9 0q-41 39 -84 68t-102 29q-39 0 -71 -23.5t-50 -83.5q-35 -74 -48.5 -176t-25.5 -219q-2 -4 1 -7t7 -3h100.5t67 1t51 2t54.5 3q2 -4 -2 -18.5t-9 -18.5q-16 -16 -36.5 -26.5 t-42.5 -14.5q-14 -2 -38 -4t-51.5 -3t-55 -1h-48.5q-4 0 -8 -4t-4 -9q-8 -49 -18.5 -97t-30 -96t-51 -93t-80.5 -88q41 4 95 -4.5t111 -22.5q37 -8 86.5 -17.5t92.5 -7.5q45 0 77.5 7.5t61 30t55.5 64.5t59 109q2 2 9.5 2t9.5 -2q4 -4 11 -26.5t5 -32.5q-35 -88 -80 -146.5 t-91 -94t-89 -51t-74 -15.5q-25 0 -47 2t-46.5 7t-54.5 14.5t-71 23.5q-129 45 -186 45q-25 0 -53.5 -10t-83.5 -60q-6 0 -15.5 6.5t-11.5 10.5z" />
<glyph unicode="&#xa4;" d="M92 162v20.5t1 29.5t3 29.5t6 18.5q31 37 54.5 59.5t50.5 49.5q0 2 1 3t1 5v6q-16 35 -25.5 79t-5.5 103q6 59 27.5 117.5t58.5 105.5q-20 25 -48 62t-44 59q-8 8 -4 25q0 2 6 15.5t14.5 28.5t17.5 29.5t15 20.5q2 2 10.5 3t12.5 -3q23 -35 52.5 -76t55.5 -69q6 -6 19 0 q51 35 112.5 51t104.5 16q51 0 94 -14t76 -37q6 -6 12 0q41 39 68.5 65.5t46.5 39.5q2 2 15 4t28.5 3t29 2t17.5 1q6 -4 6 -17q-47 -47 -92 -95t-68 -77q25 -47 35 -96t6 -111q-6 -68 -31.5 -126t-62.5 -105q-8 -8 -2 -18q29 -39 66.5 -86t66.5 -76q0 -2 -3 -10.5t-7 -12.5 q-10 -2 -27.5 -4t-35 -2t-33 1t-19.5 5q-10 8 -25.5 23.5l-32 32t-30.5 32t-22 25.5q-49 -37 -99.5 -53.5t-107.5 -16.5q-59 0 -108.5 19.5t-84.5 52.5q-18 -14 -39.5 -34.5l-43 -41t-39 -39t-27.5 -26.5q-4 -4 -12.5 -2t-10.5 6zM305 612q-6 -74 9.5 -127t46 -88t72.5 -51 t89 -16q37 0 73 10t64.5 36.5t49 74t26.5 120.5q4 57 -8 109.5t-40 92.5t-70 62.5t-93 22.5t-90 -20.5t-66.5 -54t-43 -77.5t-19.5 -94z" />
<glyph unicode="&#xa5;" d="M136 1197q3 22 11 28q27 0 81.5 -3t119.5 -3q25 0 55.5 1t58 2t50.5 2t31 1q4 -4 2 -27.5t-8 -30.5q-16 -4 -37 -7t-31 -7q-23 -8 -25 -21.5t5 -35.5q10 -41 26.5 -96.5t32.5 -110.5t30.5 -103.5t22.5 -74.5q0 -2 4 -2t6 2q25 39 56.5 89t63.5 102t60.5 99.5t47.5 81.5 q33 55 -23 70q-16 4 -33.5 7t-44.5 7q-2 6 4.5 30t12.5 28q39 0 74.5 -3t99.5 -3q55 0 92 2t84 4q4 -6 0 -28.5t-8 -29.5q-14 -4 -27.5 -6t-30.5 -6q-41 -10 -73.5 -37.5t-73.5 -87.5q-35 -51 -72 -107.5t-71.5 -109.5t-64.5 -99t-48 -77q-4 -4 -3 -9t5 -5q74 2 125 3t63 1 q0 -8 -7 -33t-11 -35q-29 0 -79 1t-103 1q-6 0 -11 -10l-18 -121q-6 -10 4 -10h52.5t56 1t48 1h27.5q0 -8 -6 -31.5t-12 -34.5h-174q-8 0 -8 -8q-8 -47 -14.5 -93t-10.5 -75q-10 -59 -1 -80.5t46 -31.5q23 -4 45.5 -7.5t59.5 -7.5q4 -6 -2 -29.5t-13 -29.5q-53 0 -112.5 3 t-130.5 3q-74 0 -127.5 -3t-116.5 -3q-4 8 -1 31.5t7 27.5q41 4 63.5 7t45.5 8q41 10 54 32.5t23 69.5q6 29 14.5 76t16.5 100q4 10 -6 10q-70 0 -114 -1t-72 -1q4 16 9 39t9 29q20 0 57 -1t123 -1q6 0 6 8q6 33 11.5 63.5t9.5 57.5q2 4 -1 8t-7 4q-78 0 -113 -2t-57 -2 l10 40t10 28h156q4 0 7 4t-1 8q-6 29 -18.5 73t-27.5 95t-33.5 106.5t-37.5 106.5q-14 43 -24.5 67.5t-22.5 38t-25.5 19.5t-33.5 12q-23 6 -36 7t-32 5q-4 8 -1 30z" />
<glyph unicode="&#xa6;" horiz-adv-x="591" d="M227 260h138v-727h-138v727zM227 580v712h138v-712h-138z" />
<glyph unicode="&#xa7;" horiz-adv-x="942" d="M49 -137q2 16 16.5 47t30.5 53q4 2 9.5 4t9.5 2q31 -43 65.5 -71.5t68.5 -46t61.5 -24.5t39.5 -7q23 0 32 16.5t9 42.5q0 33 -10 64.5t-21 52.5q-18 41 -49.5 105.5t-66.5 134.5q-61 123 -89 223t-28 176q0 129 52 237.5t134 192.5q29 27 66 54.5t77 48t81 33.5t77 13 q84 0 135.5 -31.5t73.5 -56.5q27 -33 21 -57q-2 -18 -14.5 -41.5t-28.5 -40.5q-2 -2 -7.5 -4t-5.5 0q-12 10 -35.5 31.5t-52 42t-57.5 36t-49 15.5q-35 0 -43 -26.5t-8 -55.5q0 -53 16 -92q20 -61 59 -146.5t99 -212.5q47 -96 64.5 -170.5t17.5 -128.5q0 -72 -21.5 -148.5 t-87.5 -168.5q-41 -57 -91 -103t-101.5 -79t-100.5 -50.5t-86 -17.5q-100 0 -155.5 32t-83.5 64q-10 16 -17.5 30.5t-5.5 27.5zM244 735q0 -98 28.5 -186t67.5 -172q25 -53 51.5 -105.5t49 -103.5t38 -99.5t15.5 -93.5q0 -35 -6.5 -68.5t-22.5 -72.5q51 23 90 61.5t65.5 87 t40 102.5t13.5 110q2 92 -27 171.5t-69 172.5q-20 43 -44 90t-44.5 98t-34 103.5t-13.5 105.5q0 41 10.5 87t30.5 83q-49 -10 -93 -46t-75.5 -88t-51 -113.5t-19.5 -123.5z" />
<glyph unicode="&#xa8;" horiz-adv-x="819" d="M285 1098q0 12 5 30.5t11 26.5q14 16 41.5 25.5t54.5 9.5q20 0 32.5 -6t16.5 -10q6 -10 9.5 -27t1.5 -29q-4 -29 -17.5 -51.5t-36.5 -34.5q-4 -2 -15 -4t-25.5 -4t-26.5 -2t-17 4q-31 18 -34 72zM588 1102q2 12 7 29.5t13 25.5q16 16 41.5 24.5t52.5 8.5q23 0 34.5 -6 t15.5 -10q6 -8 8 -24.5t0 -29.5q-4 -29 -16.5 -52.5t-34.5 -35.5q-4 -2 -16.5 -4t-27 -4t-26.5 -2t-14 4q-33 16 -37 76z" />
<glyph unicode="&#xa9;" horiz-adv-x="1517" d="M125 633q0 137 51 257t140.5 208t209 139t256.5 51q143 0 264 -51t208 -139t135.5 -208t48.5 -257q0 -141 -51.5 -261t-140.5 -209t-208.5 -139.5t-255.5 -50.5q-139 0 -259 49.5t-209 136.5t-139 207.5t-50 266.5zM209 633q0 -123 45 -230.5t123 -187.5t182.5 -126 t224.5 -46q129 0 233.5 46t180.5 126t117 187.5t41 230.5t-45 231.5t-123 188.5t-182.5 126t-223.5 46q-121 0 -225 -46t-181 -126t-122 -188.5t-45 -231.5zM406 637q0 72 25.5 141.5t79.5 124.5t136 89t197 34q35 0 67.5 -3t71.5 -7q25 -4 48.5 -6t53.5 0q-4 -41 -9 -101.5 t-7 -105.5q-4 -4 -22.5 -6t-22.5 2q-8 59 -23.5 89t-44.5 50t-65.5 27.5t-71.5 7.5q-68 0 -115 -25.5t-77.5 -68.5t-45 -102.5t-14.5 -127.5q0 -51 16.5 -111.5t52.5 -111.5t91 -85t135 -34q53 0 101.5 34t103.5 105q6 -2 17.5 -13t13.5 -15q-6 -20 -20.5 -45t-30 -46.5 t-28.5 -37t-20 -19.5q-31 -10 -68.5 -17t-96.5 -7q-203 0 -315.5 105.5t-112.5 285.5z" />
<glyph unicode="&#xaa;" horiz-adv-x="659" d="M100 588q0 96 34 183t97 153q18 18 48 40.5t69 42t82 33t88 13.5q35 0 73 -4.5t62 -10.5q-10 -27 -19 -51t-16 -45q-10 -41 -19 -90t-17.5 -95t-13.5 -86t-7 -63t5 -32t14 -9q12 0 31.5 15.5t54.5 50.5h2l4 -2q2 -8 0 -27.5t-4 -23.5q-20 -29 -47 -54.5t-54.5 -44 t-52.5 -29t-41 -10.5q-20 0 -29.5 30t-3.5 83q4 25 7.5 47.5t9.5 59.5q4 6 -6 2q-35 -45 -74 -85t-77 -71t-69.5 -48.5t-50.5 -17.5q-23 0 -38 14.5t-24 36t-13.5 47t-4.5 48.5zM223 653q0 -47 11 -66.5t34 -19.5q29 0 80 47.5t98 114.5q14 23 24.5 45.5t18.5 56.5 q10 33 17.5 74t17.5 60q-25 14 -82 14q-106 0 -166 -111q-29 -49 -41 -105t-12 -110z" />
<glyph unicode="&#xab;" horiz-adv-x="1402" d="M162 371q2 6 9 22.5t11 20.5q78 31 168 72.5t173 85.5t148.5 82t94.5 59q10 -6 10 -13q0 -8 -4 -19t-8 -21.5t-8 -19.5t-6 -11q-20 -18 -66.5 -48t-102 -64t-110.5 -65.5t-94 -52.5q-4 -2 -5 -5t3 -5q35 -18 80 -50t89 -65.5t78.5 -65.5t51.5 -50q4 -10 3 -36t-5 -36 q-2 -4 -7.5 -8t-9.5 -2q-18 20 -82.5 62t-141.5 88t-151.5 87t-117.5 58zM616 369q4 8 11.5 25.5t11.5 21.5q80 31 174 75t180 89t155 83.5t99 61.5q4 0 7 -4l6 -8q-4 -16 -14.5 -42t-14.5 -30q-23 -18 -72 -50t-109.5 -68t-120 -68.5t-100.5 -55.5q-4 -2 -5 -5t3 -5 q37 -20 86.5 -54t96.5 -69t86 -67.5t55 -51.5q6 -10 4 -36.5t-6 -38.5q-2 -4 -6 -6.5t-8 -4.5q-20 20 -87 65.5t-148 93.5t-159.5 90t-124.5 59z" />
<glyph unicode="&#xac;" horiz-adv-x="1120" d="M102 596q2 8 6.5 23.5t9.5 32t10 30.5t9 20q16 -4 105.5 -4h283.5h198t133 1t78 1h32q4 0 8 -5t4 -9v-60t-1 -100.5t-1 -117v-109.5q0 -72 1 -119t3 -67q-25 -8 -59.5 -15.5t-47.5 -7.5q-2 0 -8 6t-6 10q0 49 -1 117t-1 132.5t-1 114.5t-1 67q0 10 -5 29.5t-20 19.5h-657 q-49 0 -60.5 2t-11.5 8z" />
<glyph unicode="&#xad;" horiz-adv-x="544" d="M45 375q2 10 9 27.5t15.5 35t15.5 29.5t11 12q41 0 101.5 1l121 2t110.5 3t73 4q2 -4 4 -10t2 -10q-2 -10 -10.5 -25.5t-17.5 -31t-18 -26.5t-13 -13q-14 -4 -73 -8.5t-125.5 -6.5t-124.5 -3t-75 -1q-2 4 -4 10.5t-2 10.5z" />
<glyph unicode="&#xae;" horiz-adv-x="595" d="M117 975q0 57 21.5 107.5t59.5 88t88 60t107 22.5q59 0 110.5 -21.5t88.5 -58t57.5 -88t20.5 -110.5q0 -61 -21.5 -112.5t-59.5 -88.5t-89 -57.5t-109 -20.5q-59 0 -109.5 20.5t-87 57.5t-57 88t-20.5 113zM172 975q0 -47 17.5 -89t47 -74t70.5 -50.5t88 -18.5 q96 0 157.5 63.5t61.5 168.5q0 47 -17 90t-47 74.5t-70 50t-87 18.5t-87 -17t-69.5 -49t-47 -75t-17.5 -92zM256 846q-4 14 0 22q29 4 37 8.5t8 20.5v168q0 14 -7 17t-36 8q-2 2 -1 15t3 13q12 0 29.5 -1t34.5 -1q29 0 56.5 1t37.5 1q43 0 64.5 -20.5t21.5 -53.5 q0 -29 -19.5 -46t-40.5 -21q14 -23 29.5 -45.5t32.5 -38.5q10 -12 18 -17.5t31 -7.5q2 -4 0 -13t-6 -13q-8 -2 -32.5 0t-41.5 6q-14 2 -31 22q-12 16 -23 36t-26 42q-4 8 -14 11.5t-19 3.5v-64q0 -16 7.5 -19t36.5 -8q4 -4 4 -13t-4 -13q-12 0 -33 1t-39 1q-20 0 -44 -1 t-34 -1zM362 989q16 0 31 1t25 5q23 10 22 39q0 25 -15 40.5t-46 15.5q-12 0 -14.5 -5.5t-2.5 -11.5v-84z" />
<glyph unicode="&#xaf;" horiz-adv-x="819" d="M293 1026q2 8 9 25.5t15.5 35t15.5 31t9 15.5q12 0 34.5 -1.5t57.5 -1.5h110.5h101.5t77 1.5t35 3.5q0 -10 -7.5 -26.5t-15.5 -33t-16 -30t-10 -13.5q-10 -2 -41 -4t-77 -3t-105.5 -2t-123.5 -1q-47 0 -57 2q-8 0 -12 2z" />
<glyph unicode="&#xb0;" horiz-adv-x="602" d="M59 985q0 61 19.5 107.5t53.5 77t78 46t93 15.5q115 0 173.5 -69.5t58.5 -172.5q0 -51 -19.5 -93t-52.5 -72.5t-76 -48t-90 -17.5q-98 0 -168 61.5t-70 165.5zM150 999q0 -41 13 -69.5t34.5 -47t49 -26.5t54.5 -8q59 0 103.5 30.5t44.5 108.5q0 57 -40 105.5t-116 48.5 q-59 0 -101 -41t-42 -101z" />
<glyph unicode="&#xb1;" horiz-adv-x="1120" d="M90 43q2 16 11.5 51t13.5 45q16 -4 79.5 -3t153.5 1l678 -2q4 0 5 -7t-1 -11q0 -4 -3 -18.5t-7 -30t-9 -28.5t-12 -13l-903 -2q-4 0 -5 7t-1 11zM90 651q0 6 3 20.5t7 30t8.5 28.5t6.5 20q16 -4 79.5 -4.5t155.5 -0.5h146v144q0 82 -1 142.5t-3 82.5q8 4 23 8t32.5 8.5 t31 7.5t17.5 3q6 0 9 -10.5t3 -61.5v-128t-2 -177q0 -4 3 -11.5t9 -7.5h408q4 -4 5 -11t1 -11t-4 -17.5t-8 -28.5t-10 -27.5t-11 -12.5q-10 0 -51 -1t-97 -1h-118.5h-114.5q-6 0 -9 -5t-3 -9v-106.5v-114t-1 -94.5t-1 -46q-2 -4 -13 -10t-25.5 -12.5t-30 -11.5t-23.5 -7 q-4 0 -8 2q-8 0 -8 4v51v95.5v124v139.5q-55 0 -103.5 -1t-95.5 -1h-95h-106q-4 0 -5 7t-1 11z" />
<glyph unicode="&#xb2;" horiz-adv-x="684" d="M77 782.5q1 18.5 3 22.5q39 29 70.5 52.5t62.5 48t63.5 53t75.5 71.5q78 76 115 139.5t37 133.5q0 51 -30 92t-95 41q-88 0 -184 -97q-6 -2 -16.5 18.5t-8.5 24.5q18 25 48 54.5t67 54.5t79 41t87 16q86 0 141 -58t53 -144q0 -84 -45 -155t-137 -149q-33 -29 -57.5 -50 t-45 -38.5t-39 -33t-38.5 -33.5q-8 -8 2 -10q18 -2 46.5 -3.5t62.5 -1.5h70h64q18 0 46 23t75 98q4 0 21.5 -10t19.5 -16q-6 -14 -18.5 -41t-26.5 -56.5t-28.5 -54t-22.5 -35.5q-4 -6 -17.5 -15t-27.5 -9q-43 0 -95.5 1t-106.5 2t-105.5 2t-94.5 1h-36.5t-32.5 -2 q-2 4 -1 22.5z" />
<glyph unicode="&#xb3;" horiz-adv-x="684" d="M104 909q2 6 20.5 13.5t22.5 5.5q12 -33 30 -61.5t40 -45.5q47 -35 125 -35q33 0 64.5 9.5t55 30t37 52t13.5 76.5q0 70 -47 114t-127 44h-22.5t-30.5 -4q-2 2 1 11t7 20.5t9 19.5t7 10q111 23 153 64t42 100q0 51 -31 82t-82 31q-41 0 -82 -20.5t-84 -55.5 q-4 0 -13 18.5t-5 24.5q47 51 112.5 93t141.5 42q78 0 127 -48t47 -114q0 -70 -44 -113.5t-91 -72.5q-4 -4 -2 -6q57 -20 105 -66.5t48 -117.5q0 -68 -32.5 -121t-84 -91t-116 -58.5t-127.5 -20.5q-41 0 -79 8t-56 21q-16 6 -23.5 16t-13.5 31q-4 8 -6 24.5t-4.5 33.5 t-3.5 32.5t-1 23.5z" />
<glyph unicode="&#xb4;" horiz-adv-x="819" d="M403 950q27 39 55.5 81t55.5 80t48.5 69.5t35.5 50.5q8 4 31.5 8t50.5 7t50.5 4t29.5 -1q4 -4 7 -15t1 -15q-16 -20 -58 -62.5t-91.5 -89.5t-96.5 -90t-71 -64q-4 0 -11.5 4.5t-15.5 10.5t-14.5 12t-6.5 10z" />
<glyph unicode="&#xb5;" horiz-adv-x="929" d="M46 -405.5q-5 53.5 5 143.5q4 47 12.5 103.5t17.5 116.5t18.5 120.5t19.5 116.5q12 70 27.5 166t31 185t27.5 155.5t16 78.5q6 6 26.5 16.5t45 20.5t48.5 17.5t36 7.5q2 0 6 -5.5t4 -9.5q-8 -12 -20.5 -57t-25.5 -106.5t-27.5 -132t-26 -136t-19.5 -118t-10 -74.5 q-2 -39 9.5 -66.5t47.5 -27.5q53 0 130 80.5t149 222.5q16 29 29.5 64.5t23.5 78.5q6 29 14.5 62.5t15.5 65.5t14 57.5t11 37.5q6 6 23.5 15.5t40 19.5t45.5 18.5t37 10.5q2 -2 5 -10.5t3 -12.5q-14 -29 -25.5 -61.5t-21.5 -73.5q-14 -55 -27.5 -119.5t-26 -129t-21.5 -125 t-15 -107.5q-4 -33 0 -52.5t20 -19.5q20 0 47 17.5t80 76.5q8 0 8 -8q0 -16 -3 -36.5t-7 -28.5q-29 -43 -61.5 -77t-65 -57.5t-62.5 -37t-50 -13.5q-39 0 -51.5 48t1.5 141q6 41 10.5 65.5t12.5 61.5q0 2 -4 1t-6 -1q-57 -96 -109.5 -158t-95.5 -96.5t-77 -48t-54 -13.5 q-23 0 -41 10.5t-29 36.5q-8 -31 -20 -91t-17 -113q-10 -102 31 -168t156 -84q2 -6 -4 -23.5t-13 -23.5q-14 -12 -36.5 -20.5t-48 -13.5t-51 -8.5t-44.5 -3.5q-18 0 -36.5 9.5t-33 38t-19.5 82z" />
<glyph unicode="&#xb6;" horiz-adv-x="1169" d="M176 700q0 131 45 227.5t120 161t171 101.5t199 49q68 8 139.5 13t138 8.5t123.5 5.5t96 2q4 -8 3 -32t-7 -34q-29 -4 -56.5 -6t-55.5 -8q-25 -6 -44.5 -15.5t-37 -48.5t-36 -116.5t-40.5 -219.5q-10 -70 -23.5 -161.5t-27 -190t-26.5 -191.5t-26 -165 q-27 -178 -79 -284.5t-111 -162t-119.5 -72t-105.5 -16.5q-61 0 -105.5 32t-54.5 65q-4 12 -7 32.5t-4 43t-1 45t2 38.5q4 8 11 16.5t11 12.5q47 -59 112.5 -99t151.5 -40q43 0 76 24.5t60.5 89t50 178t47.5 293.5q-37 -16 -91 -29.5t-106 -15.5q-195 29 -293 157t-100 312z M602 690q-4 -143 37 -228t133 -112q2 33 12.5 105.5t21.5 158.5t23.5 169t22.5 137q12 72 28.5 139t39.5 102q-72 -4 -129.5 -39t-99.5 -96t-64.5 -146.5t-24.5 -189.5z" />
<glyph unicode="&#xb7;" horiz-adv-x="395" d="M86 369q0 29 9 53t34 47q18 16 40 23.5t42 7.5q18 0 36.5 -6.5t31.5 -20.5q14 -16 19 -37.5t5 -40.5q0 -18 -9 -44.5t-30 -45.5q-39 -33 -86 -33q-16 0 -35.5 7.5t-33.5 23.5q-23 27 -23 66z" />
<glyph unicode="&#xb8;" horiz-adv-x="813" d="M135 -375q0 8 2 24.5t6 20.5q33 -16 59.5 -22t55.5 -6q35 0 57.5 16t22.5 47q0 29 -22.5 62.5t-100.5 64.5q0 4 2 10q2 4 2 7.5t2 5.5q33 39 62 73q25 29 47 56.5t32 38.5h58l-74 -93q-2 -4 -3 -10t3 -8q33 -29 66 -59q23 -23 30 -45.5t7 -45.5q0 -45 -26 -80.5 t-59.5 -60t-70.5 -38t-57 -13.5q-35 0 -62 16.5t-39 38.5z" />
<glyph unicode="&#xb9;" horiz-adv-x="684" d="M141 766q0 8 2 16.5t3 15.5t4 9l88 12q31 6 45 23.5t18 48.5q10 45 21.5 112.5t25.5 153.5q16 92 24.5 157.5t10.5 84.5q0 31 -29 39l-86 8q-2 2 -1 9t4 15.5t5.5 14.5t4.5 8q27 2 61.5 8t70.5 13.5t67.5 16.5t49.5 17q4 0 9.5 -1t5.5 -3q-8 -35 -22.5 -116.5 t-30.5 -192.5l-52 -338q-4 -35 4.5 -51.5t30.5 -24.5l96 -14q2 -4 -2 -25.5t-8 -23.5q-35 0 -97.5 2t-117.5 2t-111.5 -3t-91.5 -3q-2 2 -2 10z" />
<glyph unicode="&#xba;" horiz-adv-x="626" d="M115 645q0 90 34.5 182.5t112.5 151.5q23 16 52.5 29.5t59 23.5t56.5 16.5t43 6.5q43 0 71.5 -18.5t46 -46t25 -62.5t7.5 -68q0 -111 -48.5 -209t-150.5 -157q-43 -25 -90 -38.5t-76 -13.5q-72 0 -107.5 61.5t-35.5 141.5zM238 702q-2 -96 22.5 -138t79.5 -42 q31 0 58.5 24.5t49 65.5t35 95.5t13.5 113.5q0 66 -20 114t-81 48q-41 0 -69.5 -29.5t-48 -72.5t-29.5 -91.5t-10 -87.5z" />
<glyph unicode="&#xbb;" horiz-adv-x="1402" d="M131 74q0 8 4 19t8 23.5t8.5 21.5t8.5 12q20 18 70.5 49.5t109.5 65.5t119.5 67t101.5 55q8 6 2 12q-37 20 -86 53t-97 68t-87 68t-55 53q-4 10 -3 35.5t5 38.5q4 10 16 10q12 -14 48 -38.5t83 -55.5t102.5 -63.5t108.5 -62.5t99 -53.5t75 -33.5q-2 -8 -9 -24.5 t-13 -20.5q-80 -31 -174.5 -76t-180.5 -90t-154.5 -85t-99.5 -61q-10 4 -10 13zM612 86q2 8 5.5 19.5t8.5 21.5t9 19.5t6 11.5q20 18 66.5 49t101.5 64.5t110.5 64.5t94.5 51q8 6 2 12q-35 18 -80 50t-89 66t-80 64.5t-52 49.5q-4 10 -2 35.5t6 35.5q2 4 6 7.5t8 5.5 q20 -20 84 -63.5t141.5 -89.5t152.5 -87t118 -55q-2 -8 -9.5 -24.5t-13.5 -20.5q-78 -31 -167 -73t-172 -85t-149.5 -81t-94.5 -58q-2 0 -6.5 3t-4.5 7z" />
<glyph unicode="&#xbc;" horiz-adv-x="1564" d="M139 463q0 8 2 16t3 15.5t3 9.5l89 12q31 6 45 23.5t18 48.5q10 45 21.5 112.5t25.5 153.5q16 92 24.5 157.5t10.5 84.5q0 31 -29 39l-86 8q-2 2 -1 9t4 15.5t5 14.5t5 8q27 2 61.5 8t70 13.5t67.5 16.5t50 17q4 0 9.5 -1t5.5 -3q-8 -35 -22.5 -117t-31.5 -192l-51 -338 q-4 -35 4.5 -51.5t30.5 -24.5l96 -14q2 -4 -2 -25.5t-8 -23.5q-35 0 -97.5 2t-117.5 2t-111.5 -3t-91.5 -3q-2 2 -2 10zM305 -66q2 4 47 64.5t115 156t159 216.5t181 246.5t181 246.5t159 215.5t114 152.5t46 60h9h21.5t22.5 -1t14 -3q2 -2 2 -6v-6q-6 -8 -51 -68.5 t-114.5 -155t-155.5 -213t-177.5 -242.5t-180.5 -245t-161.5 -219t-121.5 -164.5t-64 -83.5q0 -4 -6 -6t-8 0q-10 10 -20.5 28.5t-10.5 26.5zM850 231q0 4 5 24.5t9 25.5q27 31 68 75.5t88 96t96 104.5t91 98t73 78t43 43q2 2 15.5 4t26.5 4t25.5 3t16.5 1l-76 -460 q0 -8 6 -9l154 5q-4 -14 -13.5 -44t-11.5 -47h-141q-2 0 -6 -8l-37 -243q-27 0 -70 -4.5t-65 -8.5l45 256q2 6 -4 6h-338zM981 315l217 2q8 0 8 7l58 313h-4q-2 0 -3 2q-16 -16 -57 -61.5t-86 -96.5t-83 -96t-50 -59v-11z" />
<glyph unicode="&#xbd;" horiz-adv-x="1564" d="M127 463q0 8 2 16t3 15.5t3 9.5l88 12q31 6 45.5 23.5t18.5 48.5q10 45 21 112.5t26 153.5q16 92 24.5 157.5t10.5 84.5q0 31 -29 39l-86 8q-2 2 -1 9t4 15.5t5 14.5t4 8q27 2 61.5 8t70.5 13.5t68 16.5t50 17q4 0 9 -1t5 -3q-8 -35 -22 -117t-31 -192l-51 -338 q-4 -35 4 -51.5t31 -24.5l96 -14q2 -4 -2 -25.5t-8 -23.5q-35 0 -97.5 2t-117.5 2t-111.5 -3t-91.5 -3q-2 2 -2 10zM268 -66q2 4 47 64.5t115 156t159 216.5t181 246.5t181 246.5t159 215.5t114 152.5t46 60h9h21.5t22.5 -1t14 -3q2 -2 2 -6v-6q-6 -8 -51 -68.5t-114.5 -155 t-155.5 -213t-177 -242.5t-180.5 -245t-162 -219t-121.5 -164.5t-64 -83.5q0 -4 -6 -6t-8 0q-10 10 -20.5 28.5t-10.5 26.5zM900 20.5q1 18.5 3 22.5q39 29 71 52.5t62.5 48t63.5 53t76 71.5q78 76 114.5 139.5t36.5 133.5q0 51 -29.5 92t-95.5 41q-88 0 -184 -96 q-6 -2 -16.5 18t-8.5 25q18 25 48 54.5t67 54t79 40.5t87 16q86 0 141 -58t53 -144q0 -84 -45 -155t-137 -148q-33 -29 -57.5 -50.5t-45 -39t-39 -33t-38.5 -33.5q-8 -8 2 -10q18 -2 47 -3t62.5 -1h69.5h65q18 0 45.5 22.5t75.5 97.5q4 0 21 -10t19 -16q-6 -14 -18 -41 t-26.5 -56.5t-29 -54t-22.5 -35.5q-4 -6 -17.5 -15t-27.5 -9q-43 0 -95 1t-106.5 2t-105.5 2t-94 1h-37t-33 -2q-2 4 -1 22.5z" />
<glyph unicode="&#xbe;" horiz-adv-x="1564" d="M135 606q2 6 20.5 13.5t22.5 5.5q12 -33 29.5 -61.5t40.5 -45.5q47 -35 125 -35q33 0 64.5 9.5t55 30t37 52t13.5 76.5q0 70 -47 114t-127 44h-22.5t-31.5 -4q-2 2 1 11t7.5 20.5t9.5 19.5t7 10q111 23 153 64t42 100q0 51 -31 82t-82 31q-41 0 -82 -20.5t-84 -55.5 q-4 0 -13.5 18.5t-4.5 24.5q47 51 112.5 93t141.5 42q78 0 127 -48t47 -114q0 -70 -44 -113.5t-92 -72.5q-4 -4 -2 -6q57 -20 105.5 -66.5t48.5 -117.5q0 -68 -33 -121.5t-84 -91t-115.5 -58t-127.5 -20.5q-41 0 -79 8t-57 20q-16 6 -23 16.5t-13 31.5q-4 8 -6.5 24 t-4.5 33.5t-3 33t-1 23.5zM346 -66q2 4 47 64.5t115 156t159 216.5t181 246.5t181 246.5t158.5 215.5t114 152.5t46.5 60h9h21.5t22.5 -1t14 -3q2 -2 2 -6v-6q-6 -8 -51 -68.5t-114.5 -155t-155.5 -213t-177.5 -242.5t-180.5 -245t-161.5 -219t-121.5 -164.5t-64 -83.5 q0 -4 -6 -6t-8 0q-10 10 -20.5 28.5t-10.5 26.5zM870 231q0 4 5.5 24.5t9.5 25.5q27 31 67.5 75.5t87.5 96t96.5 104.5t91.5 98t72.5 78t42.5 43q2 2 15.5 4l27 4t25.5 3t16 1l-75 -460q0 -8 6 -9l153 5q-4 -14 -13 -44t-11 -47h-141q-2 0 -7 -8l-36 -243q-27 0 -70 -4.5 t-66 -8.5l45 256q2 6 -4 6h-338zM1001 315l218 2q8 0 8 7l57 313h-4q-2 0 -2 2q-16 -16 -57 -61.5t-86 -96.5t-83 -96t-51 -59v-11z" />
<glyph unicode="&#xbf;" horiz-adv-x="684" d="M-2 -147q0 51 19.5 85.5t35.5 53.5q20 20 52 45.5t67 51.5t68.5 49.5t56.5 41.5q31 20 33 53q2 12 -13.5 44t-46.5 65q-2 4 1 13.5t8 13.5q10 10 39.5 24.5t46.5 18.5q20 4 45 -2q41 -18 61.5 -54.5t15.5 -74.5q0 -20 -10 -36t-20 -26q-12 -12 -49 -39.5t-78 -58.5 t-81 -60.5t-59 -46.5q-25 -23 -42 -50t-17 -58t14.5 -63.5t44 -61.5t72.5 -51.5t100 -30.5q33 -6 66 -6q10 -4 16.5 -13.5t4.5 -17.5q-2 -16 -20.5 -45t-41.5 -49q-8 -6 -26.5 -13.5t-43.5 -7.5q-66 0 -125 26t-100 65q-51 47 -72.5 103t-21.5 112zM287 717q0 18 8 43.5 t31 46.5q39 31 86 31q16 0 35.5 -7.5t33.5 -23.5q20 -23 21 -64q0 -29 -9.5 -52t-31.5 -46q-37 -31 -82 -31q-41 0 -68 27q-16 16 -20 36.5t-4 39.5z" />
<glyph unicode="&#xc0;" horiz-adv-x="1226" d="M-84 23.5q0 23.5 6 27.5q55 8 91 16.5t63.5 27t52.5 52t59 93.5q35 61 80 143t93.5 172t95.5 181t88 170t71.5 141.5t47.5 95.5q18 35 31.5 67.5t19.5 53.5q12 -2 27.5 -3t31.5 -1t31.5 1t28.5 3q0 -18 5 -51t9 -60q4 -29 15 -97.5t26.5 -158.5t33 -191.5t34 -194.5 t30.5 -171t23 -121q10 -53 21 -83t30.5 -46t52.5 -23.5t88 -13.5q6 -6 4 -30.5t-10 -28.5q-33 0 -98.5 3t-134.5 3q-35 0 -74 -1t-75 -2t-64.5 -2t-42.5 -1q-4 6 -3 30.5t7 28.5q31 4 59.5 8.5t50.5 12.5q20 8 26.5 25.5t4.5 27.5q-4 33 -10 80t-14.5 97t-17.5 97.5 t-15 81.5q0 6 -4.5 9.5t-8.5 3.5q-23 2 -75 2h-117h-74h-42t-22.5 -1t-13.5 -1t-12 -5.5t-8 -9.5q-23 -41 -47.5 -89t-49 -95t-44 -88t-27.5 -66q-10 -25 -3 -45t42 -28q16 -4 44.5 -8.5t55.5 -8.5q4 -4 2 -28.5t-8 -30.5q-31 0 -95.5 3t-156.5 3q-86 0 -137 -3t-74 -3 q-4 6 -4 29.5zM475 600q0 -12 4 -14q14 -2 55 -3t109 -1h72t53 2q4 0 8 5t2 11q-8 55 -18 119.5t-20.5 126t-19.5 116t-15 87.5q-2 0 -5.5 -1t-5.5 -1q-18 -41 -48 -99.5t-61.5 -122t-61 -124t-48.5 -101.5zM527 1551.5q1 7.5 5 11.5q8 8 29 16t43.5 16.5t44 13.5t31.5 5 q10 -12 34.5 -48t50.5 -78t49.5 -81t33.5 -55q2 -4 -4 -10.5t-13.5 -12.5t-16.5 -10t-13 -4t-43 30.5t-86 70.5t-89.5 76t-52.5 48q-4 4 -3 11.5z" />
<glyph unicode="&#xc1;" horiz-adv-x="1226" d="M-84 23.5q0 23.5 6 27.5q55 8 91 16.5t63.5 27t52.5 52t59 93.5q35 61 80 143t93.5 172t95.5 181t88 170t71.5 141.5t47.5 95.5q18 35 31.5 67.5t19.5 53.5q12 -2 27.5 -3t31.5 -1t31.5 1t28.5 3q0 -18 5 -51t9 -60q4 -29 15 -97.5t26.5 -158.5t33 -191.5t34 -194.5 t30.5 -171t23 -121q10 -53 21 -83t30.5 -46t52.5 -23.5t88 -13.5q6 -6 4 -30.5t-10 -28.5q-33 0 -98.5 3t-134.5 3q-35 0 -74 -1t-75 -2t-64.5 -2t-42.5 -1q-4 6 -3 30.5t7 28.5q31 4 59.5 8.5t50.5 12.5q20 8 26.5 25.5t4.5 27.5q-4 33 -10 80t-14.5 97t-17.5 97.5 t-15 81.5q0 6 -4.5 9.5t-8.5 3.5q-23 2 -75 2h-117h-74h-42t-22.5 -1t-13.5 -1t-12 -5.5t-8 -9.5q-23 -41 -47.5 -89t-49 -95t-44 -88t-27.5 -66q-10 -25 -3 -45t42 -28q16 -4 44.5 -8.5t55.5 -8.5q4 -4 2 -28.5t-8 -30.5q-31 0 -95.5 3t-156.5 3q-86 0 -137 -3t-74 -3 q-4 6 -4 29.5zM475 600q0 -12 4 -14q14 -2 55 -3t109 -1h72t53 2q4 0 8 5t2 11q-8 55 -18 119.5t-20.5 126t-19.5 116t-15 87.5q-2 0 -5.5 -1t-5.5 -1q-18 -41 -48 -99.5t-61.5 -122t-61 -124t-48.5 -101.5zM705 1370q16 14 57 49t87 74t85 70.5t53 40.5q12 0 29.5 -8.5 t35 -20.5t32 -25.5t20.5 -21.5q4 -4 3 -12.5t-3 -12.5q-10 -8 -40 -23.5t-70 -36t-85 -42t-83 -38.5t-63.5 -28.5t-29.5 -11.5t-9 6t-10 14.5t-8.5 16.5t-0.5 10z" />
<glyph unicode="&#xc2;" horiz-adv-x="1226" d="M-84 23.5q0 23.5 6 27.5q55 8 91 16.5t63.5 27t52.5 52t59 93.5q35 61 80 143t93.5 172t95.5 181t88 170t71.5 141.5t47.5 95.5q18 35 31.5 67.5t19.5 53.5q12 -2 27.5 -3t31.5 -1t31.5 1t28.5 3q0 -18 5 -51t9 -60q4 -29 15 -97.5t26.5 -158.5t33 -191.5t34 -194.5 t30.5 -171t23 -121q10 -53 21 -83t30.5 -46t52.5 -23.5t88 -13.5q6 -6 4 -30.5t-10 -28.5q-33 0 -98.5 3t-134.5 3q-35 0 -74 -1t-75 -2t-64.5 -2t-42.5 -1q-4 6 -3 30.5t7 28.5q31 4 59.5 8.5t50.5 12.5q20 8 26.5 25.5t4.5 27.5q-4 33 -10 80t-14.5 97t-17.5 97.5 t-15 81.5q0 6 -4.5 9.5t-8.5 3.5q-23 2 -75 2h-117h-74h-42t-22.5 -1t-13.5 -1t-12 -5.5t-8 -9.5q-23 -41 -47.5 -89t-49 -95t-44 -88t-27.5 -66q-10 -25 -3 -45t42 -28q16 -4 44.5 -8.5t55.5 -8.5q4 -4 2 -28.5t-8 -30.5q-31 0 -95.5 3t-156.5 3q-86 0 -137 -3t-74 -3 q-4 6 -4 29.5zM475 600q0 -12 4 -14q14 -2 55 -3t109 -1h72t53 2q4 0 8 5t2 11q-8 55 -18 119.5t-20.5 126t-19.5 116t-15 87.5q-2 0 -5.5 -1t-5.5 -1q-18 -41 -48 -99.5t-61.5 -122t-61 -124t-48.5 -101.5zM502 1352q25 14 68.5 42.5t89 59.5t84.5 58.5t53 39.5q6 4 20 8.5 t23 4.5q8 -10 36.5 -40t62.5 -64t65.5 -64.5t50.5 -44.5q0 -10 -13.5 -28.5t-21.5 -18.5q-4 0 -34 13t-64.5 31.5t-67.5 36t-45 25.5q-12 4 -23 0q-16 -8 -57 -25.5t-85 -36t-79 -31.5t-41 -13q-8 0 -17 19t-5 28z" />
<glyph unicode="&#xc3;" horiz-adv-x="1226" d="M-84 23.5q0 23.5 6 27.5q55 8 91 16.5t63.5 27t52.5 52t59 93.5q35 61 80 143t93.5 172t95.5 181t88 170t71.5 141.5t47.5 95.5q18 35 31.5 67.5t19.5 53.5q12 -2 27.5 -3t31.5 -1t31.5 1t28.5 3q0 -18 5 -51t9 -60q4 -29 15 -97.5t26.5 -158.5t33 -191.5t34 -194.5 t30.5 -171t23 -121q10 -53 21 -83t30.5 -46t52.5 -23.5t88 -13.5q6 -6 4 -30.5t-10 -28.5q-33 0 -98.5 3t-134.5 3q-35 0 -74 -1t-75 -2t-64.5 -2t-42.5 -1q-4 6 -3 30.5t7 28.5q31 4 59.5 8.5t50.5 12.5q20 8 26.5 25.5t4.5 27.5q-4 33 -10 80t-14.5 97t-17.5 97.5 t-15 81.5q0 6 -4.5 9.5t-8.5 3.5q-23 2 -75 2h-117h-74h-42t-22.5 -1t-13.5 -1t-12 -5.5t-8 -9.5q-23 -41 -47.5 -89t-49 -95t-44 -88t-27.5 -66q-10 -25 -3 -45t42 -28q16 -4 44.5 -8.5t55.5 -8.5q4 -4 2 -28.5t-8 -30.5q-31 0 -95.5 3t-156.5 3q-86 0 -137 -3t-74 -3 q-4 6 -4 29.5zM475 600q0 -12 4 -14q14 -2 55 -3t109 -1h72t53 2q4 0 8 5t2 11q-8 55 -18 119.5t-20.5 126t-19.5 116t-15 87.5q-2 0 -5.5 -1t-5.5 -1q-18 -41 -48 -99.5t-61.5 -122t-61 -124t-48.5 -101.5zM497 1389.5q-1 9.5 3 11.5q10 12 35.5 32.5t56.5 39t61.5 33 t53.5 14.5q29 0 55 -7.5t65 -19.5q25 -8 52 -14t43 -6q20 0 58 9t91 56q2 2 5 -5t5 -17.5t3 -20.5t1 -12q-14 -18 -40.5 -41t-58.5 -41.5t-66.5 -30.5t-63.5 -12q-25 0 -55.5 9t-77.5 26q-16 4 -32.5 9t-39.5 5q-29 0 -64.5 -16.5t-76.5 -44.5q-2 -2 -5 6t-5 18t-3 19.5z " />
<glyph unicode="&#xc4;" horiz-adv-x="1226" d="M-84 23.5q0 23.5 6 27.5q55 8 91 16.5t63.5 27t52.5 52t59 93.5q35 61 80 143t93.5 172t95.5 181t88 170t71.5 141.5t47.5 95.5q18 35 31.5 67.5t19.5 53.5q12 -2 27.5 -3t31.5 -1t31.5 1t28.5 3q0 -18 5 -51t9 -60q4 -29 15 -97.5t26.5 -158.5t33 -191.5t34 -194.5 t30.5 -171t23 -121q10 -53 21 -83t30.5 -46t52.5 -23.5t88 -13.5q6 -6 4 -30.5t-10 -28.5q-33 0 -98.5 3t-134.5 3q-35 0 -74 -1t-75 -2t-64.5 -2t-42.5 -1q-4 6 -3 30.5t7 28.5q31 4 59.5 8.5t50.5 12.5q20 8 26.5 25.5t4.5 27.5q-4 33 -10 80t-14.5 97t-17.5 97.5 t-15 81.5q0 6 -4.5 9.5t-8.5 3.5q-23 2 -75 2h-117h-74h-42t-22.5 -1t-13.5 -1t-12 -5.5t-8 -9.5q-23 -41 -47.5 -89t-49 -95t-44 -88t-27.5 -66q-10 -25 -3 -45t42 -28q16 -4 44.5 -8.5t55.5 -8.5q4 -4 2 -28.5t-8 -30.5q-31 0 -95.5 3t-156.5 3q-86 0 -137 -3t-74 -3 q-4 6 -4 29.5zM475 600q0 -12 4 -14q14 -2 55 -3t109 -1h72t53 2q4 0 8 5t2 11q-8 55 -18 119.5t-20.5 126t-19.5 116t-15 87.5q-2 0 -5.5 -1t-5.5 -1q-18 -41 -48 -99.5t-61.5 -122t-61 -124t-48.5 -101.5zM532 1423q0 41 17 58q14 12 38.5 21t51.5 9q23 0 38 -7t19 -11 q6 -8 9.5 -28.5t-0.5 -32.5q-10 -55 -52 -82q-4 -2 -16 -4.5t-25.5 -3.5t-26 -1t-16.5 5q-37 20 -37 77zM877 1427q4 37 20 54q12 12 37.5 21t50.5 9q23 0 38 -6t19 -10q6 -10 8.5 -30.5t0.5 -32.5q-10 -59 -52 -84q-4 -2 -16 -3.5t-25.5 -2.5t-25.5 -1t-17 5q-39 18 -38 81 z" />
<glyph unicode="&#xc5;" horiz-adv-x="1226" d="M-84 23.5q0 23.5 6 27.5q55 8 91 16.5t63.5 27t52.5 52t59 93.5q35 61 80 143t93.5 172t95.5 181t88 170t71.5 141.5t47.5 95.5q18 35 31.5 67.5t19.5 53.5q12 -2 27.5 -3t31.5 -1t31.5 1t28.5 3q0 -18 5 -51t9 -60q4 -29 15 -97.5t26.5 -158.5t33 -191.5t34 -194.5 t30.5 -171t23 -121q10 -53 21 -83t30.5 -46t52.5 -23.5t88 -13.5q6 -6 4 -30.5t-10 -28.5q-33 0 -98.5 3t-134.5 3q-35 0 -74 -1t-75 -2t-64.5 -2t-42.5 -1q-4 6 -3 30.5t7 28.5q31 4 59.5 8.5t50.5 12.5q20 8 26.5 25.5t4.5 27.5q-4 33 -10 80t-14.5 97t-17.5 97.5 t-15 81.5q0 6 -4.5 9.5t-8.5 3.5q-23 2 -75 2h-117h-74h-42t-22.5 -1t-13.5 -1t-12 -5.5t-8 -9.5q-23 -41 -47.5 -89t-49 -95t-44 -88t-27.5 -66q-10 -25 -3 -45t42 -28q16 -4 44.5 -8.5t55.5 -8.5q4 -4 2 -28.5t-8 -30.5q-31 0 -95.5 3t-156.5 3q-86 0 -137 -3t-74 -3 q-4 6 -4 29.5zM475 600q0 -12 4 -14q14 -2 55 -3t109 -1h72t53 2q4 0 8 5t2 11q-8 55 -18 119.5t-20.5 126t-19.5 116t-15 87.5q-2 0 -5.5 -1t-5.5 -1q-18 -41 -48 -99.5t-61.5 -122t-61 -124t-48.5 -101.5zM639 1452q6 66 54 103.5t120 37.5t107.5 -41t31.5 -100 q-6 -70 -55 -109.5t-119 -39.5q-25 0 -50.5 8t-47 26.5t-33.5 47t-8 67.5zM707 1452q-2 -33 21.5 -54.5t64.5 -21.5q35 0 61.5 17.5t30.5 48.5q4 35 -15.5 56.5t-70.5 21.5q-86 0 -92 -68z" />
<glyph unicode="&#xc6;" horiz-adv-x="1679" d="M-122 24.5q3 22.5 7 28.5q53 8 90 16.5t67 26t60.5 50t71.5 90.5q84 115 179.5 250t185.5 264t165.5 239.5t120.5 177.5q0 12 -6 17q-18 2 -42.5 6t-48 7t-45.5 6t-34 5q0 12 3 32t10 28q16 0 55 -1t88 -3t101 -3t95 -1h420q59 0 123 2t96 6q4 -2 5.5 -7.5t3.5 -7.5 q-10 -23 -20.5 -58.5t-21 -76.5t-19.5 -83t-17 -77q-4 -2 -14.5 -4t-20.5 -2h-19.5t-11.5 4q4 37 2 82t-6 74q-4 39 -23.5 52.5t-66.5 17.5q-14 2 -58 2h-93.5h-92.5t-53 -2t-17 -10.5t-10 -16.5q-8 -49 -18 -118.5t-19.5 -141.5t-18.5 -135.5t-13 -102.5q4 -14 10 -14 h144.5t125.5 4q35 4 55.5 22.5t32.5 47.5q10 18 19.5 39.5t17.5 40.5q10 4 35 3t29 -9q-8 -29 -21.5 -79t-23.5 -116q-10 -57 -16.5 -108.5t-10.5 -86.5q-10 -6 -34.5 -6t-30.5 4q0 31 -2 50.5t-5 35.5q-4 23 -15 44.5t-44 23.5q-20 2 -53 3t-71 1h-75.5h-70.5q-8 0 -13 -14 q-4 -35 -10 -82t-12 -96.5t-11 -97.5t-7 -85q-6 -37 6 -60.5t26 -29.5q14 -4 52 -7t84.5 -4t92.5 -1h76q45 0 82 12t76 53q29 31 64.5 85.5t62.5 95.5q8 2 27.5 -9.5t23.5 -19.5q-6 -20 -18 -55t-28.5 -74t-34 -77t-33.5 -62q-14 -20 -35 -26.5t-70 -6.5q-43 0 -92 1 t-113.5 2t-149.5 1h-198q-96 0 -176 -3t-139 -3q-4 4 -2 28.5t6 30.5q43 4 87 9.5t73 13.5q37 10 53 34.5t27 77.5q2 18 7 55.5t13 85.5t16.5 104t16.5 116q0 6 -2 6q-12 2 -61.5 2h-104.5h-102.5h-55.5q-6 0 -15 -7t-14 -11q-25 -37 -65.5 -96.5t-80.5 -120t-72.5 -110.5 t-39.5 -69q-10 -29 -7 -46t44 -27q16 -4 40 -8.5t54 -8.5q2 -4 -2 -27.5t-8 -31.5q-35 0 -106.5 3t-149.5 3q-84 0 -138 -3t-79 -3q-4 8 -1 30.5zM578 657q0 -12 4 -14q14 0 50 -1t77 -1h78.5h56.5q16 0 16 16q10 66 22.5 147t24 154.5t18.5 130t7 70.5q-2 2 -7 3t-10 1 q-31 -47 -80 -118.5t-98 -145.5t-93 -139.5t-66 -102.5z" />
<glyph unicode="&#xc7;" horiz-adv-x="1269" d="M152 537q0 100 23.5 197t72.5 186.5t125 164t180 129.5q82 43 173 62.5t200 19.5q55 0 106 -5t103 -13q41 -8 78.5 -14.5t62.5 -10.5q-6 -25 -15.5 -61.5t-18.5 -78.5t-16 -84t-9 -75q-8 -10 -33 -11t-31 7q0 61 -5 101.5t-14.5 66t-25.5 42t-41 28.5q-37 18 -94.5 27.5 t-116.5 9.5q-117 0 -213 -50.5t-163.5 -138.5t-104.5 -206.5t-35 -256.5q2 -240 121 -376t336 -136q39 0 78.5 7.5t74.5 23.5q53 23 108.5 69t112.5 124q10 0 25.5 -17.5t13.5 -27.5q-18 -35 -43.5 -71t-55.5 -66.5t-59.5 -53t-54.5 -35.5q-45 -23 -106.5 -34t-132.5 -15 l-35 -47q-2 -4 -2 -9t4 -7q41 -31 70 -60q23 -23 31 -47t8 -47q0 -47 -27 -85t-63.5 -63.5t-75.5 -39t-64 -13.5q-37 0 -64.5 15.5t-39.5 38.5q-2 10 1 28.5t7 22.5q35 -16 63.5 -22.5t59.5 -6.5q35 0 61.5 16.5t26.5 49.5q0 29 -26.5 63.5t-108.5 67.5q2 4 2 10q0 10 2 12 q16 18 35 41q16 18 33.5 39t33.5 41q-133 2 -233.5 45t-169 118t-102 179.5t-33.5 231.5z" />
<glyph unicode="&#xc8;" horiz-adv-x="1114" d="M-24 23.5q2 23.5 10 29.5q47 4 77.5 8.5t59.5 12.5q37 8 54.5 31.5t29.5 78.5q4 23 17.5 92.5t28.5 164t31.5 198.5t32 196.5t24.5 161t11 86.5q4 49 -2 72t-41 33q-16 6 -49 11t-70 9q-6 6 0.5 30t10.5 28q14 0 43.5 -1t66.5 -2t79 -2t83 -1h379h61.5t64.5 1t59.5 4 t45.5 7q6 -6 7 -15q-8 -23 -16.5 -55.5t-16.5 -71t-16.5 -78.5t-14.5 -75q-4 -4 -13 -5t-20.5 -1t-20.5 1t-11 3q0 80 -11 131q-6 41 -25.5 56.5t-72.5 19.5q-20 2 -61 3t-86.5 1t-85 -1t-58.5 -3q-12 -4 -19 -14.5t-12 -20.5q-8 -43 -17 -98.5t-18.5 -116t-19.5 -121.5 t-18 -117q0 -12 8 -12h153.5t133.5 2q33 2 52 20.5t34 47.5q8 16 16 36.5t16 42.5q6 6 34 6.5t34 -8.5q-8 -29 -20.5 -86t-22.5 -106q-8 -47 -15.5 -103.5t-13.5 -99.5q-4 -4 -12 -5t-18.5 -1t-19.5 2t-11 4q0 23 -2 45.5t-6 42.5q-6 66 -58 72q-25 2 -60.5 3t-75.5 2t-80 1 h-72q-10 0 -15 -14q-8 -49 -17 -110.5t-18.5 -123t-16.5 -116t-11 -91.5q-4 -49 28 -59q29 -6 121 -7t207 -1q53 -2 90 14.5t66 46.5q29 33 59.5 75t63.5 99q6 2 27.5 -7t25.5 -17q-6 -25 -18.5 -57.5t-28 -68.5t-32.5 -70t-34 -60q-27 -39 -80 -39h-120.5t-128 2t-152.5 3 t-195 1q-104 0 -174.5 -3t-117.5 -3q-6 6 -4 29.5zM474 1570q1 7 5 11q8 8 28.5 16.5t43 16.5t44 13t32.5 5q10 -12 34.5 -48t50 -78t49 -81t34.5 -55q2 -4 -4.5 -10t-13.5 -12.5t-16 -10.5t-13 -4t-43 31t-86.5 71t-89.5 76t-52 48q-4 4 -3 11z" />
<glyph unicode="&#xc9;" horiz-adv-x="1114" d="M-24 23.5q2 23.5 10 29.5q47 4 77.5 8.5t59.5 12.5q37 8 54.5 31.5t29.5 78.5q4 23 17.5 92.5t28.5 164t31.5 198.5t32 196.5t24.5 161t11 86.5q4 49 -2 72t-41 33q-16 6 -49 11t-70 9q-6 6 0.5 30t10.5 28q14 0 43.5 -1t66.5 -2t79 -2t83 -1h379h61.5t64.5 1t59.5 4 t45.5 7q6 -6 7 -15q-8 -23 -16.5 -55.5t-16.5 -71t-16.5 -78.5t-14.5 -75q-4 -4 -13 -5t-20.5 -1t-20.5 1t-11 3q0 80 -11 131q-6 41 -25.5 56.5t-72.5 19.5q-20 2 -61 3t-86.5 1t-85 -1t-58.5 -3q-12 -4 -19 -14.5t-12 -20.5q-8 -43 -17 -98.5t-18.5 -116t-19.5 -121.5 t-18 -117q0 -12 8 -12h153.5t133.5 2q33 2 52 20.5t34 47.5q8 16 16 36.5t16 42.5q6 6 34 6.5t34 -8.5q-8 -29 -20.5 -86t-22.5 -106q-8 -47 -15.5 -103.5t-13.5 -99.5q-4 -4 -12 -5t-18.5 -1t-19.5 2t-11 4q0 23 -2 45.5t-6 42.5q-6 66 -58 72q-25 2 -60.5 3t-75.5 2t-80 1 h-72q-10 0 -15 -14q-8 -49 -17 -110.5t-18.5 -123t-16.5 -116t-11 -91.5q-4 -49 28 -59q29 -6 121 -7t207 -1q53 -2 90 14.5t66 46.5q29 33 59.5 75t63.5 99q6 2 27.5 -7t25.5 -17q-6 -25 -18.5 -57.5t-28 -68.5t-32.5 -70t-34 -60q-27 -39 -80 -39h-120.5t-128 2t-152.5 3 t-195 1q-104 0 -174.5 -3t-117.5 -3q-6 6 -4 29.5zM612 1382q16 14 57.5 49t87.5 74t85 71t53 40q12 0 29.5 -8.5t35 -20.5t32 -25.5t20.5 -21.5q4 -4 3 -12t-3 -12q-10 -8 -40 -23.5t-70 -36t-85 -42t-83 -39t-63.5 -29t-29.5 -11.5t-9 6.5t-10.5 14.5t-8.5 16t-1 10z" />
<glyph unicode="&#xca;" horiz-adv-x="1114" d="M-24 23.5q2 23.5 10 29.5q47 4 77.5 8.5t59.5 12.5q37 8 54.5 31.5t29.5 78.5q4 23 17.5 92.5t28.5 164t31.5 198.5t32 196.5t24.5 161t11 86.5q4 49 -2 72t-41 33q-16 6 -49 11t-70 9q-6 6 0.5 30t10.5 28q14 0 43.5 -1t66.5 -2t79 -2t83 -1h379h61.5t64.5 1t59.5 4 t45.5 7q6 -6 7 -15q-8 -23 -16.5 -55.5t-16.5 -71t-16.5 -78.5t-14.5 -75q-4 -4 -13 -5t-20.5 -1t-20.5 1t-11 3q0 80 -11 131q-6 41 -25.5 56.5t-72.5 19.5q-20 2 -61 3t-86.5 1t-85 -1t-58.5 -3q-12 -4 -19 -14.5t-12 -20.5q-8 -43 -17 -98.5t-18.5 -116t-19.5 -121.5 t-18 -117q0 -12 8 -12h153.5t133.5 2q33 2 52 20.5t34 47.5q8 16 16 36.5t16 42.5q6 6 34 6.5t34 -8.5q-8 -29 -20.5 -86t-22.5 -106q-8 -47 -15.5 -103.5t-13.5 -99.5q-4 -4 -12 -5t-18.5 -1t-19.5 2t-11 4q0 23 -2 45.5t-6 42.5q-6 66 -58 72q-25 2 -60.5 3t-75.5 2t-80 1 h-72q-10 0 -15 -14q-8 -49 -17 -110.5t-18.5 -123t-16.5 -116t-11 -91.5q-4 -49 28 -59q29 -6 121 -7t207 -1q53 -2 90 14.5t66 46.5q29 33 59.5 75t63.5 99q6 2 27.5 -7t25.5 -17q-6 -25 -18.5 -57.5t-28 -68.5t-32.5 -70t-34 -60q-27 -39 -80 -39h-120.5t-128 2t-152.5 3 t-195 1q-104 0 -174.5 -3t-117.5 -3q-6 6 -4 29.5zM434 1389q25 14 69 42.5t89 59.5t84 58.5t53 39.5q6 4 20.5 8.5t22.5 4.5q8 -10 37 -40t62.5 -64t65.5 -64.5t50 -44.5q0 -10 -13 -29t-22 -19q-4 0 -33.5 13.5t-64.5 32t-67.5 36t-45.5 25.5q-12 4 -22 0 q-16 -8 -57 -25.5t-85.5 -36t-79 -32t-40.5 -13.5q-8 0 -17.5 19.5t-5.5 28.5z" />
<glyph unicode="&#xcb;" horiz-adv-x="1114" d="M-24 23.5q2 23.5 10 29.5q47 4 77.5 8.5t59.5 12.5q37 8 54.5 31.5t29.5 78.5q4 23 17.5 92.5t28.5 164t31.5 198.5t32 196.5t24.5 161t11 86.5q4 49 -2 72t-41 33q-16 6 -49 11t-70 9q-6 6 0.5 30t10.5 28q14 0 43.5 -1t66.5 -2t79 -2t83 -1h379h61.5t64.5 1t59.5 4 t45.5 7q6 -6 7 -15q-8 -23 -16.5 -55.5t-16.5 -71t-16.5 -78.5t-14.5 -75q-4 -4 -13 -5t-20.5 -1t-20.5 1t-11 3q0 80 -11 131q-6 41 -25.5 56.5t-72.5 19.5q-20 2 -61 3t-86.5 1t-85 -1t-58.5 -3q-12 -4 -19 -14.5t-12 -20.5q-8 -43 -17 -98.5t-18.5 -116t-19.5 -121.5 t-18 -117q0 -12 8 -12h153.5t133.5 2q33 2 52 20.5t34 47.5q8 16 16 36.5t16 42.5q6 6 34 6.5t34 -8.5q-8 -29 -20.5 -86t-22.5 -106q-8 -47 -15.5 -103.5t-13.5 -99.5q-4 -4 -12 -5t-18.5 -1t-19.5 2t-11 4q0 23 -2 45.5t-6 42.5q-6 66 -58 72q-25 2 -60.5 3t-75.5 2t-80 1 h-72q-10 0 -15 -14q-8 -49 -17 -110.5t-18.5 -123t-16.5 -116t-11 -91.5q-4 -49 28 -59q29 -6 121 -7t207 -1q53 -2 90 14.5t66 46.5q29 33 59.5 75t63.5 99q6 2 27.5 -7t25.5 -17q-6 -25 -18.5 -57.5t-28 -68.5t-32.5 -70t-34 -60q-27 -39 -80 -39h-120.5t-128 2t-152.5 3 t-195 1q-104 0 -174.5 -3t-117.5 -3q-6 6 -4 29.5zM455 1456q0 41 16 57q14 12 38.5 21.5t51.5 9.5q23 0 38 -7t19 -11q6 -8 9.5 -28.5t-0.5 -33.5q-10 -55 -52 -82q-4 -2 -16 -4t-25.5 -3t-25.5 -1t-16 4q-37 20 -37 78zM799 1460q4 37 20 53q12 12 37.5 21.5t50.5 9.5 q23 0 38.5 -6t19.5 -10q6 -10 8 -30.5t0 -33.5q-10 -59 -51 -84q-4 -2 -16.5 -3t-26 -2t-25.5 -1t-16 4q-39 18 -39 82z" />
<glyph unicode="&#xcc;" horiz-adv-x="651" d="M-6 22.5q2 22.5 8 28.5q31 4 60.5 8t52.5 9q43 10 59 30.5t25 55.5q6 23 15 71.5t21.5 119.5t26.5 160t31 189q23 133 37 233.5t24 172.5q4 43 -3 61.5t-38 28.5q-20 6 -48.5 9t-69.5 9q-4 8 -2 30t10 28q29 0 101.5 -3t152.5 -3q78 0 149.5 3t106.5 3q6 -8 3 -30t-9 -28 q-27 -4 -54.5 -7t-48.5 -7q-37 -10 -52 -28.5t-28 -69.5q-14 -66 -33.5 -187t-41.5 -256q-12 -76 -23.5 -148.5t-21 -136t-16.5 -111.5t-9 -75q-4 -45 2 -73.5t49 -38.5q25 -6 53.5 -10.5t63.5 -8.5q4 -8 1 -29.5t-11 -27.5q-39 0 -116 3t-149 3q-41 0 -83 -1t-79.5 -2 t-67.5 -2t-46 -1q-4 6 -2 28.5zM237 1574q1 7 5 11q8 8 28.5 16.5t43 16.5t44 13t31.5 5q10 -12 35 -48t50.5 -78t49 -80.5t33.5 -55.5q2 -4 -4 -10t-13.5 -12t-16.5 -10.5t-13 -4.5t-43 31t-86 71t-89 76t-52 48q-4 4 -3 11z" />
<glyph unicode="&#xcd;" horiz-adv-x="651" d="M-6 22.5q2 22.5 8 28.5q31 4 60.5 8t52.5 9q43 10 59 30.5t25 55.5q6 23 15 71.5t21.5 119.5t26.5 160t31 189q23 133 37 233.5t24 172.5q4 43 -3 61.5t-38 28.5q-20 6 -48.5 9t-69.5 9q-4 8 -2 30t10 28q29 0 101.5 -3t152.5 -3q78 0 149.5 3t106.5 3q6 -8 3 -30t-9 -28 q-27 -4 -54.5 -7t-48.5 -7q-37 -10 -52 -28.5t-28 -69.5q-14 -66 -33.5 -187t-41.5 -256q-12 -76 -23.5 -148.5t-21 -136t-16.5 -111.5t-9 -75q-4 -45 2 -73.5t49 -38.5q25 -6 53.5 -10.5t63.5 -8.5q4 -8 1 -29.5t-11 -27.5q-39 0 -116 3t-149 3q-41 0 -83 -1t-79.5 -2 t-67.5 -2t-46 -1q-4 6 -2 28.5zM399 1378q16 14 57.5 49t87.5 74t85 71t53 40q12 0 29.5 -8.5t35 -20.5t32 -25.5t20.5 -21.5q4 -4 3 -12t-3 -13q-10 -8 -40 -23t-70 -35.5t-85 -42t-83 -39t-63.5 -29t-29.5 -11.5t-9 6t-10.5 14.5t-8.5 16.5t-1 10z" />
<glyph unicode="&#xce;" horiz-adv-x="651" d="M-6 22.5q2 22.5 8 28.5q31 4 60.5 8t52.5 9q43 10 59 30.5t25 55.5q6 23 15 71.5t21.5 119.5t26.5 160t31 189q23 133 37 233.5t24 172.5q4 43 -3 61.5t-38 28.5q-20 6 -48.5 9t-69.5 9q-4 8 -2 30t10 28q29 0 101.5 -3t152.5 -3q78 0 149.5 3t106.5 3q6 -8 3 -30t-9 -28 q-27 -4 -54.5 -7t-48.5 -7q-37 -10 -52 -28.5t-28 -69.5q-14 -66 -33.5 -187t-41.5 -256q-12 -76 -23.5 -148.5t-21 -136t-16.5 -111.5t-9 -75q-4 -45 2 -73.5t49 -38.5q25 -6 53.5 -10.5t63.5 -8.5q4 -8 1 -29.5t-11 -27.5q-39 0 -116 3t-149 3q-41 0 -83 -1t-79.5 -2 t-67.5 -2t-46 -1q-4 6 -2 28.5zM203 1393q25 14 68.5 42.5t89 59.5t84.5 58.5t53 39.5q6 4 20 8.5t23 4.5q8 -10 36.5 -40t62.5 -64t65.5 -64.5t50.5 -44.5q0 -10 -13.5 -28.5t-21.5 -18.5q-4 0 -34 13t-64.5 31.5t-67.5 36t-45 25.5q-12 4 -23 0q-16 -8 -57 -25.5t-85 -36 t-79 -31.5t-41 -13q-8 0 -17 19t-5 28z" />
<glyph unicode="&#xcf;" horiz-adv-x="651" d="M-6 22.5q2 22.5 8 28.5q31 4 60.5 8t52.5 9q43 10 59 30.5t25 55.5q6 23 15 71.5t21.5 119.5t26.5 160t31 189q23 133 37 233.5t24 172.5q4 43 -3 61.5t-38 28.5q-20 6 -48.5 9t-69.5 9q-4 8 -2 30t10 28q29 0 101.5 -3t152.5 -3q78 0 149.5 3t106.5 3q6 -8 3 -30t-9 -28 q-27 -4 -54.5 -7t-48.5 -7q-37 -10 -52 -28.5t-28 -69.5q-14 -66 -33.5 -187t-41.5 -256q-12 -76 -23.5 -148.5t-21 -136t-16.5 -111.5t-9 -75q-4 -45 2 -73.5t49 -38.5q25 -6 53.5 -10.5t63.5 -8.5q4 -8 1 -29.5t-11 -27.5q-39 0 -116 3t-149 3q-41 0 -83 -1t-79.5 -2 t-67.5 -2t-46 -1q-4 6 -2 28.5zM236 1456q0 41 16 57q14 12 38.5 21.5t51.5 9.5q23 0 38 -7t19 -11q6 -8 9.5 -28.5t-0.5 -33.5q-10 -55 -52 -82q-4 -2 -16 -4t-25.5 -3t-26 -1t-16.5 4q-37 20 -36 78zM580 1460q4 37 20 53q12 12 37.5 21.5t50.5 9.5q23 0 38 -6t19 -10 q6 -10 8.5 -30.5t0.5 -33.5q-10 -59 -52 -84q-4 -2 -16 -3t-25.5 -2t-25.5 -1t-17 4q-39 18 -38 82z" />
<glyph unicode="&#xd0;" horiz-adv-x="1413" d="M6 23.5q2 23.5 10 29.5q39 4 71 7t54 10q33 6 52.5 27.5t29.5 74.5q16 76 37 193.5t43 250.5q-47 0 -97 -2t-79 -2q4 18 12 45t15 31h159q23 129 39.5 238.5t20.5 160.5q6 47 0 69t-47 32q-20 4 -53 9t-66 9q-4 10 0 33t12 27q12 0 46 -1t73 -2t75 -2t52 -1q57 0 96 1 t70 2t60.5 1h68.5q143 0 260 -43t188 -119q61 -70 101.5 -167t40.5 -228q2 -178 -71 -322.5t-196 -232.5q-104 -88 -236 -129t-321 -41q-59 0 -127.5 2t-139.5 5t-135.5 4t-113.5 1q-6 6 -4 29.5zM395 160q-4 -23 4.5 -40.5t22.5 -25.5q23 -14 79 -25.5t142 -11.5 q78 0 157 21.5t154 85.5q100 82 153.5 219t53.5 295q0 135 -39 241.5t-125 172.5q-59 47 -138.5 73.5t-188.5 26.5q-27 0 -46.5 -2t-39.5 -6q-23 -8 -29 -41q-16 -72 -35.5 -189.5t-44.5 -265.5h103.5h106.5t87 1t45 1q0 -4 -2 -14t-5 -22.5t-7 -22.5t-6 -17h-58.5t-88.5 1 t-98 1h-87q-10 -66 -21.5 -131t-20.5 -124.5t-16.5 -111.5t-11.5 -89z" />
<glyph unicode="&#xd1;" horiz-adv-x="1443" d="M-23.5 22.5q3.5 22.5 9.5 28.5q33 4 66.5 10.5t56.5 12.5q41 10 60 37.5t32 81.5q10 41 28.5 141t41 227t45 263.5t40.5 246.5q2 23 -4 51.5t-30 44.5q-23 14 -57.5 23.5t-100.5 17.5q-4 10 2 32t10 26q59 0 133 -3t133 -3h36t30 2q6 -16 16.5 -40t40.5 -73 q39 -68 89.5 -153t103.5 -177t107.5 -184t101.5 -172t83.5 -141.5t55.5 -92.5q4 0 8 4q8 55 20.5 130t26 157t25.5 165t23.5 158t19.5 135t10 95q4 45 -6 73t-57 40q-29 6 -60 11t-65 11q-4 8 -1 33t11 27q35 0 107.5 -4t152.5 -4q27 0 58.5 1t61 3t53.5 3t36 1q4 -6 1 -31 t-9 -29q-25 -4 -46.5 -8t-39.5 -10q-43 -12 -60.5 -41t-27.5 -70q-12 -59 -30 -153.5t-36 -206t-37.5 -230t-38.5 -225.5q-10 -68 -21 -145.5t-20 -132.5q-8 0 -27.5 2t-41.5 2q-29 0 -44.5 -2t-21.5 -2q-23 41 -63.5 117.5t-95 172t-114 202t-117.5 208.5t-110.5 190.5 l-87.5 147.5q-4 2 -6 0t-4 -2q-12 -76 -30.5 -198t-37 -247.5t-34 -232t-21.5 -151.5q-6 -59 7.5 -83t52.5 -34q23 -6 56.5 -13.5t68.5 -11.5q4 -6 -0.5 -29.5t-8.5 -29.5q-53 0 -113.5 4t-138.5 4q-70 0 -142.5 -4t-113.5 -4q-4 8 -0.5 30.5zM593 1402q-1 9 3 11 q10 12 35.5 32.5t56.5 39t61.5 33t53.5 14.5q29 0 55.5 -7t65.5 -20q25 -8 51.5 -14t42.5 -6q20 0 58 9t91 56q2 2 5.5 -5t5.5 -17t3 -20.5t1 -12.5q-14 -18 -41 -40.5t-58.5 -41t-66.5 -31t-64 -12.5q-25 0 -55.5 9.5t-77.5 25.5q-16 4 -32.5 9t-38.5 5q-29 0 -65 -16.5 t-77 -44.5q-2 -2 -5 6t-5 18.5t-3 19.5z" />
<glyph unicode="&#xd2;" horiz-adv-x="1415" d="M141 485q0 152 52.5 301.5t154.5 260.5q98 117 234.5 184t289.5 67q119 0 207 -40.5t146.5 -111.5t87 -166t28.5 -202q2 -150 -43 -296t-139 -259q-111 -135 -243.5 -197.5t-290.5 -62.5q-125 0 -216.5 40t-150.5 109.5t-88 166t-29 206.5zM326 502q0 -102 22.5 -186.5 t68.5 -143.5t114.5 -93t160.5 -34q125 0 217 70q70 51 118 126.5t77 164t41 180.5t12 176q-2 94 -21.5 177t-62.5 144.5t-110.5 97.5t-161.5 36q-115 0 -204 -63.5t-149.5 -165t-91 -229.5t-30.5 -257zM640 1600.5q1 7.5 5 11.5q8 8 28.5 16t43 16.5t44 13.5t32.5 5 q10 -12 34.5 -48t50 -78t49 -81t34.5 -55q2 -4 -4.5 -10.5t-13.5 -12.5t-16 -10t-14 -4q-4 0 -43 30.5t-86 70.5t-89 76t-52 48q-4 4 -3 11.5z" />
<glyph unicode="&#xd3;" horiz-adv-x="1415" d="M141 485q0 152 52.5 301.5t154.5 260.5q98 117 234.5 184t289.5 67q119 0 207 -40.5t146.5 -111.5t87 -166t28.5 -202q2 -150 -43 -296t-139 -259q-111 -135 -243.5 -197.5t-290.5 -62.5q-125 0 -216.5 40t-150.5 109.5t-88 166t-29 206.5zM326 502q0 -102 22.5 -186.5 t68.5 -143.5t114.5 -93t160.5 -34q125 0 217 70q70 51 118 126.5t77 164t41 180.5t12 176q-2 94 -21.5 177t-62.5 144.5t-110.5 97.5t-161.5 36q-115 0 -204 -63.5t-149.5 -165t-91 -229.5t-30.5 -257zM756 1421q16 14 57 49t87 74t85 71t53 40q12 0 29.5 -8.5t35 -20.5 t32 -25.5t20.5 -21.5q4 -4 3 -12t-3 -13q-10 -8 -40 -23t-69.5 -35.5t-85 -42t-83 -39t-63.5 -29t-30 -11.5t-9 6t-10 14.5t-8 16.5t-1 10z" />
<glyph unicode="&#xd4;" horiz-adv-x="1415" d="M141 485q0 152 52.5 301.5t154.5 260.5q98 117 234.5 184t289.5 67q119 0 207 -40.5t146.5 -111.5t87 -166t28.5 -202q2 -150 -43 -296t-139 -259q-111 -135 -243.5 -197.5t-290.5 -62.5q-125 0 -216.5 40t-150.5 109.5t-88 166t-29 206.5zM326 502q0 -102 22.5 -186.5 t68.5 -143.5t114.5 -93t160.5 -34q125 0 217 70q70 51 118 126.5t77 164t41 180.5t12 176q-2 94 -21.5 177t-62.5 144.5t-110.5 97.5t-161.5 36q-115 0 -204 -63.5t-149.5 -165t-91 -229.5t-30.5 -257zM588 1407q25 14 68.5 43t89 59.5t84.5 58.5t53 40q6 4 20.5 8t22.5 4 q8 -10 36.5 -40t62.5 -63.5t65.5 -64.5t50.5 -45q0 -10 -13.5 -28.5t-21.5 -18.5q-4 0 -34 13t-64.5 31.5t-67.5 36t-45 25.5q-12 4 -23 0q-16 -8 -57 -25.5t-85 -36t-79 -31.5t-41 -13q-8 0 -17 19.5t-5 27.5z" />
<glyph unicode="&#xd5;" horiz-adv-x="1415" d="M141 485q0 152 52.5 301.5t154.5 260.5q98 117 234.5 184t289.5 67q119 0 207 -40.5t146.5 -111.5t87 -166t28.5 -202q2 -150 -43 -296t-139 -259q-111 -135 -243.5 -197.5t-290.5 -62.5q-125 0 -216.5 40t-150.5 109.5t-88 166t-29 206.5zM326 502q0 -102 22.5 -186.5 t68.5 -143.5t114.5 -93t160.5 -34q125 0 217 70q70 51 118 126.5t77 164t41 180.5t12 176q-2 94 -21.5 177t-62.5 144.5t-110.5 97.5t-161.5 36q-115 0 -204 -63.5t-149.5 -165t-91 -229.5t-30.5 -257zM593 1434.5q-1 9.5 3 11.5q10 12 35.5 32.5t56.5 39t61.5 33t53.5 14.5 q29 0 55.5 -7.5t65.5 -19.5q25 -8 51.5 -14t42.5 -6q20 0 58 9t91 56q2 2 5.5 -5t5.5 -17.5t3 -20.5t1 -12q-14 -18 -41 -41t-58.5 -41.5t-66.5 -30.5t-64 -12q-25 0 -55.5 9t-77.5 26q-16 4 -32.5 9t-38.5 5q-29 0 -65 -16.5t-77 -44.5q-2 -2 -5 6t-5 18t-3 19.5z" />
<glyph unicode="&#xd6;" horiz-adv-x="1415" d="M141 485q0 152 52.5 301.5t154.5 260.5q98 117 234.5 184t289.5 67q119 0 207 -40.5t146.5 -111.5t87 -166t28.5 -202q2 -150 -43 -296t-139 -259q-111 -135 -243.5 -197.5t-290.5 -62.5q-125 0 -216.5 40t-150.5 109.5t-88 166t-29 206.5zM326 502q0 -102 22.5 -186.5 t68.5 -143.5t114.5 -93t160.5 -34q125 0 217 70q70 51 118 126.5t77 164t41 180.5t12 176q-2 94 -21.5 177t-62.5 144.5t-110.5 97.5t-161.5 36q-115 0 -204 -63.5t-149.5 -165t-91 -229.5t-30.5 -257zM618 1470q0 41 17 58q14 12 38.5 21.5t51.5 9.5q23 0 38 -7.5t19 -11.5 q6 -8 9.5 -28.5t-0.5 -32.5q-10 -55 -52 -82q-4 -2 -16 -4t-25.5 -3t-26 -1t-16.5 4q-37 20 -37 77zM963 1475q4 37 20 53q12 12 37.5 21.5t50.5 9.5q23 0 38 -6.5t19 -10.5q6 -10 8.5 -30.5t0.5 -32.5q-10 -59 -52 -84q-4 -2 -16 -3t-25.5 -2t-25.5 -1t-17 4q-39 18 -38 82 z" />
<glyph unicode="&#xd7;" horiz-adv-x="1120" d="M102 53q10 8 37 36t63 66t76.5 82t77.5 83.5t67 72.5t42 47q6 12 0 19q-49 55 -106.5 119.5t-107.5 122t-88 101.5t-48 56q0 6 8 20.5t18.5 30t20.5 28.5t14 17q4 2 10.5 3t10.5 -3q4 -10 48 -63t102.5 -121t117.5 -134.5t94 -100.5q45 51 99.5 112.5t102.5 116.5t83 97 t43 52q4 8 46 15.5t81 9.5q4 -2 6 -10t-2 -13q-43 -59 -93.5 -117.5t-101.5 -115.5t-99 -110.5t-91 -100.5q-2 -2 -2 -10q0 -4 2 -6q29 -33 81 -90.5t108.5 -117t107.5 -111.5t80 -75q0 -4 -2 -12t-7 -10q-6 -2 -28.5 -1t-48 4t-49 8t-33.5 13q-14 12 -48 46t-76 78 t-87 91.5t-82 88.5q-2 2 -6 3t-8 -5q-49 -53 -96.5 -105.5t-87.5 -94.5t-67.5 -69.5t-35.5 -34.5q-10 -6 -27.5 -11t-38 -9t-40 -6t-31.5 -2q-4 2 -7.5 9t-1.5 11z" />
<glyph unicode="&#xd8;" horiz-adv-x="1415" d="M141 479q0 152 51.5 304.5t155.5 265.5q98 117 235.5 183t284.5 66q86 0 157 -22.5t124 -63.5v2l72 97q4 4 26.5 2t36.5 -6v-2q2 -4 2 -5v-6q-4 -6 -28.5 -41.5t-57.5 -83.5q139 -147 143 -387q0 -154 -41.5 -301t-136.5 -260q-111 -135 -248 -196.5t-290 -61.5 q-78 0 -145.5 18.5t-123.5 51.5q-29 -35 -50 -64.5t-32 -40.5q-4 -4 -28.5 4.5t-34.5 12.5q-2 0 -2 6v6l92 119q-78 68 -120 171t-42 232zM322 489q0 -31 3 -66.5t12 -74.5t23.5 -75.5t38.5 -69.5q70 94 158 210.5t177 238.5t175 238t154 208q-14 20 -36.5 40.5t-53.5 38 t-73 29t-97 11.5q-115 0 -205 -67t-151.5 -171.5t-93 -233.5t-31.5 -256zM440 141q12 -12 32 -27.5t50.5 -30.5t72.5 -25.5t95 -10.5q123 0 213 66q70 51 120 126.5t81 162.5t45 180.5t14 181.5q0 80 -17.5 152.5t-41.5 119.5h-2q-70 -96 -158 -215t-178 -240.5t-175 -236.5 t-151 -203z" />
<glyph unicode="&#xd9;" horiz-adv-x="1402" d="M170 1206q-4 10 0 33t12 27q12 0 40 -1t64 -2t75.5 -2t76.5 -1q76 0 146.5 3t103.5 3q6 -6 4 -27.5t-8 -32.5q-33 -4 -54.5 -8t-41.5 -8q-37 -8 -59.5 -30.5t-32.5 -76.5q-10 -63 -24.5 -148t-28 -170t-24.5 -160t-16 -116q-10 -74 -7 -127t14 -86q16 -82 93 -141 t214 -59q74 0 134 17.5t108.5 60.5t83 116.5t59.5 186.5q27 117 52.5 274.5t47.5 317.5q10 74 -5 102.5t-64 38.5q-23 4 -47.5 8t-57.5 8q-6 10 -2 34t10 28q25 0 90.5 -4t155.5 -4q86 0 140.5 4t80.5 4q2 -4 3 -12.5t0 -18.5t-4 -19.5t-5 -11.5q-57 -6 -94 -16 q-47 -14 -66.5 -48t-31.5 -95q-16 -82 -35 -187.5t-38.5 -211t-40 -197t-40.5 -146.5q-37 -104 -93.5 -170.5t-123 -104.5t-139 -52.5t-142.5 -14.5q-135 0 -226 40t-140 106q-35 49 -50.5 109.5t-15.5 129.5q0 27 7.5 85.5t18.5 132t24.5 155.5t25.5 155.5t20.5 131 t12.5 84.5q4 39 -5.5 61.5t-39.5 32.5q-16 6 -51 11t-64 9zM630 1570q1 7 5 11q8 8 28.5 16.5t43 16.5t44 13t31.5 5q10 -12 35 -48t50.5 -78t49 -81t33.5 -55q2 -4 -4 -10t-13 -12.5t-16.5 -10.5t-13.5 -4t-43 31t-86 71t-89 76t-52 48q-4 4 -3 11z" />
<glyph unicode="&#xda;" horiz-adv-x="1402" d="M170 1206q-4 10 0 33t12 27q12 0 40 -1t64 -2t75.5 -2t76.5 -1q76 0 146.5 3t103.5 3q6 -6 4 -27.5t-8 -32.5q-33 -4 -54.5 -8t-41.5 -8q-37 -8 -59.5 -30.5t-32.5 -76.5q-10 -63 -24.5 -148t-28 -170t-24.5 -160t-16 -116q-10 -74 -7 -127t14 -86q16 -82 93 -141 t214 -59q74 0 134 17.5t108.5 60.5t83 116.5t59.5 186.5q27 117 52.5 274.5t47.5 317.5q10 74 -5 102.5t-64 38.5q-23 4 -47.5 8t-57.5 8q-6 10 -2 34t10 28q25 0 90.5 -4t155.5 -4q86 0 140.5 4t80.5 4q2 -4 3 -12.5t0 -18.5t-4 -19.5t-5 -11.5q-57 -6 -94 -16 q-47 -14 -66.5 -48t-31.5 -95q-16 -82 -35 -187.5t-38.5 -211t-40 -197t-40.5 -146.5q-37 -104 -93.5 -170.5t-123 -104.5t-139 -52.5t-142.5 -14.5q-135 0 -226 40t-140 106q-35 49 -50.5 109.5t-15.5 129.5q0 27 7.5 85.5t18.5 132t24.5 155.5t25.5 155.5t20.5 131 t12.5 84.5q4 39 -5.5 61.5t-39.5 32.5q-16 6 -51 11t-64 9zM784 1391q16 14 57.5 49t87.5 73.5t85 70.5t53 40q12 0 29.5 -8t35 -20.5t32 -26t20.5 -21.5q4 -4 3 -12t-3 -12q-10 -8 -40 -23.5t-70 -36t-85 -42t-83 -39t-63.5 -29t-29.5 -11.5t-9 6.5t-10.5 14.5t-8.5 16.5 t-1 10.5z" />
<glyph unicode="&#xdb;" horiz-adv-x="1402" d="M170 1206q-4 10 0 33t12 27q12 0 40 -1t64 -2t75.5 -2t76.5 -1q76 0 146.5 3t103.5 3q6 -6 4 -27.5t-8 -32.5q-33 -4 -54.5 -8t-41.5 -8q-37 -8 -59.5 -30.5t-32.5 -76.5q-10 -63 -24.5 -148t-28 -170t-24.5 -160t-16 -116q-10 -74 -7 -127t14 -86q16 -82 93 -141 t214 -59q74 0 134 17.5t108.5 60.5t83 116.5t59.5 186.5q27 117 52.5 274.5t47.5 317.5q10 74 -5 102.5t-64 38.5q-23 4 -47.5 8t-57.5 8q-6 10 -2 34t10 28q25 0 90.5 -4t155.5 -4q86 0 140.5 4t80.5 4q2 -4 3 -12.5t0 -18.5t-4 -19.5t-5 -11.5q-57 -6 -94 -16 q-47 -14 -66.5 -48t-31.5 -95q-16 -82 -35 -187.5t-38.5 -211t-40 -197t-40.5 -146.5q-37 -104 -93.5 -170.5t-123 -104.5t-139 -52.5t-142.5 -14.5q-135 0 -226 40t-140 106q-35 49 -50.5 109.5t-15.5 129.5q0 27 7.5 85.5t18.5 132t24.5 155.5t25.5 155.5t20.5 131 t12.5 84.5q4 39 -5.5 61.5t-39.5 32.5q-16 6 -51 11t-64 9zM596 1407q25 14 69 43t89 59.5t84 58.5t53 40q6 4 20.5 8t22.5 4q8 -10 36.5 -40t62.5 -63.5t65.5 -64.5t50.5 -45q0 -10 -13.5 -28.5t-21.5 -18.5q-4 0 -33.5 13t-64.5 31.5t-68 36t-45 25.5q-12 4 -22 0 q-16 -8 -57.5 -25.5t-85.5 -36t-78.5 -31.5t-41.5 -13q-8 0 -17 19.5t-5 27.5z" />
<glyph unicode="&#xdc;" horiz-adv-x="1402" d="M170 1206q-4 10 0 33t12 27q12 0 40 -1t64 -2t75.5 -2t76.5 -1q76 0 146.5 3t103.5 3q6 -6 4 -27.5t-8 -32.5q-33 -4 -54.5 -8t-41.5 -8q-37 -8 -59.5 -30.5t-32.5 -76.5q-10 -63 -24.5 -148t-28 -170t-24.5 -160t-16 -116q-10 -74 -7 -127t14 -86q16 -82 93 -141 t214 -59q74 0 134 17.5t108.5 60.5t83 116.5t59.5 186.5q27 117 52.5 274.5t47.5 317.5q10 74 -5 102.5t-64 38.5q-23 4 -47.5 8t-57.5 8q-6 10 -2 34t10 28q25 0 90.5 -4t155.5 -4q86 0 140.5 4t80.5 4q2 -4 3 -12.5t0 -18.5t-4 -19.5t-5 -11.5q-57 -6 -94 -16 q-47 -14 -66.5 -48t-31.5 -95q-16 -82 -35 -187.5t-38.5 -211t-40 -197t-40.5 -146.5q-37 -104 -93.5 -170.5t-123 -104.5t-139 -52.5t-142.5 -14.5q-135 0 -226 40t-140 106q-35 49 -50.5 109.5t-15.5 129.5q0 27 7.5 85.5t18.5 132t24.5 155.5t25.5 155.5t20.5 131 t12.5 84.5q4 39 -5.5 61.5t-39.5 32.5q-16 6 -51 11t-64 9zM633 1464q0 41 16 58q14 12 38.5 21t51.5 9q23 0 38.5 -7t19.5 -11q6 -8 9 -28.5t-1 -32.5q-10 -55 -51 -82q-4 -2 -16.5 -4.5t-26 -3.5t-25.5 -1t-16 4q-37 20 -37 78zM977 1468q4 37 20 54q12 12 37.5 21t50.5 9 q23 0 38.5 -6t19.5 -10q6 -10 8 -30.5t0 -32.5q-10 -59 -51 -84q-4 -2 -16.5 -3.5t-26 -2.5t-25.5 -1t-16 4q-39 18 -39 82z" />
<glyph unicode="&#xdd;" horiz-adv-x="1087" d="M93 1240q3 24 11 28q29 0 81.5 -4t138.5 -4q82 0 153.5 2t89.5 4q6 -4 3 -29t-7 -31q-20 -4 -45.5 -8t-36.5 -8q-39 -12 -26 -60q12 -41 35.5 -108.5t48 -139t47 -133t32.5 -87.5q2 -4 5.5 -4.5t7.5 4.5q33 43 80 109.5t94 134t86 126t55 86.5q14 25 12 43.5t-36 28.5 q-20 6 -42 10t-51 8q-4 10 0.5 33t12.5 27q43 -2 100 -5t105 -3q76 0 129 2t94 6q4 -8 3 -31t-9 -29q-18 -4 -43 -8t-39 -8q-27 -6 -47.5 -15.5t-40 -24.5t-40 -37.5t-44.5 -53.5q-41 -51 -89.5 -115.5t-94.5 -129t-88 -124t-68 -100.5q-10 -14 -19.5 -34.5t-11.5 -33.5 q-14 -74 -27.5 -157.5t-23.5 -161.5q-8 -63 1 -93t52 -40q23 -6 58.5 -10.5t62.5 -8.5q4 -8 0 -30.5t-12 -28.5q-33 0 -111 3t-168 3q-41 0 -82 -1t-79 -2t-68.5 -2t-46.5 -1q-4 4 -1 29.5t9 29.5q37 4 69.5 9.5t57.5 9.5q41 10 57 34.5t29 77.5q16 82 30.5 169t24.5 151 q4 23 2 47t-6 41q-8 33 -25.5 87t-40 116.5t-46 127t-44.5 117.5q-18 45 -31.5 74t-27.5 44.5t-30.5 22.5t-39.5 13q-23 4 -39 7t-49 7q-4 8 -1 32zM639 1384q16 14 57 49t87 74t85 71t54 40q12 0 29.5 -8t35 -20.5t31.5 -26t20 -21.5q4 -4 3 -12t-3 -12q-10 -8 -39.5 -23.5 t-69.5 -36t-85 -42t-83 -39t-63.5 -29t-29.5 -11.5t-9.5 6.5t-10.5 14.5t-8 16t-1 10z" />
<glyph unicode="&#xde;" horiz-adv-x="1089" d="M3 24.5q3 24.5 7 28.5q33 4 62.5 8.5t48.5 8.5q18 6 31.5 13t22.5 19.5t17.5 33t14.5 52.5q6 29 17.5 95.5t25.5 151.5t30.5 181.5t31 185.5t25.5 162.5t15 112.5q6 53 0 80t-47 37q-33 8 -92 14q-4 6 -2 30t10 28q25 0 80 -2t150 -4q70 0 133 3t102 3q4 -6 1 -26.5 t-9 -31.5q-33 -4 -51.5 -7t-38.5 -7q-16 -4 -27.5 -10t-18.5 -17.5t-11.5 -27t-10.5 -39.5l-16 -99q4 -8 8 -8q49 2 83 2h81q84 0 156.5 -20.5t121.5 -67.5q35 -35 59.5 -91t24.5 -128q0 -70 -19.5 -126t-51 -100t-74.5 -77t-88 -55q-55 -29 -123 -40t-127 -11q-47 0 -92 5 t-74 13l-18 -129q-6 -47 5 -67.5t48 -30.5q23 -4 50.5 -8.5t62.5 -8.5q2 -2 1 -11t-2 -18.5t-4.5 -18.5t-5.5 -11q-20 0 -51 1t-65.5 2t-70.5 2t-65 1q-35 0 -75.5 -1t-79.5 -2t-70 -2t-45 -1q-4 6 -1 30.5zM399 367q23 -4 59 -10.5t101 -6.5q143 0 223 87t80 237 q0 117 -70.5 185.5t-209.5 68.5q-14 0 -41 -1t-37 -7q-4 -2 -11.5 -10.5t-9.5 -18.5q-4 -27 -13 -81t-20.5 -125t-24.5 -153.5t-26 -164.5z" />
<glyph unicode="&#xdf;" horiz-adv-x="954" d="M-293 -432q0 10 3 26.5l6 33t8.5 31.5t9.5 24q12 12 24 10q41 -57 88.5 -79t83.5 -22q33 0 58.5 15.5t45 52.5t36 98.5t32.5 153.5q35 217 68 425t55 365q2 4 -1 10.5t-9 6.5q-37 0 -68 2q-27 2 -48 3t-23 1q-8 4 -4 14q8 20 31.5 43t39.5 29q4 0 18.5 1t31.5 1h43 q8 0 12 10q35 190 106.5 307t171.5 189q63 47 124 64.5t108 17.5q39 0 74.5 -14.5t63.5 -43t44 -70.5t16 -97q0 -53 -23.5 -102.5t-72.5 -110.5q-41 -51 -74.5 -88t-60.5 -72q-20 -27 -30.5 -44.5t-12.5 -39.5q0 -12 5 -27.5t18.5 -36t35 -49t52.5 -71.5q39 -53 61.5 -100.5 t22.5 -104.5q0 -55 -23 -106.5t-58.5 -95.5t-80.5 -78t-92 -52q-70 -29 -136 -29q-41 0 -66.5 9.5t-43.5 31.5q-8 12 -12.5 29.5t-6.5 37t-1 38t5 28.5q2 6 12.5 13.5t14.5 7.5q78 -96 191 -96q63 0 110 39.5t49 128.5q2 43 -17.5 91t-72.5 117q-41 53 -67.5 91t-40.5 61 q-12 23 -11.5 58.5t19.5 54.5q55 59 104 112t86 104.5t58.5 100.5t21.5 102q0 74 -38 126.5t-115 52.5q-55 0 -97.5 -34t-75 -96.5t-56 -150.5t-42.5 -197q-29 -166 -57.5 -374.5t-69.5 -438.5q-25 -143 -77 -245.5t-114.5 -167t-128 -94t-116.5 -29.5q-63 0 -94 23.5 t-31 64.5z" />
<glyph unicode="&#xe0;" horiz-adv-x="921" d="M80 174q0 133 49 263t139 222q25 25 66 57t93 58.5t113.5 45t127.5 18.5q47 0 97 -5.5t85 -13.5q-18 -41 -29.5 -71.5t-19.5 -57.5q-12 -49 -26.5 -121.5t-27 -145.5t-21.5 -136.5t-11 -96.5t4 -45t16 -12q16 0 46 19.5t77 70.5q2 -2 4 -2l4 -4q2 -10 0 -33.5t-6 -29.5 q-29 -41 -64.5 -75t-70.5 -58.5t-66.5 -39t-52.5 -14.5q-33 0 -43 42t0 118q6 37 11.5 75t15.5 91q2 4 -1 4t-5 -2q-47 -68 -101.5 -127t-107.5 -103.5t-101.5 -71t-85.5 -26.5q-31 0 -52 21.5t-33.5 52.5t-17.5 66.5t-5 66.5zM236 264q0 -78 17 -109.5t46 -31.5 q51 0 127 70.5t147 185.5q37 63 62 160q6 27 13 55.5t14.5 55t12.5 46t9 27.5q-16 8 -56 14t-77 6q-78 0 -135.5 -40.5t-102.5 -122.5q-43 -78 -60 -164t-17 -152zM440 1257q0 14 11 21q8 2 30.5 4t47 2t46 -2t27.5 -4q4 -16 12.5 -58t16.5 -93.5t16 -102.5t15 -84 q-2 -4 -9.5 -8t-16.5 -7t-18.5 -4t-11.5 1q-12 23 -36.5 71.5t-51 102t-49.5 99.5t-29 62z" />
<glyph unicode="&#xe1;" horiz-adv-x="921" d="M80 174q0 133 49 263t139 222q25 25 66 57t93 58.5t113.5 45t127.5 18.5q47 0 97 -5.5t85 -13.5q-18 -41 -29.5 -71.5t-19.5 -57.5q-12 -49 -26.5 -121.5t-27 -145.5t-21.5 -136.5t-11 -96.5t4 -45t16 -12q16 0 46 19.5t77 70.5q2 -2 4 -2l4 -4q2 -10 0 -33.5t-6 -29.5 q-29 -41 -64.5 -75t-70.5 -58.5t-66.5 -39t-52.5 -14.5q-33 0 -43 42t0 118q6 37 11.5 75t15.5 91q2 4 -1 4t-5 -2q-47 -68 -101.5 -127t-107.5 -103.5t-101.5 -71t-85.5 -26.5q-31 0 -52 21.5t-33.5 52.5t-17.5 66.5t-5 66.5zM236 264q0 -78 17 -109.5t46 -31.5 q51 0 127 70.5t147 185.5q37 63 62 160q6 27 13 55.5t14.5 55t12.5 46t9 27.5q-16 8 -56 14t-77 6q-78 0 -135.5 -40.5t-102.5 -122.5q-43 -78 -60 -164t-17 -152zM528 952q27 39 55.5 81t55.5 80t48.5 69.5t35.5 50.5q8 4 31.5 8t50 7t50.5 4t30 -1q4 -4 7 -15t1 -15 q-16 -20 -58 -62.5t-91.5 -89.5t-96.5 -90t-72 -64q-4 0 -11 4.5t-15 10.5t-14.5 12t-6.5 10z" />
<glyph unicode="&#xe2;" horiz-adv-x="921" d="M80 174q0 133 49 263t139 222q25 25 66 57t93 58.5t113.5 45t127.5 18.5q47 0 97 -5.5t85 -13.5q-18 -41 -29.5 -71.5t-19.5 -57.5q-12 -49 -26.5 -121.5t-27 -145.5t-21.5 -136.5t-11 -96.5t4 -45t16 -12q16 0 46 19.5t77 70.5q2 -2 4 -2l4 -4q2 -10 0 -33.5t-6 -29.5 q-29 -41 -64.5 -75t-70.5 -58.5t-66.5 -39t-52.5 -14.5q-33 0 -43 42t0 118q6 37 11.5 75t15.5 91q2 4 -1 4t-5 -2q-47 -68 -101.5 -127t-107.5 -103.5t-101.5 -71t-85.5 -26.5q-31 0 -52 21.5t-33.5 52.5t-17.5 66.5t-5 66.5zM236 264q0 -78 17 -109.5t46 -31.5 q51 0 127 70.5t147 185.5q37 63 62 160q6 27 13 55.5t14.5 55t12.5 46t9 27.5q-16 8 -56 14t-77 6q-78 0 -135.5 -40.5t-102.5 -122.5q-43 -78 -60 -164t-17 -152zM393 934q18 20 50 62t67 89.5t66.5 92.5t50.5 73q2 2 11 5.5t19.5 6.5t19.5 5t13 2q6 -25 21.5 -71t34 -96 t36 -94t27.5 -63q-4 -4 -14.5 -10t-24.5 -10t-27.5 -7.5t-21.5 -3.5q-6 0 -17.5 21.5t-24.5 51.5t-26.5 61.5t-21.5 54.5q-4 6 -10 0q-16 -23 -37 -49.5t-41.5 -50t-35.5 -41t-22 -21.5q-14 -10 -41.5 -17t-42.5 -5q-8 4 -8 14z" />
<glyph unicode="&#xe3;" horiz-adv-x="921" d="M80 174q0 133 49 263t139 222q25 25 66 57t93 58.5t113.5 45t127.5 18.5q47 0 97 -5.5t85 -13.5q-18 -41 -29.5 -71.5t-19.5 -57.5q-12 -49 -26.5 -121.5t-27 -145.5t-21.5 -136.5t-11 -96.5t4 -45t16 -12q16 0 46 19.5t77 70.5q2 -2 4 -2l4 -4q2 -10 0 -33.5t-6 -29.5 q-29 -41 -64.5 -75t-70.5 -58.5t-66.5 -39t-52.5 -14.5q-33 0 -43 42t0 118q6 37 11.5 75t15.5 91q2 4 -1 4t-5 -2q-47 -68 -101.5 -127t-107.5 -103.5t-101.5 -71t-85.5 -26.5q-31 0 -52 21.5t-33.5 52.5t-17.5 66.5t-5 66.5zM236 264q0 -78 17 -109.5t46 -31.5 q51 0 127 70.5t147 185.5q37 63 62 160q6 27 13 55.5t14.5 55t12.5 46t9 27.5q-16 8 -56 14t-77 6q-78 0 -135.5 -40.5t-102.5 -122.5q-43 -78 -60 -164t-17 -152zM336 1027q0 9 2 11q10 12 35.5 32t54.5 38t58.5 31.5t50.5 13.5q25 0 50 -8t60 -19q25 -10 49.5 -15t40.5 -5 q18 0 50 8t83 51q2 2 5.5 -5t5.5 -16t3 -19.5t-1 -12.5q-14 -18 -39 -39.5t-54.5 -39t-60.5 -29t-57 -11.5q-23 0 -50.5 8.5t-68.5 22.5q-16 6 -35.5 11t-38.5 5q-53 0 -133 -57q-2 -2 -5 6t-4 18.5t-1 19.5z" />
<glyph unicode="&#xe4;" horiz-adv-x="921" d="M80 174q0 133 49 263t139 222q25 25 66 57t93 58.5t113.5 45t127.5 18.5q47 0 97 -5.5t85 -13.5q-18 -41 -29.5 -71.5t-19.5 -57.5q-12 -49 -26.5 -121.5t-27 -145.5t-21.5 -136.5t-11 -96.5t4 -45t16 -12q16 0 46 19.5t77 70.5q2 -2 4 -2l4 -4q2 -10 0 -33.5t-6 -29.5 q-29 -41 -64.5 -75t-70.5 -58.5t-66.5 -39t-52.5 -14.5q-33 0 -43 42t0 118q6 37 11.5 75t15.5 91q2 4 -1 4t-5 -2q-47 -68 -101.5 -127t-107.5 -103.5t-101.5 -71t-85.5 -26.5q-31 0 -52 21.5t-33.5 52.5t-17.5 66.5t-5 66.5zM236 264q0 -78 17 -109.5t46 -31.5 q51 0 127 70.5t147 185.5q37 63 62 160q6 27 13 55.5t14.5 55t12.5 46t9 27.5q-16 8 -56 14t-77 6q-78 0 -135.5 -40.5t-102.5 -122.5q-43 -78 -60 -164t-17 -152zM371 1098q0 12 5 30.5t11 26.5q14 16 41.5 25.5t54.5 9.5q20 0 32.5 -6t16.5 -10q6 -10 9.5 -27t1.5 -29 q-4 -29 -17.5 -51.5t-36.5 -34.5q-4 -2 -15 -4t-25.5 -4t-26.5 -2t-16 4q-31 18 -35 72zM674 1102q2 12 7 29.5t13 25.5q16 16 41.5 24.5t52.5 8.5q23 0 34.5 -6t15.5 -10q6 -8 8 -24.5t0 -29.5q-4 -29 -16.5 -52.5t-34.5 -35.5q-4 -2 -16.5 -4t-27 -4t-26.5 -2t-14 4 q-33 16 -37 76z" />
<glyph unicode="&#xe5;" horiz-adv-x="921" d="M80 174q0 133 49 263t139 222q25 25 66 57t93 58.5t113.5 45t127.5 18.5q47 0 97 -5.5t85 -13.5q-18 -41 -29.5 -71.5t-19.5 -57.5q-12 -49 -26.5 -121.5t-27 -145.5t-21.5 -136.5t-11 -96.5t4 -45t16 -12q16 0 46 19.5t77 70.5q2 -2 4 -2l4 -4q2 -10 0 -33.5t-6 -29.5 q-29 -41 -64.5 -75t-70.5 -58.5t-66.5 -39t-52.5 -14.5q-33 0 -43 42t0 118q6 37 11.5 75t15.5 91q2 4 -1 4t-5 -2q-47 -68 -101.5 -127t-107.5 -103.5t-101.5 -71t-85.5 -26.5q-31 0 -52 21.5t-33.5 52.5t-17.5 66.5t-5 66.5zM236 264q0 -78 17 -109.5t46 -31.5 q51 0 127 70.5t147 185.5q37 63 62 160q6 27 13 55.5t14.5 55t12.5 46t9 27.5q-16 8 -56 14t-77 6q-78 0 -135.5 -40.5t-102.5 -122.5q-43 -78 -60 -164t-17 -152zM473 1090q4 72 53 115.5t121 43.5q70 0 103.5 -48t27.5 -109q-6 -76 -57 -116t-115 -40q-23 0 -47 8 t-44.5 26.5t-33 47.5t-8.5 72zM532 1096q-4 -37 23 -61.5t68 -24.5t66.5 21.5t29.5 53.5q4 37 -17.5 63t-72.5 26q-41 0 -67.5 -22t-29.5 -56z" />
<glyph unicode="&#xe6;" horiz-adv-x="1114" d="M70 164q0 111 48 232.5t140 219.5q25 27 67 59t90 59.5t99 47t96 19.5q35 0 61.5 -17.5t41.5 -40.5q63 45 126.5 70t108.5 25q27 0 53.5 -11.5t47 -33t33 -53t12.5 -70.5q-2 -29 -42 -67t-98 -85q-29 -23 -65.5 -50.5t-77.5 -57t-83 -59t-79 -56.5q-8 -8 -8 -19 q4 -86 41 -134t111 -48q47 0 106 29t141 110q6 0 11 -10q2 -10 -1 -30.5t-8 -28.5q-35 -45 -79.5 -81t-93 -61.5t-96.5 -40t-87 -14.5q-49 0 -83 18.5t-55.5 49.5t-33.5 70.5t-16 82.5q-51 -47 -100.5 -88t-92.5 -69.5t-77.5 -46t-53.5 -17.5q-29 0 -48.5 16.5t-31.5 44 t-18 63.5t-6 73zM227 252q0 -125 66 -125q27 0 71 26.5t130 102.5q0 47 9 104.5t29.5 117t53 115.5t78.5 103q-10 6 -38 12.5t-65 6.5q-78 0 -140.5 -42t-109.5 -114q-45 -72 -64.5 -156.5t-19.5 -150.5zM641 371q0 -4 2 -7.5t6 -1.5q31 20 68 48t72.5 58t67.5 56.5t50 44.5 q16 16 27.5 39t11.5 45q0 47 -24.5 73t-63.5 26q-31 0 -66.5 -26t-67.5 -75t-54.5 -119.5t-28.5 -160.5z" />
<glyph unicode="&#xe7;" horiz-adv-x="690" d="M84 242q0 63 12.5 131.5t39 135t68.5 126t101 102.5q66 49 135.5 77t110.5 28q53 0 86 -14.5t43 -30.5q4 -6 5 -18.5t-1 -16.5q-4 -10 -12 -26.5t-20.5 -32t-25 -27.5t-20.5 -19q-14 -4 -24 0q-72 80 -150 80q-41 0 -77 -34.5t-62.5 -93t-41.5 -132.5t-15 -153 q0 -98 30.5 -161t110.5 -63q47 0 111.5 31t146.5 125l5 -5t3 -7q2 -10 -2 -34t-10 -30q-45 -61 -98.5 -104t-106.5 -68l-76 -86q-2 -4 -2 -9t4 -7q16 -12 30.5 -21.5t29.5 -25.5q23 -23 31 -45.5t8 -44.5q0 -45 -26 -81t-60.5 -61.5t-70.5 -39t-58 -13.5q-35 0 -62 17.5 t-37 39.5q-2 8 1 24.5t7 20.5q31 -16 57.5 -22t55.5 -6q35 0 57.5 16.5t22.5 46.5q0 29 -22.5 61.5t-100.5 63.5q0 4 2 10q0 8 4 13l111 116q-31 -6 -56 -6q-57 0 -95 25.5t-60 71.5q-18 35 -27.5 85t-9.5 91z" />
<glyph unicode="&#xe8;" horiz-adv-x="708" d="M82 252q0 55 10 118.5t31.5 125t55.5 117t79 96.5q31 27 70 51t78.5 42.5t76.5 29t66 10.5q53 0 88 -37t39 -94q2 -76 -51.5 -133.5t-147.5 -106.5q-63 -35 -123.5 -56.5t-107.5 -37.5q-12 -4 -13 -19q-4 -20 -4 -41q0 -96 35 -155.5t115 -59.5q59 0 126.5 32t143.5 112 q2 0 6 -4t4 -9q0 -10 -5 -29.5t-9 -29.5q-72 -96 -175 -150.5t-194 -54.5q-55 0 -92 23.5t-59.5 63.5t-32.5 90.5t-10 105.5zM246 463q-4 -10 6 -10q47 10 103.5 29.5t103.5 47.5q35 23 55.5 54.5t20.5 77.5q0 35 -20.5 61.5t-61.5 26.5q-29 0 -61 -17.5t-60.5 -52.5 t-51 -89t-34.5 -128zM319 1243q0 14 11 21q8 2 30.5 4t47 2t46 -2t27.5 -4q4 -16 12.5 -58.5t16.5 -93.5t16.5 -102.5t14.5 -83.5q-2 -4 -9.5 -8.5t-16.5 -7.5t-18.5 -4t-11.5 1q-12 23 -36.5 72t-51 102.5t-49.5 99.5t-29 62z" />
<glyph unicode="&#xe9;" horiz-adv-x="708" d="M82 252q0 55 10 118.5t31.5 125t55.5 117t79 96.5q31 27 70 51t78.5 42.5t76.5 29t66 10.5q53 0 88 -37t39 -94q2 -76 -51.5 -133.5t-147.5 -106.5q-63 -35 -123.5 -56.5t-107.5 -37.5q-12 -4 -13 -19q-4 -20 -4 -41q0 -96 35 -155.5t115 -59.5q59 0 126.5 32t143.5 112 q2 0 6 -4t4 -9q0 -10 -5 -29.5t-9 -29.5q-72 -96 -175 -150.5t-194 -54.5q-55 0 -92 23.5t-59.5 63.5t-32.5 90.5t-10 105.5zM246 463q-4 -10 6 -10q47 10 103.5 29.5t103.5 47.5q35 23 55.5 54.5t20.5 77.5q0 35 -20.5 61.5t-61.5 26.5q-29 0 -61 -17.5t-60.5 -52.5 t-51 -89t-34.5 -128zM391 950q27 39 55.5 81t55 80t48 69.5t36.5 50.5q8 4 31.5 8t50 7t50.5 4t30 -1q4 -4 7 -15t1 -15q-16 -20 -58.5 -62.5t-91.5 -89.5t-96 -90t-72 -64q-4 0 -11 4.5t-15.5 10.5t-14.5 12t-6 10z" />
<glyph unicode="&#xea;" horiz-adv-x="708" d="M82 252q0 55 10 118.5t31.5 125t55.5 117t79 96.5q31 27 70 51t78.5 42.5t76.5 29t66 10.5q53 0 88 -37t39 -94q2 -76 -51.5 -133.5t-147.5 -106.5q-63 -35 -123.5 -56.5t-107.5 -37.5q-12 -4 -13 -19q-4 -20 -4 -41q0 -96 35 -155.5t115 -59.5q59 0 126.5 32t143.5 112 q2 0 6 -4t4 -9q0 -10 -5 -29.5t-9 -29.5q-72 -96 -175 -150.5t-194 -54.5q-55 0 -92 23.5t-59.5 63.5t-32.5 90.5t-10 105.5zM246 463q-4 -10 6 -10q47 10 103.5 29.5t103.5 47.5q35 23 55.5 54.5t20.5 77.5q0 35 -20.5 61.5t-61.5 26.5q-29 0 -61 -17.5t-60.5 -52.5 t-51 -89t-34.5 -128zM279 924q18 20 49.5 62t66.5 89t67 92t50 74q2 2 11 5t19.5 6t19.5 5.5t13 2.5q6 -25 21.5 -71t34 -96.5t36 -94.5t27.5 -62q-4 -4 -14 -10t-24.5 -10.5t-28 -7.5t-21.5 -3q-6 0 -17 21.5t-24.5 51.5t-27 61.5t-21.5 54.5q-4 6 -10 0 q-16 -23 -36.5 -49.5t-41 -50t-36 -41t-21.5 -21.5q-14 -10 -42 -17.5t-42 -5.5q-8 4 -8 15z" />
<glyph unicode="&#xeb;" horiz-adv-x="708" d="M82 252q0 55 10 118.5t31.5 125t55.5 117t79 96.5q31 27 70 51t78.5 42.5t76.5 29t66 10.5q53 0 88 -37t39 -94q2 -76 -51.5 -133.5t-147.5 -106.5q-63 -35 -123.5 -56.5t-107.5 -37.5q-12 -4 -13 -19q-4 -20 -4 -41q0 -96 35 -155.5t115 -59.5q59 0 126.5 32t143.5 112 q2 0 6 -4t4 -9q0 -10 -5 -29.5t-9 -29.5q-72 -96 -175 -150.5t-194 -54.5q-55 0 -92 23.5t-59.5 63.5t-32.5 90.5t-10 105.5zM246 463q-4 -10 6 -10q47 10 103.5 29.5t103.5 47.5q35 23 55.5 54.5t20.5 77.5q0 35 -20.5 61.5t-61.5 26.5q-29 0 -61 -17.5t-60.5 -52.5 t-51 -89t-34.5 -128zM281 1094q0 12 5 30.5t11 26.5q14 16 41.5 25.5t54.5 9.5q20 0 32.5 -6t16.5 -11q6 -10 9.5 -26.5t1.5 -28.5q-4 -29 -17.5 -51.5t-36.5 -34.5q-4 -2 -15 -4t-25.5 -4t-27 -2t-16.5 4q-31 18 -34 72zM584 1098q2 12 7 29.5t13 25.5q16 16 41.5 24.5 t52.5 8.5q23 0 34 -6t16 -11q6 -8 8 -24.5t0 -28.5q-4 -29 -16.5 -52.5t-34.5 -35.5q-4 -2 -16.5 -4t-27 -4t-26.5 -2t-14 4q-33 16 -37 76z" />
<glyph unicode="&#xec;" horiz-adv-x="481" d="M92 621q-4 10 0 29.5t8 23.5q31 31 69 61.5t74 54t66.5 38t48.5 14.5q43 0 13 -144q-8 -41 -23.5 -113.5t-32 -149.5t-31 -146.5t-18.5 -106.5q-6 -53 21 -53q20 0 50 21.5t75 68.5q0 -2 2 -2l4 -4q2 -8 0 -29.5t-6 -29.5q-37 -49 -76 -84t-74 -57.5t-63.5 -34 t-44.5 -11.5q-33 0 -44.5 44t11.5 149q23 119 48.5 242.5t47.5 228.5q10 45 -8 45q-31 0 -111 -62q-2 0 -4 2q-2 0 -2 5zM158 1241q0 14 10 21q8 2 30.5 4t47 2t46 -2t27.5 -4q4 -16 12.5 -58.5t16.5 -93.5t16.5 -102.5t14.5 -83.5q-2 -4 -9.5 -8.5t-16.5 -7.5t-18 -4t-11 1 q-12 23 -37 72t-51.5 102.5t-49 99.5t-28.5 62z" />
<glyph unicode="&#xed;" horiz-adv-x="481" d="M92 621q-4 10 0 29.5t8 23.5q31 31 69 61.5t74 54t66.5 38t48.5 14.5q43 0 13 -144q-8 -41 -23.5 -113.5t-32 -149.5t-31 -146.5t-18.5 -106.5q-6 -53 21 -53q20 0 50 21.5t75 68.5q0 -2 2 -2l4 -4q2 -8 0 -29.5t-6 -29.5q-37 -49 -76 -84t-74 -57.5t-63.5 -34 t-44.5 -11.5q-33 0 -44.5 44t11.5 149q23 119 48.5 242.5t47.5 228.5q10 45 -8 45q-31 0 -111 -62q-2 0 -4 2q-2 0 -2 5zM244 950q27 39 55.5 81t55 80t48 69.5t35.5 50.5q8 4 32 8t50.5 7t50 4t29.5 -1q4 -4 7 -15t1 -15q-16 -20 -58 -62.5t-91 -89.5t-96.5 -90t-71.5 -64 q-4 0 -11.5 4.5t-15.5 10.5t-14 12t-6 10z" />
<glyph unicode="&#xee;" horiz-adv-x="481" d="M92 621q-4 10 0 29.5t8 23.5q31 31 69 61.5t74 54t66.5 38t48.5 14.5q43 0 13 -144q-8 -41 -23.5 -113.5t-32 -149.5t-31 -146.5t-18.5 -106.5q-6 -53 21 -53q20 0 50 21.5t75 68.5q0 -2 2 -2l4 -4q2 -8 0 -29.5t-6 -29.5q-37 -49 -76 -84t-74 -57.5t-63.5 -34 t-44.5 -11.5q-33 0 -44.5 44t11.5 149q23 119 48.5 242.5t47.5 228.5q10 45 -8 45q-31 0 -111 -62q-2 0 -4 2q-2 0 -2 5zM115 924q18 20 50 62t66.5 89t66.5 92t50 74q2 2 11.5 5t19.5 6t19.5 5.5t13.5 2.5q6 -25 21.5 -71t33.5 -96.5t35.5 -94.5t27.5 -62q-4 -4 -14 -10 t-24.5 -10.5t-27.5 -7.5t-22 -3q-6 0 -17 21.5t-24.5 51.5t-27 61.5t-21.5 54.5q-4 6 -10 0q-16 -23 -36.5 -49.5t-41 -50t-36 -41t-21.5 -21.5q-14 -10 -42 -17.5t-42 -5.5q-8 4 -8 15z" />
<glyph unicode="&#xef;" horiz-adv-x="481" d="M92 621q-4 10 0 29.5t8 23.5q31 31 69 61.5t74 54t66.5 38t48.5 14.5q43 0 13 -144q-8 -41 -23.5 -113.5t-32 -149.5t-31 -146.5t-18.5 -106.5q-6 -53 21 -53q20 0 50 21.5t75 68.5q0 -2 2 -2l4 -4q2 -8 0 -29.5t-6 -29.5q-37 -49 -76 -84t-74 -57.5t-63.5 -34 t-44.5 -11.5q-33 0 -44.5 44t11.5 149q23 119 48.5 242.5t47.5 228.5q10 45 -8 45q-31 0 -111 -62q-2 0 -4 2q-2 0 -2 5zM111 1098q0 12 5 30.5t11 26.5q14 16 41.5 25.5t54.5 9.5q20 0 32.5 -6t16.5 -10q6 -10 9.5 -27t1.5 -29q-4 -29 -17.5 -51.5t-36.5 -34.5 q-4 -2 -15 -4t-25.5 -4t-26.5 -2t-17 4q-31 18 -34 72zM414 1102q2 12 7 29.5t13 25.5q16 16 41.5 24.5t52.5 8.5q23 0 34 -6t16 -10q6 -8 8 -24.5t0 -29.5q-4 -29 -16.5 -52.5t-34.5 -35.5q-4 -2 -16.5 -4t-27 -4t-26.5 -2t-14 4q-33 16 -37 76z" />
<glyph unicode="&#xf0;" horiz-adv-x="854" d="M86 260q0 57 11.5 123t36 128t63.5 117.5t92 96.5q31 23 69.5 44.5t77.5 36.5t74 24.5t55 9.5q49 0 76 -9q2 66 -15.5 132.5t-35.5 103.5q-16 -8 -78.5 -35.5t-140.5 -56.5q-6 6 -6 14q2 10 8 34t12 26q16 6 42 17t51.5 22.5t49 21.5t35.5 16q-37 70 -109.5 128.5 t-181.5 86.5q-4 10 5.5 29t17.5 23q117 -10 216 -65.5t167 -143.5q6 -6 12 -4q18 8 46 20t56.5 25.5t55 26t41.5 20.5q6 -4 6 -12q0 -12 -4 -32t-10 -28q-4 -4 -19.5 -12t-37 -19.5t-47 -22.5t-50.5 -24q-8 -4 -4 -14q31 -70 52.5 -159t21.5 -195q0 -111 -18.5 -220.5 t-56.5 -206t-98.5 -174t-144.5 -124.5q-47 -29 -96 -45.5t-92 -16.5q-55 0 -94 25.5t-63.5 66.5t-36 94.5t-11.5 106.5zM242 326q-2 -119 28.5 -192t112.5 -73q59 0 105.5 56.5t79 141.5t50 182.5t19.5 179.5q2 29 -3 54t-28 42q-41 37 -110 37q-68 0 -116 -46t-79 -112 t-45 -140.5t-14 -129.5z" />
<glyph unicode="&#xf1;" horiz-adv-x="950" d="M80 600q-4 10 0 32.5t6 26.5q33 39 71 73t72.5 58.5t63.5 38t45 13.5q53 0 18 -191l-30 -162q0 -2 2 -3t4 3q78 111 165 193t167 125q31 16 56 25.5t54 9.5q53 0 59.5 -71t-22.5 -206q-25 -117 -44 -214t-30 -163q-2 -23 0 -39t17 -16q16 0 45.5 18.5t77.5 71.5 q6 0 8 -10q2 -6 -2 -31.5t-9 -31.5q-31 -41 -66.5 -75t-71.5 -57.5t-67.5 -37t-52.5 -13.5q-66 0 -24 207q23 111 46.5 219.5t39.5 192.5q10 59 6 86.5t-33 27.5q-47 0 -130 -75.5t-175 -223.5q-23 -35 -43 -88t-31 -102q-14 -55 -22 -104.5t-4 -71.5q-8 -10 -27.5 -21.5 t-41 -21.5t-41 -17.5t-27.5 -7.5q-8 -2 -14.5 6.5t-4.5 16.5q2 31 19.5 109.5t37 175t39 191.5t27.5 161q6 47 -12 47q-16 0 -47 -23.5t-66 -56.5q-8 0 -8 6zM307 1027q0 9 2 11q10 12 36 32t54.5 38t58 31.5t50.5 13.5q25 0 50.5 -8t59.5 -19q25 -10 50 -15t41 -5 q18 0 50 8t83 51q2 2 5 -5t5 -16t3 -19.5t-1 -12.5q-14 -18 -38.5 -39.5t-54.5 -39t-60.5 -29t-57.5 -11.5q-23 0 -50.5 8.5t-68.5 22.5q-16 6 -35.5 11t-37.5 5q-53 0 -134 -57q-2 -2 -5 6t-4 18.5t-1 19.5z" />
<glyph unicode="&#xf2;" horiz-adv-x="866" d="M86 252q0 68 12.5 135.5t37 131t64.5 118.5t95 96q33 25 72 45.5t76.5 33.5t73.5 21.5t63 8.5q57 0 96 -25.5t63.5 -65.5t34.5 -88.5t10 -95.5q0 -80 -16 -156.5t-50 -146t-86 -127t-124 -98.5q-61 -37 -123.5 -54.5t-99.5 -17.5q-51 0 -88 23.5t-61.5 62.5t-37 90.5 t-12.5 108.5zM242 315q0 -125 34.5 -187t112.5 -62q49 0 92 37.5t75 100t50.5 142.5t18.5 166q0 45 -6.5 88t-22.5 77t-45 54.5t-74 20.5q-59 0 -103 -43t-74 -107.5t-44 -141.5t-14 -145zM371 1249q0 14 10 21q8 2 30.5 4t47 2t46 -2t27.5 -4q4 -16 12.5 -58.5t16.5 -93.5 t16.5 -102t14.5 -84q-2 -4 -9.5 -8t-16.5 -7.5t-18 -4.5t-11 1q-12 23 -37 72t-51.5 102.5t-49 99.5t-28.5 62z" />
<glyph unicode="&#xf3;" horiz-adv-x="866" d="M86 252q0 68 12.5 135.5t37 131t64.5 118.5t95 96q33 25 72 45.5t76.5 33.5t73.5 21.5t63 8.5q57 0 96 -25.5t63.5 -65.5t34.5 -88.5t10 -95.5q0 -80 -16 -156.5t-50 -146t-86 -127t-124 -98.5q-61 -37 -123.5 -54.5t-99.5 -17.5q-51 0 -88 23.5t-61.5 62.5t-37 90.5 t-12.5 108.5zM242 315q0 -125 34.5 -187t112.5 -62q49 0 92 37.5t75 100t50.5 142.5t18.5 166q0 45 -6.5 88t-22.5 77t-45 54.5t-74 20.5q-59 0 -103 -43t-74 -107.5t-44 -141.5t-14 -145zM436 950q27 39 55.5 81t55 80t48 69.5t36.5 50.5q8 4 31.5 8t50 7t50.5 4t30 -1 q4 -4 7 -15t1 -15q-16 -20 -58.5 -62.5t-91.5 -89.5t-96 -90t-72 -64q-4 0 -11 4.5t-15 10.5t-14.5 12t-6.5 10z" />
<glyph unicode="&#xf4;" horiz-adv-x="866" d="M86 252q0 68 12.5 135.5t37 131t64.5 118.5t95 96q33 25 72 45.5t76.5 33.5t73.5 21.5t63 8.5q57 0 96 -25.5t63.5 -65.5t34.5 -88.5t10 -95.5q0 -80 -16 -156.5t-50 -146t-86 -127t-124 -98.5q-61 -37 -123.5 -54.5t-99.5 -17.5q-51 0 -88 23.5t-61.5 62.5t-37 90.5 t-12.5 108.5zM242 315q0 -125 34.5 -187t112.5 -62q49 0 92 37.5t75 100t50.5 142.5t18.5 166q0 45 -6.5 88t-22.5 77t-45 54.5t-74 20.5q-59 0 -103 -43t-74 -107.5t-44 -141.5t-14 -145zM330 924q18 20 50 62t66.5 89t66.5 92t50 74q2 2 11.5 5t19.5 6t19.5 5.5t13.5 2.5 q6 -25 21.5 -71t33.5 -96.5t35.5 -94.5t27.5 -62q-4 -4 -14 -10t-24.5 -10.5t-27.5 -7.5t-22 -3q-6 0 -17 21.5t-24.5 51.5t-27 61.5t-21.5 54.5q-4 6 -10 0q-16 -23 -36.5 -49.5t-41 -50t-36 -41t-21.5 -21.5q-14 -10 -42 -17.5t-42 -5.5q-8 4 -8 15z" />
<glyph unicode="&#xf5;" horiz-adv-x="866" d="M86 252q0 68 12.5 135.5t37 131t64.5 118.5t95 96q33 25 72 45.5t76.5 33.5t73.5 21.5t63 8.5q57 0 96 -25.5t63.5 -65.5t34.5 -88.5t10 -95.5q0 -80 -16 -156.5t-50 -146t-86 -127t-124 -98.5q-61 -37 -123.5 -54.5t-99.5 -17.5q-51 0 -88 23.5t-61.5 62.5t-37 90.5 t-12.5 108.5zM242 315q0 -125 34.5 -187t112.5 -62q49 0 92 37.5t75 100t50.5 142.5t18.5 166q0 45 -6.5 88t-22.5 77t-45 54.5t-74 20.5q-59 0 -103 -43t-74 -107.5t-44 -141.5t-14 -145zM272 1025q0 9 2 11q10 12 36 31.5t54.5 38t58.5 32t50 13.5q25 0 50.5 -8t60.5 -19 q25 -10 49.5 -15t40.5 -5q18 0 50 8t83 51q2 2 5 -5t5 -16t3 -19.5t-1 -12.5q-14 -18 -38.5 -39.5t-54.5 -39t-60.5 -29t-57.5 -11.5q-23 0 -50.5 8.5t-68.5 22.5q-16 6 -35.5 11t-37.5 5q-53 0 -133 -57q-2 -2 -5.5 6t-4.5 18.5t-1 19.5z" />
<glyph unicode="&#xf6;" horiz-adv-x="866" d="M86 252q0 68 12.5 135.5t37 131t64.5 118.5t95 96q33 25 72 45.5t76.5 33.5t73.5 21.5t63 8.5q57 0 96 -25.5t63.5 -65.5t34.5 -88.5t10 -95.5q0 -80 -16 -156.5t-50 -146t-86 -127t-124 -98.5q-61 -37 -123.5 -54.5t-99.5 -17.5q-51 0 -88 23.5t-61.5 62.5t-37 90.5 t-12.5 108.5zM242 315q0 -125 34.5 -187t112.5 -62q49 0 92 37.5t75 100t50.5 142.5t18.5 166q0 45 -6.5 88t-22.5 77t-45 54.5t-74 20.5q-59 0 -103 -43t-74 -107.5t-44 -141.5t-14 -145zM326 1098q0 12 5 30.5t11 26.5q14 16 41.5 25.5t54.5 9.5q20 0 32.5 -6t16.5 -10 q6 -10 9.5 -27t1.5 -29q-4 -29 -17.5 -51.5t-36.5 -34.5q-4 -2 -15 -4t-25.5 -4t-26.5 -2t-17 4q-31 18 -34 72zM629 1102q2 12 7 29.5t13 25.5q16 16 41.5 24.5t52.5 8.5q23 0 34 -6t16 -10q6 -8 8 -24.5t0 -29.5q-4 -29 -16.5 -52.5t-34.5 -35.5q-4 -2 -16.5 -4t-27 -4 t-26.5 -2t-14 4q-33 16 -37 76z" />
<glyph unicode="&#xf7;" horiz-adv-x="1114" d="M88 453q2 6 5 20t8 29.5t9.5 29t6.5 17.5q14 -4 77.5 -3t155.5 1h678q4 -2 4 -11.5v-13.5t-4 -16t-8 -27.5t-9 -28t-12 -12.5l-905 -6q-2 0 -4 8.5t-2 12.5zM459 188q0 2 1 12.5t4 20.5t5 18.5t4 10.5q16 12 48 22.5t54 10.5q51 0 64 -17q6 -6 11 -24.5t5 -28.5 q0 -35 -7 -56.5t-30 -43.5q-2 -2 -16 -6.5t-32.5 -7.5t-36 -2t-25.5 7q-25 20 -36 45t-13 39zM459 803q0 4 1 13t4 20.5t5 20.5t4 11q16 10 48 20.5t54 10.5q23 0 41.5 -4t22.5 -12q6 -6 11 -20.5t5 -24.5q0 -37 -14 -62.5t-37 -48.5q-2 -2 -15.5 -6t-30.5 -5t-32.5 0 t-23.5 7q-27 18 -34 43t-9 37z" />
<glyph unicode="&#xf8;" horiz-adv-x="864" d="M47 -53l86 112q-25 39 -37 93.5t-10 113.5q4 154 59.5 277t153.5 194q31 23 66.5 42.5t72.5 32.5t70.5 21.5t58.5 8.5q72 0 121 -39l43 55q4 4 25.5 12.5t48.5 14.5q8 -4 8 -13l-84 -112q33 -47 43 -96.5t10 -112.5q0 -96 -23.5 -176t-62.5 -145.5t-89 -114.5t-105 -82 q-53 -31 -110.5 -48.5t-102.5 -17.5q-35 0 -67 13.5t-54 35.5l-47 -57q-14 -10 -33.5 -16t-34.5 -9q-6 6 -6 13zM231 307q0 -35 2.5 -59.5t8.5 -46.5l358 485q-35 70 -119 70q-61 0 -108 -45t-79 -112t-47.5 -145.5t-15.5 -146.5zM264 141q14 -35 45 -56.5t78 -21.5 q61 0 107.5 45.5t77 112t47 144t16.5 143.5q0 41 -3 65.5t-9 49.5z" />
<glyph unicode="&#xf9;" horiz-adv-x="948" d="M80 606q-2 10 1 31.5t7 26.5q33 37 72 68.5t75.5 56t67.5 39t49 14.5q23 0 28 -40t-18 -145q-10 -51 -22 -110.5t-24.5 -115.5t-22.5 -107.5t-17 -85.5q-10 -61 -2.5 -90t41.5 -29q27 0 65 24.5t80 66.5t83 97t73 119q16 31 28.5 67.5t25.5 79.5q6 31 13 63t13 59.5 t12.5 49t12.5 31.5q6 6 25.5 16.5t42 19.5t46 17.5t35.5 12.5q4 -2 7.5 -10.5t1.5 -14.5q-16 -23 -26.5 -55.5t-21.5 -77.5q-12 -55 -26 -120.5t-26.5 -131t-23 -125t-14.5 -104.5q-4 -31 -1 -52.5t20 -21.5q16 0 47 20.5t82 79.5q8 0 8 -10q0 -14 -3 -34.5t-7 -28.5 q-29 -43 -65 -78t-71.5 -59.5t-68.5 -38t-53 -13.5q-35 0 -42 47t5 136q6 41 13 76.5t13 76.5q0 4 -3 4t-5 -2q-57 -86 -120.5 -149.5t-122.5 -108.5q-104 -80 -179 -80q-41 0 -61.5 49.5t2.5 178.5q6 35 17.5 93t24.5 121.5t26.5 124t21.5 99.5q4 16 2 30.5t-12 14.5 q-16 0 -49 -22.5t-72 -57.5q-8 0 -8 8zM403 1243q0 14 11 21q8 2 30.5 4t47 2t46 -2t27.5 -4q4 -16 12.5 -58.5t16.5 -93.5t16 -102.5t15 -83.5q-2 -4 -9.5 -8.5t-16.5 -7.5t-18.5 -4t-11.5 1q-12 23 -36.5 72t-51 102.5t-49.5 99.5t-29 62z" />
<glyph unicode="&#xfa;" horiz-adv-x="948" d="M80 606q-2 10 1 31.5t7 26.5q33 37 72 68.5t75.5 56t67.5 39t49 14.5q23 0 28 -40t-18 -145q-10 -51 -22 -110.5t-24.5 -115.5t-22.5 -107.5t-17 -85.5q-10 -61 -2.5 -90t41.5 -29q27 0 65 24.5t80 66.5t83 97t73 119q16 31 28.5 67.5t25.5 79.5q6 31 13 63t13 59.5 t12.5 49t12.5 31.5q6 6 25.5 16.5t42 19.5t46 17.5t35.5 12.5q4 -2 7.5 -10.5t1.5 -14.5q-16 -23 -26.5 -55.5t-21.5 -77.5q-12 -55 -26 -120.5t-26.5 -131t-23 -125t-14.5 -104.5q-4 -31 -1 -52.5t20 -21.5q16 0 47 20.5t82 79.5q8 0 8 -10q0 -14 -3 -34.5t-7 -28.5 q-29 -43 -65 -78t-71.5 -59.5t-68.5 -38t-53 -13.5q-35 0 -42 47t5 136q6 41 13 76.5t13 76.5q0 4 -3 4t-5 -2q-57 -86 -120.5 -149.5t-122.5 -108.5q-104 -80 -179 -80q-41 0 -61.5 49.5t2.5 178.5q6 35 17.5 93t24.5 121.5t26.5 124t21.5 99.5q4 16 2 30.5t-12 14.5 q-16 0 -49 -22.5t-72 -57.5q-8 0 -8 8zM496 942q27 39 55.5 81t55 80t48 69.5t35.5 50.5q8 4 31.5 8t50.5 7t50.5 4t29.5 -1q4 -4 7 -15.5t1 -15.5q-16 -20 -58 -62t-91 -89t-96.5 -90t-71.5 -64q-4 0 -11.5 4t-15.5 10.5t-14 12.5t-6 10z" />
<glyph unicode="&#xfb;" horiz-adv-x="948" d="M80 606q-2 10 1 31.5t7 26.5q33 37 72 68.5t75.5 56t67.5 39t49 14.5q23 0 28 -40t-18 -145q-10 -51 -22 -110.5t-24.5 -115.5t-22.5 -107.5t-17 -85.5q-10 -61 -2.5 -90t41.5 -29q27 0 65 24.5t80 66.5t83 97t73 119q16 31 28.5 67.5t25.5 79.5q6 31 13 63t13 59.5 t12.5 49t12.5 31.5q6 6 25.5 16.5t42 19.5t46 17.5t35.5 12.5q4 -2 7.5 -10.5t1.5 -14.5q-16 -23 -26.5 -55.5t-21.5 -77.5q-12 -55 -26 -120.5t-26.5 -131t-23 -125t-14.5 -104.5q-4 -31 -1 -52.5t20 -21.5q16 0 47 20.5t82 79.5q8 0 8 -10q0 -14 -3 -34.5t-7 -28.5 q-29 -43 -65 -78t-71.5 -59.5t-68.5 -38t-53 -13.5q-35 0 -42 47t5 136q6 41 13 76.5t13 76.5q0 4 -3 4t-5 -2q-57 -86 -120.5 -149.5t-122.5 -108.5q-104 -80 -179 -80q-41 0 -61.5 49.5t2.5 178.5q6 35 17.5 93t24.5 121.5t26.5 124t21.5 99.5q4 16 2 30.5t-12 14.5 q-16 0 -49 -22.5t-72 -57.5q-8 0 -8 8zM369 940q18 20 50 62t66.5 89.5t66.5 92.5t50 73q2 2 11.5 5.5t19.5 6.5t19.5 5t13.5 2q6 -25 21 -71t33.5 -96t36 -94t27.5 -63q-4 -4 -14 -10t-24.5 -10t-27.5 -7t-22 -3q-6 0 -17 21.5t-24.5 51t-27 61t-21.5 54.5q-4 6 -10 0 q-16 -23 -36.5 -49.5t-41 -50t-36 -41t-21.5 -21.5q-14 -10 -42 -17t-42 -5q-8 4 -8 14z" />
<glyph unicode="&#xfc;" horiz-adv-x="948" d="M80 606q-2 10 1 31.5t7 26.5q33 37 72 68.5t75.5 56t67.5 39t49 14.5q23 0 28 -40t-18 -145q-10 -51 -22 -110.5t-24.5 -115.5t-22.5 -107.5t-17 -85.5q-10 -61 -2.5 -90t41.5 -29q27 0 65 24.5t80 66.5t83 97t73 119q16 31 28.5 67.5t25.5 79.5q6 31 13 63t13 59.5 t12.5 49t12.5 31.5q6 6 25.5 16.5t42 19.5t46 17.5t35.5 12.5q4 -2 7.5 -10.5t1.5 -14.5q-16 -23 -26.5 -55.5t-21.5 -77.5q-12 -55 -26 -120.5t-26.5 -131t-23 -125t-14.5 -104.5q-4 -31 -1 -52.5t20 -21.5q16 0 47 20.5t82 79.5q8 0 8 -10q0 -14 -3 -34.5t-7 -28.5 q-29 -43 -65 -78t-71.5 -59.5t-68.5 -38t-53 -13.5q-35 0 -42 47t5 136q6 41 13 76.5t13 76.5q0 4 -3 4t-5 -2q-57 -86 -120.5 -149.5t-122.5 -108.5q-104 -80 -179 -80q-41 0 -61.5 49.5t2.5 178.5q6 35 17.5 93t24.5 121.5t26.5 124t21.5 99.5q4 16 2 30.5t-12 14.5 q-16 0 -49 -22.5t-72 -57.5q-8 0 -8 8zM365 1098q0 12 5 30.5t11 26.5q14 16 41.5 25.5t54.5 9.5q20 0 32.5 -6t16.5 -10q6 -10 9.5 -27t1.5 -29q-4 -29 -17.5 -51.5t-36.5 -34.5q-4 -2 -15 -4t-25.5 -4t-27 -2t-16.5 4q-31 18 -34 72zM668 1102q2 12 7 29.5t13 25.5 q16 16 41.5 24.5t52.5 8.5q23 0 34 -6t15 -10q6 -8 8.5 -24.5t0.5 -29.5q-4 -29 -16.5 -52.5t-35.5 -35.5q-4 -2 -16 -4t-26.5 -4t-26.5 -2t-14 4q-33 16 -37 76z" />
<glyph unicode="&#xfd;" horiz-adv-x="800" d="M-137 -500q0 10 13 38t31.5 57.5t36 56t25.5 33.5q6 10 23 6q41 -20 80 -21q10 0 27.5 8.5t43 34t61.5 71.5t83 122q6 14 9 29.5t3 25.5q0 57 -6 143t-16.5 176.5t-23.5 174.5t-28 137q-12 47 -23.5 66.5t-27.5 19.5q-41 0 -125 -103q-2 -4 -6 0.5t-4 8.5q-4 10 -1 35.5 t11 35.5q25 35 55.5 68t61.5 59.5t60.5 42t52.5 15.5q33 0 54 -49.5t38 -137.5q10 -59 18 -133t15.5 -148.5t12.5 -141t9 -107.5q4 -4 8 0q104 170 150.5 295t44.5 184q0 76 -35 146q-2 4 0 13t6 13q10 8 29.5 21.5t40 24.5t38 19.5t23.5 8.5q16 0 26.5 -36t8.5 -73 q0 -53 -20.5 -132t-61.5 -165q-49 -102 -111.5 -214.5t-130 -218t-136 -199t-128.5 -158.5q-49 -53 -87 -88t-68.5 -55.5t-57 -28.5t-51.5 -8q-20 0 -35.5 8t-15.5 20zM422 950q27 39 55.5 81t55 80t48 69.5t35.5 50.5q8 4 32 8t50.5 7t50 4t29.5 -1q4 -4 7 -15t1 -15 q-16 -20 -58 -62.5t-91 -89.5t-96 -90t-72 -64q-4 0 -11 4.5t-15.5 10.5t-14.5 12t-6 10z" />
<glyph unicode="&#xfe;" horiz-adv-x="925" d="M-156 -508q2 23 6 27q31 10 49.5 15t39.5 13q35 14 49 34t26 67q6 23 18.5 93.5t29 164.5t36 202.5t37.5 208.5q8 45 22.5 123t32 168t35 186.5t32.5 180.5t25.5 148.5t12.5 90.5q4 33 -16 33q-16 0 -48 -8t-79 -33q-2 2 -2 12.5t1 20.5t3 18.5t6 10.5q31 20 71.5 42.5 t82.5 43t79 34t56 13.5q18 0 18 -36t-8 -73q-18 -90 -38 -187t-38 -194.5t-34.5 -186.5t-31.5 -159q0 -4 4.5 -5t8.5 3q55 68 113.5 120t112.5 88t100 53.5t79 17.5q55 0 89 -59.5t34 -155.5q-2 -152 -56 -287t-169 -234q-39 -35 -85 -60.5t-92 -42.5t-88 -26.5t-75 -9.5 q-10 0 -37 6.5t-37 12.5q-6 -31 -13 -72t-14.5 -85t-13.5 -89t-10 -82q-4 -35 4 -53.5t43 -24.5q23 -4 46.5 -5t60.5 -5q4 -6 -0.5 -27.5t-10.5 -25.5q-98 -2 -217 -16.5t-248 -37.5q-4 6 -2 29zM256 172q-4 -47 23 -68q20 -20 54.5 -29t65.5 -9q41 0 86 21.5t84 68.5 q63 76 95 189.5t32 225.5q0 78 -21.5 110t-51.5 32q-31 0 -68 -22.5t-76 -56.5t-73.5 -74t-59.5 -77q-18 -29 -33.5 -67.5t-28 -81.5t-19.5 -85t-9 -77z" />
<glyph unicode="&#xff;" horiz-adv-x="800" d="M-137 -500q0 10 13 38t31.5 57.5t36 56t25.5 33.5q6 10 23 6q41 -20 80 -21q10 0 27.5 8.5t43 34t61.5 71.5t83 122q6 14 9 29.5t3 25.5q0 57 -6 143t-16.5 176.5t-23.5 174.5t-28 137q-12 47 -23.5 66.5t-27.5 19.5q-41 0 -125 -103q-2 -4 -6 0.5t-4 8.5q-4 10 -1 35.5 t11 35.5q25 35 55.5 68t61.5 59.5t60.5 42t52.5 15.5q33 0 54 -49.5t38 -137.5q10 -59 18 -133t15.5 -148.5t12.5 -141t9 -107.5q4 -4 8 0q104 170 150.5 295t44.5 184q0 76 -35 146q-2 4 0 13t6 13q10 8 29.5 21.5t40 24.5t38 19.5t23.5 8.5q16 0 26.5 -36t8.5 -73 q0 -53 -20.5 -132t-61.5 -165q-49 -102 -111.5 -214.5t-130 -218t-136 -199t-128.5 -158.5q-49 -53 -87 -88t-68.5 -55.5t-57 -28.5t-51.5 -8q-20 0 -35.5 8t-15.5 20zM270 1098q0 12 5.5 30.5t11.5 26.5q14 16 41.5 25.5t54.5 9.5q20 0 32.5 -6t16.5 -10q6 -10 9 -27t1 -29 q-4 -29 -17 -51.5t-36 -34.5q-4 -2 -15.5 -4t-25.5 -4t-26.5 -2t-16.5 4q-31 18 -35 72zM573 1102q2 12 7.5 29.5t13.5 25.5q16 16 41.5 24.5t52.5 8.5q23 0 34 -6t15 -10q6 -8 8.5 -24.5t-0.5 -29.5q-4 -29 -16 -52.5t-35 -35.5q-4 -2 -16 -4t-26.5 -4t-27 -2t-14.5 4 q-33 16 -37 76z" />
<glyph unicode="&#x152;" horiz-adv-x="1933" d="M141 481q0 156 49.5 304.5t149.5 261.5q104 125 240.5 188t277.5 63q43 0 82 -5t74 -13q18 -4 50 -11t62 -9h545q72 0 130.5 3t96.5 11q4 -2 6.5 -9.5t2.5 -11.5q-8 -23 -18.5 -56.5t-19.5 -73.5t-17.5 -82t-14.5 -78q-10 -4 -36.5 -6.5t-33.5 4.5q2 41 0 78.5t-6 60.5 q-6 39 -24.5 55t-69.5 19q-10 0 -47 1t-86 1h-105.5h-103.5h-81h-40q-2 0 -4 -4.5t2 -8.5q80 -86 112 -204.5t23 -262.5q0 -4 2 -8t4 -4q80 0 140.5 1t109.5 5q35 2 52.5 22.5t29.5 43.5q10 18 18.5 39.5t16.5 44.5q10 4 37 2t31 -8q-10 -35 -22.5 -90.5t-22.5 -110.5 q-10 -53 -15.5 -103.5t-11.5 -93.5q-8 -6 -36 -6t-34 6q0 25 -1 48.5t-5 39.5q-4 25 -14 44.5t-45 21.5q-45 4 -107.5 4h-130.5q-4 0 -7 -4t-3 -8q-23 -137 -86 -256t-184 -217q-4 -4 -5 -9.5t7 -7.5q43 -4 111.5 -6t139 -3t132 0t90.5 1q59 4 95 13t71 50q29 29 58.5 77 t57.5 102q10 0 32 -9.5t26 -17.5q-4 -16 -16.5 -52t-29 -76t-35 -79t-34.5 -63q-12 -18 -29.5 -26.5t-68.5 -8.5h-129t-146.5 1t-148.5 2t-133.5 2t-101.5 1h-54q-57 -2 -127 -19.5t-176 -17.5q-139 0 -240.5 48t-162.5 136q-47 70 -71 156t-24 178zM330 487 q0 -90 20.5 -169.5t64.5 -140t111.5 -96.5t163.5 -36q59 0 114.5 15.5t100.5 48.5q70 51 117 125.5t76.5 162.5t43 182.5t13.5 186.5t-19.5 175t-60.5 145.5t-105.5 98.5t-156.5 36q-115 0 -204 -64.5t-151.5 -168t-95 -234.5t-32.5 -267z" />
<glyph unicode="&#x153;" horiz-adv-x="1214" d="M86 250q0 63 12.5 132t37 133.5t64.5 121.5t95 98q31 23 68.5 42.5t74.5 33.5t71 22.5t56 8.5q72 0 115 -44t65 -114q88 84 177.5 121t136.5 37q49 0 85 -34t36 -93q0 -70 -53.5 -128.5t-147.5 -107.5q-63 -33 -117.5 -54.5t-103.5 -39.5q-8 -2 -13 -16q-4 -10 -6 -31 t-2 -33q0 -94 35 -149.5t115 -55.5q53 0 117.5 31t138.5 107q6 -2 8 -27t0 -35q-33 -45 -76 -83t-92 -65.5t-100.5 -43t-98.5 -15.5q-125 0 -176 152q0 2 -6 2q-35 -39 -77 -67.5t-85 -48t-85 -30t-74 -10.5q-49 0 -86 22.5t-61.5 61.5t-36 90.5t-11.5 108.5zM242 319 q0 -133 35.5 -192t109.5 -59q49 0 91 36.5t74 98t50.5 143.5t18.5 174q0 47 -7.5 89t-24 74t-44 50.5t-68.5 18.5q-59 0 -103 -45t-73 -112t-44 -142t-15 -134zM758 471q-2 -4 1 -8t5 -2q43 10 91 26.5t95 42.5q35 23 61.5 54.5t26.5 77.5q0 35 -17 62.5t-58 27.5 q-27 0 -58 -16.5t-59.5 -51.5t-52 -88t-35.5 -125z" />
<glyph unicode="&#x178;" horiz-adv-x="1087" d="M93 1240q3 24 11 28q29 0 81.5 -4t138.5 -4q82 0 153.5 2t89.5 4q6 -4 3 -29t-7 -31q-20 -4 -45.5 -8t-36.5 -8q-39 -12 -26 -60q12 -41 35.5 -108.5t48 -139t47 -133t32.5 -87.5q2 -4 5.5 -4.5t7.5 4.5q33 43 80 109.5t94 134t86 126t55 86.5q14 25 12 43.5t-36 28.5 q-20 6 -42 10t-51 8q-4 10 0.5 33t12.5 27q43 -2 100 -5t105 -3q76 0 129 2t94 6q4 -8 3 -31t-9 -29q-18 -4 -43 -8t-39 -8q-27 -6 -47.5 -15.5t-40 -24.5t-40 -37.5t-44.5 -53.5q-41 -51 -89.5 -115.5t-94.5 -129t-88 -124t-68 -100.5q-10 -14 -19.5 -34.5t-11.5 -33.5 q-14 -74 -27.5 -157.5t-23.5 -161.5q-8 -63 1 -93t52 -40q23 -6 58.5 -10.5t62.5 -8.5q4 -8 0 -30.5t-12 -28.5q-33 0 -111 3t-168 3q-41 0 -82 -1t-79 -2t-68.5 -2t-46.5 -1q-4 4 -1 29.5t9 29.5q37 4 69.5 9.5t57.5 9.5q41 10 57 34.5t29 77.5q16 82 30.5 169t24.5 151 q4 23 2 47t-6 41q-8 33 -25.5 87t-40 116.5t-46 127t-44.5 117.5q-18 45 -31.5 74t-27.5 44.5t-30.5 22.5t-39.5 13q-23 4 -39 7t-49 7q-4 8 -1 32zM473 1462q0 41 16 58q14 12 39 21t52 9q23 0 38 -7t19 -11q6 -8 9 -28.5t-1 -33.5q-10 -55 -51 -81q-4 -2 -16.5 -4.5 t-25.5 -3.5t-25.5 -1t-16.5 4q-37 20 -37 78zM817 1466q4 37 21 54q12 12 37.5 21t50.5 9q23 0 38 -6t19 -10q6 -10 8 -30.5t0 -33.5q-10 -59 -51 -84q-4 -2 -16.5 -3t-25.5 -2t-25.5 -1t-16.5 4q-39 18 -39 82z" />
<glyph unicode="&#x2c6;" horiz-adv-x="819" d="M291 924q18 20 50 62t66.5 89t66.5 92t50 74q2 2 11.5 5t19.5 6t19.5 5.5t13.5 2.5q6 -25 21.5 -71t34 -96.5t35.5 -94.5t28 -62q-4 -4 -14.5 -10t-25 -10.5t-27.5 -7.5t-22 -3q-6 0 -17 21.5t-24.5 51.5t-26.5 61.5t-22 54.5q-4 6 -10 0q-16 -23 -36.5 -49.5t-41 -50 t-36 -41t-21.5 -21.5q-14 -10 -42 -17.5t-42 -5.5q-8 4 -8 15z" />
<glyph unicode="&#x2dc;" horiz-adv-x="819" d="M240 1025q0 9 2 11q10 12 35.5 31.5t54 38t58.5 32t50 13.5q25 0 50.5 -8t60.5 -19q25 -10 49.5 -15t40.5 -5q18 0 50 8t83 51q2 2 5 -5t5 -16t3 -19.5t-1 -12.5q-14 -18 -38.5 -39.5t-54 -39t-60.5 -29t-58 -11.5q-23 0 -50 8.5t-68 22.5q-16 6 -36 11t-38 5 q-53 0 -133 -57q-2 -2 -5 6t-4 18.5t-1 19.5z" />
<glyph unicode="&#x2000;" horiz-adv-x="831" />
<glyph unicode="&#x2001;" horiz-adv-x="1663" />
<glyph unicode="&#x2002;" horiz-adv-x="831" />
<glyph unicode="&#x2003;" horiz-adv-x="1663" />
<glyph unicode="&#x2004;" horiz-adv-x="554" />
<glyph unicode="&#x2005;" horiz-adv-x="415" />
<glyph unicode="&#x2006;" horiz-adv-x="277" />
<glyph unicode="&#x2007;" horiz-adv-x="277" />
<glyph unicode="&#x2008;" horiz-adv-x="207" />
<glyph unicode="&#x2009;" horiz-adv-x="332" />
<glyph unicode="&#x200a;" horiz-adv-x="92" />
<glyph unicode="&#x2010;" horiz-adv-x="544" d="M45 375q2 10 9 27.5t15.5 35t15.5 29.5t11 12q41 0 101.5 1l121 2t110.5 3t73 4q2 -4 4 -10t2 -10q-2 -10 -10.5 -25.5t-17.5 -31t-18 -26.5t-13 -13q-14 -4 -73 -8.5t-125.5 -6.5t-124.5 -3t-75 -1q-2 4 -4 10.5t-2 10.5z" />
<glyph unicode="&#x2011;" horiz-adv-x="544" d="M45 375q2 10 9 27.5t15.5 35t15.5 29.5t11 12q41 0 101.5 1l121 2t110.5 3t73 4q2 -4 4 -10t2 -10q-2 -10 -10.5 -25.5t-17.5 -31t-18 -26.5t-13 -13q-14 -4 -73 -8.5t-125.5 -6.5t-124.5 -3t-75 -1q-2 4 -4 10.5t-2 10.5z" />
<glyph unicode="&#x2012;" horiz-adv-x="544" d="M45 375q2 10 9 27.5t15.5 35t15.5 29.5t11 12q41 0 101.5 1l121 2t110.5 3t73 4q2 -4 4 -10t2 -10q-2 -10 -10.5 -25.5t-17.5 -31t-18 -26.5t-13 -13q-14 -4 -73 -8.5t-125.5 -6.5t-124.5 -3t-75 -1q-2 4 -4 10.5t-2 10.5z" />
<glyph unicode="&#x2013;" horiz-adv-x="1024" d="M78 375q2 8 6 20.5t9 24.5t10.5 22.5t9.5 10.5q2 0 64.5 1t153.5 1h196.5h196.5h153.5h66.5l-2 -15q-2 -8 -5 -21t-7 -25.5t-8 -22t-7 -9.5q-4 -2 -65.5 -2t-151.5 -1t-195.5 -1h-196.5t-154.5 1t-71.5 1z" />
<glyph unicode="&#x2014;" horiz-adv-x="2048" d="M78 375q6 18 17.5 47t17.5 31q2 0 80.5 1t206.5 1h292h335h336h294h209h82l4 -17q-2 -8 -6 -20t-8.5 -24.5t-9.5 -22t-7 -9.5q-4 -2 -84 -2t-208 -1t-290.5 -1h-332.5h-334h-294t-211 1t-87 1z" />
<glyph unicode="&#x2018;" horiz-adv-x="440" d="M180 1001q0 57 28 120t67.5 120t89 105t92.5 75q6 0 27.5 -5t27.5 -9q-78 -70 -126 -141.5t-50 -147.5q0 -29 10 -57.5t23 -46.5q-2 -6 -19.5 -22.5t-41 -35t-45 -33t-34.5 -14.5q-8 -2 -16 0t-12 4q-10 16 -15.5 38t-5.5 50z" />
<glyph unicode="&#x2019;" horiz-adv-x="440" d="M127 926q78 70 126 142.5t50 145.5q0 29 -10 56.5t-23 46.5q2 6 20.5 22.5t41 35t46 32.5t36.5 14q20 0 24 -4q20 -35 21 -88q0 -57 -28 -119.5t-67.5 -120t-89 -104.5t-92.5 -74q-6 -2 -28.5 4.5t-26.5 10.5z" />
<glyph unicode="&#x201a;" horiz-adv-x="411" d="M-72 -279q86 74 136.5 153t52.5 161q0 31 -11.5 60.5t-25.5 49.5q2 6 22.5 24.5t45 38t49 35t39.5 15.5q16 4 26 -2q23 -39 23 -96q0 -61 -30 -130t-73 -130.5t-95 -112.5t-99 -80q-10 -2 -32 4t-28 10z" />
<glyph unicode="&#x201c;" horiz-adv-x="708" d="M180 999q0 57 24.5 119t61.5 119t81 104t85 76q6 0 25.5 -7t25.5 -11q-72 -68 -113.5 -138.5t-43.5 -144.5q0 -29 8 -56.5t18 -45.5q-2 -6 -18.5 -23.5t-38 -36t-42 -32t-30.5 -13.5q-14 -2 -24 2q-18 33 -19 88zM465 999q0 57 26.5 120t64.5 121t84 105t87 76 q6 0 26.5 -7t26.5 -13q-72 -68 -121 -138.5t-51 -146.5q0 -29 9.5 -57.5t19.5 -44.5q-2 -6 -18.5 -23.5t-38 -36t-42 -32t-32.5 -13.5q-12 -2 -23 2q-18 33 -18 88z" />
<glyph unicode="&#x201d;" horiz-adv-x="708" d="M125 928q72 70 122 140.5t50 145.5q0 29 -8 56.5t-19 46.5q2 6 18.5 22.5t37 35t41 32.5t32.5 14q20 0 25 -4q8 -16 13 -37.5t5 -50.5q0 -57 -26.5 -119.5t-65.5 -120t-85 -105.5t-87 -75q-6 -2 -26.5 6.5t-26.5 12.5zM422 932q72 68 115 136.5t45 143.5q0 29 -9.5 57.5 t-19.5 47.5q2 6 18.5 22.5t38 35t42 32.5t32.5 14q18 0 23 -4q18 -31 18 -88t-23.5 -118.5t-60.5 -119t-81 -104.5t-85 -74q-6 -2 -26.5 5.5t-26.5 13.5z" />
<glyph unicode="&#x201e;" horiz-adv-x="749" d="M-33 -260q76 74 129.5 152.5t53.5 156.5q2 31 -8.5 60.5t-20.5 50.5q2 6 19.5 24.5t40 38t45 34.5t34.5 15q16 2 27 -2q18 -37 18 -96q0 -61 -27.5 -129t-69.5 -130t-91 -113.5t-94 -82.5q-8 -2 -29 6.5t-27 14.5zM287 -258q78 74 123 150.5t47 156.5q0 31 -10.5 60.5 t-20.5 50.5q2 6 20.5 24.5t41 38t45 34.5t34.5 15q12 2 27 -2q18 -37 18 -96q0 -61 -25.5 -127.5t-65.5 -128t-87 -112.5t-92 -82q-6 -2 -27.5 6t-27.5 12z" />
<glyph unicode="&#x2022;" horiz-adv-x="806" d="M161 419.5q1 20.5 5 24.5q31 20 70.5 46t77.5 52.5t71 50t51 38.5q4 4 23.5 5t23.5 -5q12 -20 36 -59.5t49.5 -82.5t48 -80.5t32.5 -56.5q4 -8 -1 -27.5t-11 -25.5q-16 -18 -54 -46t-79 -54.5t-77 -46t-46 -19.5q-20 0 -52 28.5t-65 68.5t-60.5 83t-39.5 74 q-4 12 -3 32.5z" />
<glyph unicode="&#x2026;" horiz-adv-x="2048" d="M287 68q0 29 9 53t34 47q37 31 82 31q18 0 36.5 -6.5t30.5 -20.5q14 -16 19.5 -37.5t5.5 -40.5q0 -18 -9.5 -46t-29.5 -46q-37 -31 -86 -31q-16 0 -35.5 6.5t-34.5 22.5q-23 29 -22 68zM817 68q0 29 9.5 53t31.5 47q18 16 41 23.5t41 7.5q43 0 70 -27q14 -16 18 -37.5 t4 -40.5q0 -18 -8 -46t-31 -46q-37 -31 -86 -31q-16 0 -35.5 6.5t-31.5 22.5q-23 29 -23 68zM1348 68q0 29 9 53t32 47q36 31 81 31q18 0 37 -6.5t31 -20.5q16 -16 20.5 -37.5t4.5 -40.5q0 -18 -8.5 -46t-30.5 -46q-37 -31 -86 -31q-16 0 -36 6.5t-34 22.5q-20 27 -20 68z " />
<glyph unicode="&#x202f;" horiz-adv-x="332" />
<glyph unicode="&#x2039;" horiz-adv-x="983" d="M154 367q0 10 8 27.5t14 21.5q82 29 182.5 74t194.5 92t170 88t111 63q4 -2 8 -6t6 -8q-4 -16 -15.5 -43t-15.5 -31q-23 -18 -77 -52t-118.5 -70t-130 -70.5t-108.5 -57.5q-6 -2 -7 -5t3 -5q41 -23 95 -55.5t106.5 -68.5t95.5 -67.5t59 -52.5q6 -10 5 -36.5t-5 -38.5 q-2 -4 -8 -7.5t-10 -3.5q-14 14 -53 40t-90.5 56.5t-112 64.5t-117.5 63.5t-107.5 53t-82.5 34.5z" />
<glyph unicode="&#x203a;" horiz-adv-x="983" d="M139 68q0 8 4 20t9.5 24.5t9.5 20.5t8 10q23 18 77 51t118.5 70t129 71t109.5 56q12 8 2 12q-41 20 -94 53t-105.5 69t-95.5 69t-59 51q-6 10 -5 37t5 39q4 8 18 12q23 -20 94.5 -65t159.5 -94.5t173 -93.5t134 -60q0 -10 -8 -26.5t-12 -22.5q-82 -29 -182.5 -73 t-194.5 -91t-171 -88t-111 -64q-4 0 -8.5 4t-4.5 9z" />
<glyph unicode="&#x205f;" horiz-adv-x="415" />
<glyph unicode="&#x20ac;" horiz-adv-x="952" d="M57 492q2 16 9.5 39.5t13.5 27.5h92q4 25 7 55.5t9 55.5h-86q2 16 10.5 38.5t14.5 26.5h74q35 123 101.5 228.5t172.5 177.5q61 41 134 64.5t159 23.5q47 0 78 -3t65 -9q29 -4 49.5 -7.5t38.5 -5.5q-16 -59 -29.5 -114.5t-23.5 -122.5q-2 -4 -11 -7.5t-19.5 -3.5t-18.5 1 t-8 6q0 76 -7.5 113.5t-35.5 56.5q-27 18 -58.5 25t-62.5 7q-68 0 -124 -31.5t-101 -87t-77 -133t-50 -170.5q-4 -10 4 -10q49 0 108.5 1t111.5 1t91 1t47 1q0 -8 -8 -34.5t-12 -34.5h-348q-6 0 -11 -9q-4 -16 -6 -42.5t-4 -49.5q0 -10 6 -10h99.5t104.5 1t87 1h47 q0 -8 -7 -32.5t-15 -32.5h-322q-8 0 -8 -11q-4 -96 8 -175t43 -136t80 -88t119 -31q29 0 58.5 8.5t62.5 34.5q37 29 68.5 70t58.5 80q6 0 23.5 -11.5t19.5 -21.5q-20 -57 -63.5 -116.5t-76.5 -88.5q-33 -16 -84 -25.5t-116 -9.5q-195 0 -290 140.5t-83 380.5z" />
<glyph unicode="&#x2122;" horiz-adv-x="970" d="M129 1135l18 110q10 -4 33 -7t37 -3h203q39 0 78 8q-6 -25 -10.5 -54.5t-8.5 -58.5q-4 -4 -18.5 -4t-14.5 4q-4 43 -11 55.5t-23 12.5h-62v-207q2 -31 16.5 -40t61.5 -13q2 -4 1 -18.5t-5 -14.5q-12 0 -50 2t-67 2q-27 0 -62.5 -2t-45.5 -2q-2 2 -2 14.5t2 14.5 q49 6 59 16.5t12 32.5q2 39 2 100.5v114.5h-63q-20 0 -49 -72q-4 -2 -17.5 1t-13.5 8zM520 921.5q0 14.5 2 18.5q41 6 50.5 13.5t13.5 25.5q2 16 4 43t4 55.5t4 54t2 39.5t-9 20.5t-59 12.5q-2 4 -1 17.5t6 15.5l145 -2l12 -35q6 -14 18.5 -37.5t25 -48t24.5 -49.5t20 -39 q20 35 46 81t46 93l15 35l135 2q2 -2 2 -15.5t-2 -17.5q-47 -4 -54 -14t-7 -27v-186q0 -20 14 -25.5t45 -11.5q4 -2 4 -17.5t-4 -17.5q-16 0 -46 2t-52 2q-27 0 -49.5 -2t-43.5 -2q-4 4 -4 18.5t4 16.5q31 6 42.5 12t11.5 25l6 178q-10 -18 -25.5 -50t-33 -68t-34 -69.5 t-26.5 -58.5h-29q-8 20 -20 51t-27.5 65t-30 66.5t-26.5 57.5q0 -14 -2 -35.5t-3 -46.5t-1 -48.5v-41.5q0 -14 11 -22.5t46 -14.5q2 -2 2 -16.5t-2 -18.5q-18 0 -39.5 2t-44.5 2q-20 0 -43.5 -2t-40.5 -2q-2 2 -2 16.5z" />
<glyph unicode="&#xe000;" horiz-adv-x="839" d="M0 0v840h840v-840h-840z" />
<glyph unicode="&#xfb01;" horiz-adv-x="933" d="M-291 -440q-2 23 5 59.5t20 61.5q2 6 11 10t13 4q37 -53 84 -78t88 -25q68 0 104 66t64 231q20 113 40 234t36 232.5t29.5 204.5t21.5 149q0 14 -10 14q-35 0 -80 1t-63 5q0 2 -1 6t1 8q10 20 32.5 43t32.5 27h96q6 0 11 14q33 172 95 289t177 201q49 37 112 60.5 t122 23.5q53 0 85.5 -13.5t49.5 -35.5q8 -12 4 -33q-4 -10 -13.5 -24.5t-21.5 -29t-24.5 -27.5t-22.5 -19q-8 -4 -17.5 -5.5t-13.5 3.5q-29 37 -62.5 61.5t-80.5 24.5t-85 -33t-65 -86q-31 -63 -50 -146.5t-42 -212.5q-2 -6 2 -10t8 -4h201q78 2 140.5 8t109.5 27 q4 0 9 -7.5t1 -13.5q-16 -33 -29.5 -78t-29.5 -129q-10 -51 -22.5 -113.5t-24 -122.5t-19.5 -111.5t-10 -80.5t3 -45t20 -16q20 0 48.5 21.5t71.5 68.5q8 0 9 -6q2 -8 -1.5 -30.5t-7.5 -28.5q-35 -49 -73.5 -84t-73.5 -58.5t-63.5 -34t-45.5 -10.5q-33 0 -42 45t8 146 q8 51 20 123.5t26.5 149.5t30 152.5t27.5 135.5q0 20 -10 18q-10 -4 -50 -6t-87.5 -3t-90.5 -2t-59 -1q-4 0 -8 -5t-4 -11q-23 -162 -48.5 -340.5t-60.5 -360.5q-25 -137 -76 -237.5t-112.5 -165t-127 -95t-120.5 -30.5q-59 0 -90 23.5t-31 56.5z" />
<glyph unicode="&#xfb02;" horiz-adv-x="940" d="M-291 -440q-2 23 5 60.5t20 60.5q2 4 11 8t13 4q37 -51 84 -76t88 -25q35 0 59.5 15.5t44 50.5t35 92t29.5 141q20 111 40 232t36 232.5t29.5 204.5t21.5 149q0 16 -10 16h-80t-63 2q0 2 -1 6t1 8q10 20 32.5 44t32.5 28h96q8 0 13 14q18 94 42.5 167t57.5 131.5 t76 104.5t98 89q47 35 106.5 56.5t98.5 21.5q76 0 125 -35q23 10 49.5 24.5t42.5 24.5q6 0 16.5 -8t6.5 -14q-14 -29 -32 -93.5t-42 -187.5q-25 -121 -49.5 -259t-47 -266t-38 -229.5t-21.5 -146.5q-4 -35 -1 -57.5t20 -22.5q23 0 53.5 20.5t79.5 73.5q4 -4 6 -12 q2 -10 -2 -31.5t-8 -27.5q-66 -86 -140.5 -133.5t-121.5 -47.5q-29 0 -41.5 47t8.5 166q8 49 22.5 130t31.5 177.5t35.5 201t36 201.5t33 180t25.5 134q4 41 -14 60q-41 41 -115 41q-53 0 -92 -36t-62 -83q-31 -57 -53 -142t-43 -215q-2 -6 1 -11t7 -5q51 0 106.5 4t94.5 10 q4 -4 -1 -20t-9 -21q-49 -47 -125 -55q-16 -4 -40 -5t-40 -1q-10 -6 -10 -14q-29 -180 -52.5 -351.5t-58.5 -351.5q-25 -137 -76 -237.5t-112.5 -165t-127 -96t-120.5 -31.5q-59 0 -90 23.5t-31 56.5z" />
<glyph unicode="&#xfb03;" horiz-adv-x="1394" d="M-291 -440q-2 23 4 57.5t17 56.5q2 4 11 8.5t13 4.5q35 -49 82 -73t90 -24q35 0 60.5 15.5t45 52.5t35 95.5t31.5 144.5q20 111 40 230.5t36 230t29.5 202.5t21.5 148q0 14 -10 14l-147 6q0 2 -1 6t3 8q4 8 14 20.5t21.5 23t21.5 17.5t16 9h90q8 4 13 14q29 147 88 250 t172 187q41 31 93 53t89 22q29 2 48.5 -6t19.5 -26q0 -10 -10.5 -25.5t-23.5 -31t-28.5 -31l-23.5 -23.5q-16 -12 -27 -4q-33 27 -84 27q-23 0 -47.5 -17.5t-40.5 -56.5q-12 -25 -21.5 -51.5t-18.5 -63.5t-19.5 -86t-20.5 -117q-2 -6 1 -10t7 -4l299 -2q14 4 15 14 q16 88 39.5 160t57.5 130.5t77 105.5t100 90q45 33 111.5 60.5t128.5 29.5q100 0 133 -45q4 -4 5 -13.5t-1 -17.5q-4 -10 -13.5 -24.5t-21.5 -27.5t-24.5 -24.5t-20.5 -17.5t-17.5 -5t-13.5 5q-27 31 -59.5 50t-79.5 19q-49 0 -91 -32.5t-69 -85.5q-14 -31 -27.5 -65 t-25.5 -76t-22.5 -94t-20.5 -120q-2 -6 1 -11t7 -5h93.5t109.5 2q78 2 135.5 7t104.5 26q6 0 10 -6t2 -13q-16 -33 -30.5 -79t-30.5 -130q-10 -53 -22.5 -115.5t-23 -124t-18.5 -113.5t-10 -81q-6 -55 22 -55q18 0 48 21.5t73 68.5q8 0 8 -6q2 -8 0 -30.5t-6 -28.5 q-37 -49 -75.5 -84t-73.5 -58.5t-63.5 -34t-45.5 -10.5q-33 0 -42 45t7 148q8 51 20.5 122.5t27 148.5t29.5 152.5t28 137.5q2 6 -1 13t-9 5q-10 -4 -51.5 -6t-87.5 -3t-86 -3t-50 -2h-2q-4 0 -7 -4t-3 -8q-23 -158 -44.5 -308.5t-53.5 -330.5q-25 -147 -79.5 -248.5 t-120 -164t-133 -91.5t-116.5 -29q-55 0 -86 14.5t-51 38.5q-12 16 -19.5 40t-9.5 42q-72 -106 -152.5 -151t-150.5 -45q-57 0 -89 23.5t-32 56.5zM178 -256q29 -49 83 -76.5t122 -27.5q74 0 121 74.5t80 252.5q18 111 35.5 218.5t32 204.5t25.5 179t19 138q0 16 -10 16 h-299q-4 0 -8 -5t-4 -9q-23 -160 -48.5 -338t-60.5 -359q-14 -76 -36.5 -142.5t-51.5 -125.5z" />
<glyph unicode="&#xfb04;" horiz-adv-x="1415" d="M-291 -440q-2 23 4 59.5t17 58.5q2 4 11 8.5t13 4.5q35 -51 82 -77t90 -26q70 0 107 72t65 238q18 106 38 226t37 230.5t30.5 204.5t21.5 150q0 14 -8 14q-35 0 -81 1t-66 3v6t2 8q10 20 31.5 43t31.5 27h98q12 4 13 14q14 76 35.5 139.5t52.5 116t73 97.5t97 86 q41 31 92 53t88 22q29 0 50.5 -8t21.5 -26q0 -10 -10.5 -25.5t-24.5 -32t-29.5 -31t-23.5 -20.5q-4 -4 -12.5 -5t-12.5 1q-16 12 -35.5 20.5t-46.5 8.5q-25 0 -49.5 -17.5t-42.5 -56.5q-10 -25 -19.5 -52.5t-18.5 -64.5t-18.5 -87t-19.5 -118q-2 -6 1 -10t7 -4h304 q10 2 14 14q16 92 40.5 165t58.5 133.5t78 108.5t101 89q41 29 95.5 51.5t107.5 24.5q72 0 121 -29q20 4 47 17.5t43 25.5q4 0 15.5 -8t7.5 -14q-14 -29 -33 -93.5t-41 -187.5q-25 -119 -50.5 -258t-48 -267t-39 -229.5t-22.5 -146.5q-4 -35 0 -57.5t21 -22.5 q23 0 53.5 20.5t79.5 73.5q4 -4 6 -12q2 -10 -2 -32.5t-8 -26.5q-68 -88 -144 -134.5t-123 -46.5q-29 0 -39 48.5t11 164.5q8 49 22.5 129t30.5 174.5t34.5 197.5t37 198.5t33 177.5t24.5 133q4 23 2 41t-14 31q-41 41 -109 41q-55 0 -94 -36t-61 -83q-33 -57 -55.5 -142.5 t-41.5 -214.5q-2 -6 1 -11t7 -5q78 0 120 3t81 11q2 -4 -2 -22.5t-8 -22.5q-27 -23 -55.5 -35t-69.5 -16l-80 -6q-4 0 -8 -4t-4 -8q-12 -80 -23.5 -156t-21.5 -152.5t-23.5 -158.5t-29.5 -172q-23 -145 -78.5 -245.5t-121 -165t-133 -93.5t-116.5 -29q-55 0 -87 14.5 t-50 38.5q-12 16 -19.5 40t-9.5 42q-72 -106 -152.5 -151t-150.5 -45q-57 0 -89 23.5t-32 56.5zM178 -256q29 -49 83 -75.5t122 -26.5q74 0 121 73.5t80 251.5q18 111 35.5 218.5t33 204.5t26.5 179t19 138q0 16 -10 16h-301q-4 0 -8 -5t-4 -9q-23 -160 -48.5 -338 t-60.5 -359q-14 -76 -36.5 -142.5t-51.5 -125.5z" />
</font>
</defs>
</svg>
